SplineFontDB: 3.0
FontName: Parastoo
FullName: Parastoo
FamilyName: Parastoo
Weight: Regular
Copyright: Copyright (c) 2003 by Bitstream, Inc. All Rights Reserved.\nDejaVu changes are in public domain\nCopyright (c) 2015 by Saber Rastikerdar. All Rights Reserved.
Version: 0.10.1
ItalicAngle: 0
UnderlinePosition: -100
UnderlineWidth: 100
Ascent: 1536
Descent: 512
InvalidEm: 0
LayerCount: 2
Layer: 0 1 "Back" 1
Layer: 1 1 "Fore" 0
XUID: [1021 502 1027637223 13145481]
UniqueID: 4174021
UseUniqueID: 1
FSType: 0
OS2Version: 1
OS2_WeightWidthSlopeOnly: 0
OS2_UseTypoMetrics: 1
CreationTime: 1431850356
ModificationTime: 1457035600
PfmFamily: 17
TTFWeight: 400
TTFWidth: 5
LineGap: 0
VLineGap: 0
Panose: 2 11 6 3 3 8 4 2 2 4
OS2TypoAscent: 2000
OS2TypoAOffset: 0
OS2TypoDescent: -1000
OS2TypoDOffset: 0
OS2TypoLinegap: 0
OS2WinAscent: 2000
OS2WinAOffset: 0
OS2WinDescent: 1000
OS2WinDOffset: 0
HheadAscent: 2000
HheadAOffset: 0
HheadDescent: -1000
HheadDOffset: 0
OS2SubXSize: 1331
OS2SubYSize: 1433
OS2SubXOff: 0
OS2SubYOff: 286
OS2SupXSize: 1331
OS2SupYSize: 1433
OS2SupXOff: 0
OS2SupYOff: 983
OS2StrikeYSize: 102
OS2StrikeYPos: 530
OS2Vendor: 'PfEd'
OS2CodePages: 600001ff.dfff0000
Lookup: 1 0 0 "'case' Case-Sensitive Forms in Latin lookup 0" { "'case' Case-Sensitive Forms in Latin lookup 0 subtable"  } ['case' ('DFLT' <'dflt' > 'latn' <'CAT ' 'ESP ' 'GAL ' 'dflt' > ) ]
Lookup: 6 1 0 "'ccmp' Glyph Composition/Decomposition lookup 2" { "'ccmp' Glyph Composition/Decomposition lookup 2 subtable"  } ['ccmp' ('arab' <'KUR ' 'SND ' 'URD ' 'dflt' > 'hebr' <'dflt' > 'nko ' <'dflt' > ) ]
Lookup: 6 0 0 "'ccmp' Glyph Composition/Decomposition lookup 3" { "'ccmp' Glyph Composition/Decomposition lookup 3 subtable"  } ['ccmp' ('cyrl' <'MKD ' 'SRB ' 'dflt' > 'grek' <'dflt' > 'latn' <'ISM ' 'KSM ' 'LSM ' 'MOL ' 'NSM ' 'ROM ' 'SKS ' 'SSM ' 'dflt' > ) ]

StartChar: afii57388
Encoding: 7 1548 2
Width: 822
VWidth: 2614
GlyphClass: 2
Flags: W
LayerCount: 2
Fore
SplineSet
447.341796875 278.224609375 m 5,0,-1
 469.516601562 278.224609375 l 6,1,2
 577.706054688 278.224609375 577.706054688 278.224609375 577.706054688 155.454101562 c 6,3,-1
 577.706054688 115.063476562 l 6,4,5
 577.791015625 3.505859375 577.791015625 3.505859375 462.770507812 3.505859375 c 6,6,-1
 418.692382812 3.505859375 l 6,7,8
 299 3.421875 299 3.421875 299 129.352539062 c 6,9,-1
 299 203.5078125 l 5,10,11
 321.536132812 484.474609375 321.536132812 484.474609375 523.461914062 657.233398438 c 5,12,-1
 589.088867188 624.454101562 l 5,13,14
 450.306640625 470.01171875 450.306640625 470.01171875 447.420898438 283.301757812 c 6,15,-1
 447.341796875 278.224609375 l 5,0,-1
299 203.5078125 m 6,16,-1
 299 203.708007812 l 5,17,-1
 298.984375 203.309570312 l 6,18,19
 298.9921875 203.409179688 298.9921875 203.409179688 299 203.5078125 c 6,16,-1
EndSplineSet
EndChar

StartChar: uni0615
Encoding: 8 1557 3
Width: 0
VWidth: 2650
GlyphClass: 4
Flags: W
AnchorPoint: "Anchor-10" 594.561 1427.85 mark 0
AnchorPoint: "Anchor-9" 594.561 1427.85 mark 0
AnchorPoint: "Anchor-1" 594.561 2271.53 basemark 0
AnchorPoint: "Anchor-1" 594.561 1427.85 mark 0
LayerCount: 2
Fore
SplineSet
510.631835938 1640.35839844 m 1,0,-1
 599.752929688 1640.35839844 l 2,1,2
 679 1640 679 1640 741.822265625 1662.09570312 c 0,3,4
 815 1687 815 1687 816.873046875 1752.45507812 c 0,5,6
 818.020507812 1820.19921875 818.020507812 1820.19921875 767.313476562 1824.96386719 c 0,7,8
 733.193359375 1828.27246094 733.193359375 1828.27246094 712.745117188 1819.32617188 c 0,9,10
 624 1777 624 1777 510.631835938 1640.35839844 c 1,0,-1
914.80078125 1765.32324219 m 0,11,12
 915 1546 915 1546 629.60546875 1546.32519531 c 2,13,-1
 275.619140625 1546.32519531 l 1,14,-1
 275.619140625 1640.35839844 l 1,15,-1
 380.75390625 1640.35839844 l 1,16,-1
 380.75390625 2158.24902344 l 1,17,-1
 476.086914062 2158.24902344 l 1,18,-1
 476.086914062 1680.66113281 l 1,19,20
 552 1818 552 1818 682.930664062 1889.48242188 c 0,21,22
 753.05859375 1926.53320312 753.05859375 1926.53320312 822 1901 c 0,23,24
 915 1867 915 1867 914.80078125 1765.32324219 c 0,11,12
EndSplineSet
EndChar

StartChar: uni061B
Encoding: 9 1563 4
Width: 806
VWidth: 2614
GlyphClass: 2
Flags: W
LayerCount: 2
Fore
SplineSet
277.573242188 138.231445312 m 0,0,1
 277.573242188 166.484375 277.573242188 166.484375 287.224609375 190.471679688 c 128,-1,2
 296.875976562 214.458984375 296.875976562 214.458984375 316.237304688 234.407226562 c 0,3,4
 336.796875 254.379882812 336.796875 254.379882812 361.09765625 264.33203125 c 128,-1,5
 385.3984375 274.28515625 385.3984375 274.28515625 413.625 274.28515625 c 0,6,7
 432.466796875 274.28515625 432.466796875 274.28515625 449.377929688 269.873046875 c 128,-1,8
 466.288085938 265.461914062 466.288085938 265.461914062 481.370117188 256.608398438 c 128,-1,9
 496.452148438 247.754882812 496.452148438 247.754882812 509.799804688 234.407226562 c 0,10,11
 549.678710938 194.52734375 549.678710938 194.52734375 549.678710938 138.231445312 c 128,-1,12
 549.678710938 81.892578125 549.678710938 81.892578125 509.799804688 40.8427734375 c 0,13,14
 469.965820312 2.1787109375 469.965820312 2.1787109375 413.625 2.1787109375 c 128,-1,15
 357.244140625 2.1787109375 357.244140625 2.1787109375 316.129882812 40.943359375 c 0,16,17
 277.573242188 81.849609375 277.573242188 81.849609375 277.573242188 138.231445312 c 0,0,1
419.991210938 763.8203125 m 1,18,-1
 442.166015625 763.8203125 l 2,19,20
 550.356445312 763.8203125 550.356445312 763.8203125 550.356445312 641.048828125 c 2,21,-1
 550.356445312 600.659179688 l 2,22,23
 550.44140625 489.100585938 550.44140625 489.100585938 435.419921875 489.100585938 c 2,24,-1
 391.342773438 489.100585938 l 2,25,26
 350.967773438 489.072265625 350.967773438 489.072265625 324.463867188 502.809570312 c 128,-1,27
 297.958984375 516.545898438 297.958984375 516.545898438 284.8046875 544.451171875 c 128,-1,28
 271.650390625 572.356445312 271.650390625 572.356445312 271.650390625 614.947265625 c 2,29,-1
 271.650390625 689.302734375 l 1,30,31
 294.115234375 970.0078125 294.115234375 970.0078125 496.112304688 1142.828125 c 1,32,-1
 561.73828125 1110.04882812 l 1,33,34
 422.95703125 955.607421875 422.95703125 955.607421875 420.0703125 768.897460938 c 2,35,-1
 419.991210938 763.8203125 l 1,18,-1
EndSplineSet
EndChar

StartChar: uni061F
Encoding: 10 1567 5
Width: 1182
VWidth: 2607
GlyphClass: 2
Flags: W
LayerCount: 2
Fore
SplineSet
858.825195312 1264.10546875 m 0,0,1
 746 1499 746 1499 555.25390625 1479.23535156 c 0,2,3
 524 1476 524 1476 494.86328125 1465.52050781 c 0,4,5
 466 1455 466 1455 440.231445312 1435.87109375 c 0,6,7
 345 1365 345 1365 344.741210938 1221.92675781 c 4,8,9
 344 1096 344 1096 493.940429688 956.380859375 c 1,10,-1
 611.42578125 836.168945312 l 2,11,12
 693 753 693 753 727.3515625 689.219726562 c 0,13,14
 765.854492188 617.271900627 765.854492188 617.271900627 765.854492188 546.336914062 c 2,15,-1
 765.854492188 491.309570312 l 1,16,-1
 576.8984375 491.309570312 l 1,17,-1
 576.8984375 553.520507812 l 2,18,19
 577 622 577 622 543.171875 665.471679688 c 0,20,21
 506.568448806 712.006013955 506.568448806 712.006013955 457.03515625 760.415039062 c 2,22,-1
 344.82421875 870.079101562 l 2,23,24
 260 953 260 953 221.162109375 1040.12890625 c 0,25,26
 180 1132 180 1132 180.174804688 1239.76269531 c 0,27,28
 180 1337 180 1337 213.666992188 1414.17285156 c 0,29,30
 247 1492 247 1492 314.71484375 1549.80078125 c 0,31,32
 368 1596 368 1596 433.720703125 1619.42480469 c 0,33,34
 500 1643 500 1643 578.568359375 1643.04785156 c 0,35,36
 642 1643 642 1643 722.659179688 1614.17675781 c 0,37,38
 871 1562 871 1562 960.079101562 1383.49609375 c 1,39,-1
 1001.32519531 1288.74121094 l 1,40,-1
 873.266601562 1230.49414062 l 1,41,42
 866 1248 866 1248 858.825195312 1264.10546875 c 0,0,1
542.346679688 138.231445312 m 0,43,44
 542.346679688 157.075195312 542.346679688 157.075195312 546.640625 174.017578125 c 128,-1,45
 550.934570312 190.958984375 550.934570312 190.958984375 559.518554688 206.033203125 c 128,-1,46
 568.102539062 221.108398438 568.102539062 221.108398438 581.009765625 234.407226562 c 0,47,48
 601.569335938 254.379882812 601.569335938 254.379882812 625.87109375 264.33203125 c 128,-1,49
 650.171875 274.28515625 650.171875 274.28515625 678.3984375 274.28515625 c 128,-1,50
 706.649414062 274.28515625 706.649414062 274.28515625 730.604492188 264.352539062 c 128,-1,51
 754.559570312 254.419921875 754.559570312 254.419921875 774.573242188 234.407226562 c 0,52,53
 814.452148438 194.52734375 814.452148438 194.52734375 814.452148438 138.231445312 c 128,-1,54
 814.452148438 81.935546875 814.452148438 81.935546875 774.573242188 42.056640625 c 128,-1,55
 734.693359375 2.1787109375 734.693359375 2.1787109375 678.3984375 2.1787109375 c 128,-1,56
 622.017578125 2.1787109375 622.017578125 2.1787109375 580.90234375 40.943359375 c 0,57,58
 542.346679688 81.849609375 542.346679688 81.849609375 542.346679688 138.231445312 c 0,43,44
960.079101562 1383.49609375 m 2,59,60
 960.107421875 1383.43945312 960.107421875 1383.43945312 960.135742188 1383.3828125 c 2,61,-1
 960.028320312 1383.61230469 l 1,62,-1
 960.079101562 1383.49609375 l 2,59,60
EndSplineSet
EndChar

StartChar: uni0621
Encoding: 11 1569 6
Width: 825
VWidth: 2888
GlyphClass: 2
Flags: W
AnchorPoint: "Anchor-7" 432.263 -317.489 basechar 0
AnchorPoint: "Anchor-10" 393.793 1181.84 basechar 0
LayerCount: 2
Fore
SplineSet
91.1396484375 -46.2099609375 m 1,0,-1
 165.534179688 138.208007812 l 1,1,2
 354 228 354 228 402.706054688 236.088867188 c 1,3,-1
 402.037109375 246.021484375 l 1,4,5
 105 254 105 254 133.921875 475.98828125 c 0,6,7
 180 829 180 829 450.184570312 826.22265625 c 4,8,9
 607 825 607 825 662.828125 637.998046875 c 1,10,11
 415 711 415 711 323.18359375 635.200195312 c 0,12,13
 231 560 231 560 228.357421875 487.068359375 c 0,14,15
 225 414 225 414 285.479492188 369.809570312 c 0,16,17
 346 325 346 325 467.0078125 320.008789062 c 0,18,19
 523 318 523 318 614.7890625 339.756835938 c 0,20,21
 707 362 707 362 733.9921875 370.326171875 c 1,22,-1
 654.901367188 191.569335938 l 1,23,24
 543 161 543 161 386.068359375 89.0087890625 c 0,25,26
 230 17 230 17 91.1396484375 -46.2099609375 c 1,0,-1
EndSplineSet
EndChar

StartChar: uni0627
Encoding: 17 1575 12
Width: 455
VWidth: 2860
GlyphClass: 2
Flags: W
AnchorPoint: "Anchor-10" 235.199 1678.25 basechar 0
AnchorPoint: "Anchor-7" 212.055 -286.12 basechar 0
LayerCount: 2
Fore
SplineSet
310.767578125 1535.66601562 m 5,0,1
 334 1127 334 1127 299.827148438 370.369140625 c 4,2,3
 282.012549874 -11.7308215224 282.012549874 -11.7308215224 217.940429688 -21.3740234375 c 6,4,-1
 212.723632812 -22.1591796875 l 5,5,6
 196 818 196 818 188.46875 1077.140625 c 4,7,8
 184 1214 184 1214 176.431640625 1293.40673828 c 132,-1,9
 169 1373 169 1373 157.364257812 1442.26367188 c 5,10,-1
 310.767578125 1535.66601562 l 5,0,1
EndSplineSet
Substitution2: "'fina' Terminal Forms in Arabic lookup 9 subtable" uniFE8E
EndChar

StartChar: uni062D
Encoding: 23 1581 18
Width: 1374
VWidth: 2886
GlyphClass: 2
Flags: W
AnchorPoint: "Anchor-7" 333.349 -904.617 basechar 0
AnchorPoint: "Anchor-10" 565.092 1244.55 basechar 0
LayerCount: 2
Fore
SplineSet
893.170898438 440.166992188 m 0,0,1
 699 409 699 409 542.897460938 328.2734375 c 0,2,3
 335 220 335 220 263 92 c 128,-1,4
 191 -36 191 -36 191 -149.5 c 128,-1,5
 191 -263 191 -263 250.75390625 -342.817382812 c 0,6,7
 403 -549 403 -549 853.4296875 -545.891601562 c 0,8,9
 1022 -545 1022 -545 1107.078125 -539.98046875 c 128,-1,10
 1192 -535 1192 -535 1193 -535.5 c 128,-1,11
 1194 -536 1194 -536 1191.5 -539 c 128,-1,12
 1189 -542 1189 -542 1186.34375 -545.2890625 c 0,13,14
 1010 -721 1010 -721 865.694335938 -726.84375 c 0,15,16
 807 -729 807 -729 754.655273438 -729 c 0,17,18
 403 -728 403 -728 248.845703125 -583.200195312 c 0,19,20
 95 -438 95 -438 95.310546875 -198.712890625 c 0,21,22
 95 -21 95 -21 156.633789062 115.9609375 c 0,23,24
 333.065429688 512.147460938 333.065429688 512.147460938 897.002929688 592.993164062 c 2,25,-1
 918.413085938 596.0625 l 1,26,-1
 897.828125 602.701171875 l 2,27,28
 836 623 836 623 669.13671875 684.315429688 c 0,29,30
 495 749 495 749 440.63671875 729.815429688 c 0,31,32
 340 695 340 695 253.830078125 578.307617188 c 0,33,34
 226 541 226 541 218.438476562 537.770507812 c 0,35,36
 210 534 210 534 206.2265625 540.166992188 c 0,37,38
 193 558 193 558 249.84765625 697.30859375 c 0,39,40
 331 898 331 898 477 907 c 128,-1,41
 623 916 623 916 838.5 796 c 128,-1,42
 1054 676 1054 676 1282.07910156 652.272460938 c 1,43,-1
 1241.03710938 484.782226562 l 1,44,45
 1004.93457031 460.734375 1004.93457031 460.734375 893.170898438 440.166992188 c 0,0,1
EndSplineSet
Substitution2: "'fina' Terminal Forms in Arabic lookup 9 subtable" uniFEA2
Substitution2: "'medi' Medial Forms in Arabic lookup 11 subtable" uniFEA4
Substitution2: "'init' Initial Forms in Arabic lookup 13 subtable" uniFEA3
EndChar

StartChar: uni062F
Encoding: 25 1583 20
Width: 965
VWidth: 2884
GlyphClass: 2
Flags: W
AnchorPoint: "Anchor-10" 347.036 1429.75 basechar 0
AnchorPoint: "Anchor-7" 341.042 -307.935 basechar 0
LayerCount: 2
Fore
SplineSet
849.67578125 164.50390625 m 0,0,1
 787.698242188 -12.9384765625 787.698242188 -12.9384765625 432.353515625 -10.8212890625 c 0,2,3
 304.05078125 -9.7275390625 304.05078125 -9.7275390625 221.875 22.681640625 c 0,4,5
 37.4443359375 95.0126953125 37.4443359375 95.0126953125 108.25390625 417.848632812 c 1,6,7
 134.302734375 432.4609375 134.302734375 432.4609375 162.390625 417.078125 c 1,8,9
 130.151106403 189.627234372 130.151106403 189.627234372 384.264648438 188.473632812 c 0,10,11
 596.336914062 186.553710938 596.336914062 186.553710938 665.034179688 203.265625 c 0,12,13
 794.0546875 234.314453125 794.0546875 234.314453125 760.077148438 372.607421875 c 0,14,15
 700.942382812 610.086914062 700.942382812 610.086914062 396.090820312 788.17578125 c 1,16,-1
 454.146484375 1024.86035156 l 1,17,18
 890.7734375 728.9609375 890.7734375 728.9609375 873.833007812 284.624023438 c 0,19,20
 871.592064911 224.927414593 871.592064911 224.927414593 849.67578125 164.50390625 c 0,0,1
EndSplineSet
Substitution2: "'fina' Terminal Forms in Arabic lookup 9 subtable" uniFEAA
EndChar

StartChar: uni0631
Encoding: 27 1585 22
Width: 876
VWidth: 2889
GlyphClass: 2
Flags: W
AnchorPoint: "Anchor-7" 366.951 -888.004 basechar 0
AnchorPoint: "Anchor-10" 447.831 1114.95 basechar 0
LayerCount: 2
Fore
SplineSet
509.916015625 401.322265625 m 1,0,1
 566 501 566 501 623.2578125 602.564453125 c 1,2,3
 710 474 710 474 746.348632812 350.474609375 c 0,4,5
 820 100 820 100 746 -137.5 c 128,-1,6
 672 -375 672 -375 485.51953125 -529.280273438 c 0,7,8
 439 -568 439 -568 387.327148438 -567.780273438 c 0,9,10
 173 -566 173 -566 35.6826171875 -509.81640625 c 0,11,12
 19 -503 19 -503 33 -493 c 4,13,14
 40 -488 40 -488 75.3232421875 -474.580078125 c 0,15,16
 653 -263 653 -263 690.493164062 78.26171875 c 0,17,18
 700 166 700 166 509.916015625 401.322265625 c 1,0,1
EndSplineSet
PairPos2: "'kern' Horizontal Kerning lookup 15-3" uni0648 dx=-90 dy=0 dh=-90 dv=0 dx=0 dy=0 dh=0 dv=0
PairPos2: "'kern' Horizontal Kerning lookup 15-1" uni0632 dx=-86 dy=0 dh=-86 dv=0 dx=0 dy=0 dh=0 dv=0
PairPos2: "'kern' Horizontal Kerning lookup 15-1" uni0631 dx=-86 dy=0 dh=-86 dv=0 dx=0 dy=0 dh=0 dv=0
PairPos2: "'kern' Horizontal Kerning lookup 15-1" uni06CC dx=-108 dy=0 dh=-108 dv=0 dx=0 dy=0 dh=0 dv=0
PairPos2: "'kern' Horizontal Kerning lookup 15-1" uniFEEB dx=-184 dy=0 dh=-184 dv=0 dx=0 dy=0 dh=0 dv=0
PairPos2: "'kern' Horizontal Kerning lookup 15-1" uniFB7C dx=-108 dy=0 dh=-108 dv=0 dx=0 dy=0 dh=0 dv=0
PairPos2: "'kern' Horizontal Kerning lookup 15-1" uniFEDF dx=-184 dy=0 dh=-184 dv=0 dx=0 dy=0 dh=0 dv=0
PairPos2: "'kern' Horizontal Kerning lookup 15-1" uniFB90 dx=-184 dy=0 dh=-184 dv=0 dx=0 dy=0 dh=0 dv=0
PairPos2: "'kern' Horizontal Kerning lookup 15-1" uni06A9 dx=-184 dy=0 dh=-184 dv=0 dx=0 dy=0 dh=0 dv=0
PairPos2: "'kern' Horizontal Kerning lookup 15-1" uni0649 dx=-108 dy=0 dh=-108 dv=0 dx=0 dy=0 dh=0 dv=0
PairPos2: "'kern' Horizontal Kerning lookup 15-1" uni0647 dx=-184 dy=0 dh=-184 dv=0 dx=0 dy=0 dh=0 dv=0
PairPos2: "'kern' Horizontal Kerning lookup 15-1" uniFEE7 dx=-184 dy=0 dh=-184 dv=0 dx=0 dy=0 dh=0 dv=0
PairPos2: "'kern' Horizontal Kerning lookup 15-1" uniFEE3 dx=-184 dy=0 dh=-184 dv=0 dx=0 dy=0 dh=0 dv=0
PairPos2: "'kern' Horizontal Kerning lookup 15-1" uni0645 dx=-184 dy=0 dh=-184 dv=0 dx=0 dy=0 dh=0 dv=0
PairPos2: "'kern' Horizontal Kerning lookup 15-1" uni0644 dx=-108 dy=0 dh=-108 dv=0 dx=0 dy=0 dh=0 dv=0
PairPos2: "'kern' Horizontal Kerning lookup 15-1" uniFEDB dx=-184 dy=0 dh=-184 dv=0 dx=0 dy=0 dh=0 dv=0
PairPos2: "'kern' Horizontal Kerning lookup 15-1" uniFED7 dx=-184 dy=0 dh=-184 dv=0 dx=0 dy=0 dh=0 dv=0
PairPos2: "'kern' Horizontal Kerning lookup 15-1" uni0642 dx=-108 dy=0 dh=-108 dv=0 dx=0 dy=0 dh=0 dv=0
PairPos2: "'kern' Horizontal Kerning lookup 15-1" uniFED3 dx=-184 dy=0 dh=-184 dv=0 dx=0 dy=0 dh=0 dv=0
PairPos2: "'kern' Horizontal Kerning lookup 15-1" uni0641 dx=-184 dy=0 dh=-184 dv=0 dx=0 dy=0 dh=0 dv=0
PairPos2: "'kern' Horizontal Kerning lookup 15-1" uniFECF dx=-184 dy=0 dh=-184 dv=0 dx=0 dy=0 dh=0 dv=0
PairPos2: "'kern' Horizontal Kerning lookup 15-1" uniFECB dx=-184 dy=0 dh=-184 dv=0 dx=0 dy=0 dh=0 dv=0
PairPos2: "'kern' Horizontal Kerning lookup 15-1" uniFEC7 dx=-184 dy=0 dh=-184 dv=0 dx=0 dy=0 dh=0 dv=0
PairPos2: "'kern' Horizontal Kerning lookup 15-1" uni0638 dx=-184 dy=0 dh=-184 dv=0 dx=0 dy=0 dh=0 dv=0
PairPos2: "'kern' Horizontal Kerning lookup 15-1" uniFEC3 dx=-184 dy=0 dh=-184 dv=0 dx=0 dy=0 dh=0 dv=0
PairPos2: "'kern' Horizontal Kerning lookup 15-1" uni0637 dx=-184 dy=0 dh=-184 dv=0 dx=0 dy=0 dh=0 dv=0
PairPos2: "'kern' Horizontal Kerning lookup 15-1" uniFEBF dx=-184 dy=0 dh=-184 dv=0 dx=0 dy=0 dh=0 dv=0
PairPos2: "'kern' Horizontal Kerning lookup 15-1" uni0636 dx=-184 dy=0 dh=-184 dv=0 dx=0 dy=0 dh=0 dv=0
PairPos2: "'kern' Horizontal Kerning lookup 15-1" uniFEBB dx=-184 dy=0 dh=-184 dv=0 dx=0 dy=0 dh=0 dv=0
PairPos2: "'kern' Horizontal Kerning lookup 15-1" uni0635 dx=-184 dy=0 dh=-184 dv=0 dx=0 dy=0 dh=0 dv=0
PairPos2: "'kern' Horizontal Kerning lookup 15-1" uniFEB7 dx=-184 dy=0 dh=-184 dv=0 dx=0 dy=0 dh=0 dv=0
PairPos2: "'kern' Horizontal Kerning lookup 15-1" uni0634 dx=-184 dy=0 dh=-184 dv=0 dx=0 dy=0 dh=0 dv=0
PairPos2: "'kern' Horizontal Kerning lookup 15-1" uniFEB3 dx=-184 dy=0 dh=-184 dv=0 dx=0 dy=0 dh=0 dv=0
PairPos2: "'kern' Horizontal Kerning lookup 15-1" uni0633 dx=-184 dy=0 dh=-184 dv=0 dx=0 dy=0 dh=0 dv=0
PairPos2: "'kern' Horizontal Kerning lookup 15-1" uni0630 dx=-184 dy=0 dh=-184 dv=0 dx=0 dy=0 dh=0 dv=0
PairPos2: "'kern' Horizontal Kerning lookup 15-1" uni062F dx=-184 dy=0 dh=-184 dv=0 dx=0 dy=0 dh=0 dv=0
PairPos2: "'kern' Horizontal Kerning lookup 15-1" uniFEA7 dx=-184 dy=0 dh=-184 dv=0 dx=0 dy=0 dh=0 dv=0
PairPos2: "'kern' Horizontal Kerning lookup 15-1" uniFEA3 dx=-184 dy=0 dh=-184 dv=0 dx=0 dy=0 dh=0 dv=0
PairPos2: "'kern' Horizontal Kerning lookup 15-1" uniFE9F dx=-184 dy=0 dh=-184 dv=0 dx=0 dy=0 dh=0 dv=0
PairPos2: "'kern' Horizontal Kerning lookup 15-1" uniFE9B dx=-184 dy=0 dh=-184 dv=0 dx=0 dy=0 dh=0 dv=0
PairPos2: "'kern' Horizontal Kerning lookup 15-1" uni062B dx=-184 dy=0 dh=-184 dv=0 dx=0 dy=0 dh=0 dv=0
PairPos2: "'kern' Horizontal Kerning lookup 15-1" uniFE97 dx=-184 dy=0 dh=-184 dv=0 dx=0 dy=0 dh=0 dv=0
PairPos2: "'kern' Horizontal Kerning lookup 15-1" uni062A dx=-184 dy=0 dh=-184 dv=0 dx=0 dy=0 dh=0 dv=0
PairPos2: "'kern' Horizontal Kerning lookup 15-1" uni0629 dx=-184 dy=0 dh=-184 dv=0 dx=0 dy=0 dh=0 dv=0
PairPos2: "'kern' Horizontal Kerning lookup 15-1" uniFE91 dx=-112 dy=0 dh=-112 dv=0 dx=0 dy=0 dh=0 dv=0
PairPos2: "'kern' Horizontal Kerning lookup 15-1" uni0628 dx=-184 dy=0 dh=-184 dv=0 dx=0 dy=0 dh=0 dv=0
PairPos2: "'kern' Horizontal Kerning lookup 15-1" uni0627 dx=-205 dy=0 dh=-205 dv=0 dx=0 dy=0 dh=0 dv=0
PairPos2: "'kern' Horizontal Kerning lookup 15-1" uni0622 dx=-205 dy=0 dh=-205 dv=0 dx=0 dy=0 dh=0 dv=0
PairPos2: "'kern' Horizontal Kerning lookup 15-1" uniFB94 dx=-184 dy=0 dh=-184 dv=0 dx=0 dy=0 dh=0 dv=0
PairPos2: "'kern' Horizontal Kerning lookup 15-1" afii57509 dx=-184 dy=0 dh=-184 dv=0 dx=0 dy=0 dh=0 dv=0
PairPos2: "'kern' Horizontal Kerning lookup 15-1" uniFB56 dx=-184 dy=0 dh=-184 dv=0 dx=0 dy=0 dh=0 dv=0
PairPos2: "'kern' Horizontal Kerning lookup 15-1" afii57506 dx=-184 dy=0 dh=-184 dv=0 dx=0 dy=0 dh=0 dv=0
Substitution2: "'fina' Terminal Forms in Arabic lookup 9 subtable" uniFEAE
EndChar

StartChar: uni0633
Encoding: 29 1587 24
Width: 2363
VWidth: 2890
GlyphClass: 2
Flags: W
AnchorPoint: "Anchor-7" 311.039 -842.052 basechar 0
AnchorPoint: "Anchor-10" 566.777 994.409 basechar 0
LayerCount: 2
Fore
SplineSet
1064.81152344 339.331054688 m 5,0,1
 1201 481 l 5,2,3
 1262 288 1262 288 1297 243 c 28,4,5
 1348 178 1348 178 1480.0390625 178.280273438 c 0,6,7
 1650 179 1650 179 1668.55957031 417.319335938 c 2,8,-1
 1670.87402344 447.330078125 l 2,9,10
 1676.16985544 515.999366374 1676.16985544 515.999366374 1717.88574219 515.84375 c 0,11,12
 1767 516 1767 516 1772.35449219 454.231445312 c 1,13,-1
 1773.77050781 425.29296875 l 2,14,15
 1785.33281045 188.99937193 1785.33281045 188.99937193 1970.25585938 188.650390625 c 0,16,17
 2143 189 2143 189 2149.66894531 324.439453125 c 0,18,19
 2156 438 2156 438 2051.33789062 531.407226562 c 1,20,-1
 2182.04492188 772.711914062 l 1,21,22
 2251 670 2251 670 2271.5 463 c 128,-1,23
 2292 256 2292 256 2186.44238281 107.939453125 c 0,24,25
 2102 -11 2102 -11 1949 -11 c 128,-1,26
 1796 -11 1796 -11 1724.15527344 187.321289062 c 2,27,-1
 1718.80761719 202.120117188 l 1,28,-1
 1714.6328125 186.94921875 l 2,29,30
 1659.88383712 -12.0040752991 1659.88383712 -12.0040752991 1502.44191856 -17.5020376495 c 128,-1,31
 1345 -23 1345 -23 1311.32421875 47.9228515625 c 13,32,-1
 1298.04003906 -66.3291015625 l 5,33,34
 1209 -590 1209 -590 679.004882812 -596.1171875 c 4,35,36
 347 -600 347 -600 203 -418.5 c 132,-1,37
 59 -237 59 -237 104.837890625 28.28515625 c 4,38,39
 123 132 123 132 154.09375 213.3515625 c 4,40,41
 205.309255501 347.845173019 205.309255501 347.845173019 246.5 322 c 4,42,43
 272 306 272 306 231 177 c 4,44,45
 162 -43 162 -43 245.98046875 -207.971679688 c 4,46,47
 345 -403 345 -403 714.786132812 -394.998046875 c 4,48,49
 1145.41719777 -384.990304443 1145.41719777 -384.990304443 1182.38183594 -25.201171875 c 5,50,51
 1146.7681864 168.397829121 1146.7681864 168.397829121 1064.81152344 339.331054688 c 5,0,1
EndSplineSet
Substitution2: "'fina' Terminal Forms in Arabic lookup 9 subtable" uniFEB2
Substitution2: "'medi' Medial Forms in Arabic lookup 11 subtable" uniFEB4
Substitution2: "'init' Initial Forms in Arabic lookup 13 subtable" uniFEB3
EndChar

StartChar: uni0635
Encoding: 31 1589 26
Width: 2507
VWidth: 2890
GlyphClass: 2
Flags: W
AnchorPoint: "Anchor-10" 605.271 992.742 basechar 0
AnchorPoint: "Anchor-7" 337.564 -827.958 basechar 0
LayerCount: 2
Fore
SplineSet
1558.60742188 189.7265625 m 1,0,-1
 1792.41503906 189.7265625 l 2,1,2
 2095 190 2095 190 2176 208 c 0,3,4
 2358 251 2358 251 2296 435 c 0,5,6
 2253 565 2253 565 2101.39257812 570.82421875 c 0,7,8
 1952 576 1952 576 1767.86035156 411.854492188 c 0,9,10
 1652 308 1652 308 1558.60742188 189.7265625 c 1,0,-1
1577.48535156 -11.32421875 m 2,11,12
 1359.26894228 -11.3323877552 1359.26894228 -11.3323877552 1311.32421875 47.9228515625 c 9,13,-1
 1298.04003906 -66.3291015625 l 1,14,15
 1209 -590 1209 -590 679.004882812 -596.1171875 c 0,16,17
 347 -600 347 -600 203 -418.5 c 128,-1,18
 59 -237 59 -237 104.837890625 28.28515625 c 0,19,20
 123 132 123 132 154.09375 213.3515625 c 0,21,22
 205 348 205 348 246.5 322 c 0,23,24
 272 306 272 306 231 177 c 0,25,26
 162 -43 162 -43 245.98046875 -207.971679688 c 0,27,28
 345 -403 345 -403 714.786132812 -394.998046875 c 0,29,30
 1145 -385 1145 -385 1182.38183594 -25.201171875 c 1,31,32
 1147 168 1147 168 1064.81152344 339.331054688 c 1,33,-1
 1201 481 l 1,34,35
 1259 283 1259 283 1300 246 c 16,36,37
 1360 192 1360 192 1469.16699219 200.833984375 c 1,38,39
 1811 754 1811 754 2078.42578125 762.651367188 c 0,40,41
 2271 769 2271 769 2367 579 c 0,42,43
 2427 459 2427 459 2415.73242188 315.571289062 c 0,44,45
 2389.97684959 -11.2938028554 2389.97684959 -11.2938028554 1864.43847656 -11.3134765625 c 2,46,-1
 1577.48535156 -11.32421875 l 2,11,12
EndSplineSet
Substitution2: "'fina' Terminal Forms in Arabic lookup 9 subtable" uniFEBA
Substitution2: "'medi' Medial Forms in Arabic lookup 11 subtable" uniFEBC
Substitution2: "'init' Initial Forms in Arabic lookup 13 subtable" uniFEBB
EndChar

StartChar: uni0637
Encoding: 33 1591 28
Width: 1418
VWidth: 2890
GlyphClass: 2
Flags: W
AnchorPoint: "Anchor-10" 476.257 1637.5 basechar 0
AnchorPoint: "Anchor-7" 569.796 -306.793 basechar 0
LayerCount: 2
Fore
SplineSet
469.564453125 190.76953125 m 5,0,-1
 703.372070312 190.76953125 l 6,1,2
 1005.95703125 191.04296875 1005.95703125 191.04296875 1086.95703125 209.04296875 c 4,3,4
 1268.95703125 252.04296875 1268.95703125 252.04296875 1206.95703125 436.04296875 c 4,5,6
 1163.95703125 566.04296875 1163.95703125 566.04296875 1012.34960938 571.8671875 c 4,7,8
 862.95703125 577.04296875 862.95703125 577.04296875 678.817382812 412.897460938 c 4,9,10
 562.95703125 309.04296875 562.95703125 309.04296875 469.564453125 190.76953125 c 5,0,-1
537 432 m 1,11,12
 786 757 786 757 989.3828125 763.694335938 c 0,13,14
 1182 770 1182 770 1277.95703125 580.04296875 c 0,15,16
 1338 460 1338 460 1326.68945312 316.614257812 c 0,17,18
 1300.98027945 -10.2507259956 1300.98027945 -10.2507259956 774.395507812 -10.2705078125 c 2,19,-1
 488.442382812 -10.28125 l 2,20,-1
 248.571289062 -10.28125 l 1,21,22
 136 76 136 76 91.2646484375 188.830078125 c 1,23,-1
 370.583984375 188.831054688 l 1,24,25
 410 252 410 252 432.1640625 284.765625 c 1,26,-1
 432.163085938 341.508789062 l 2,27,28
 432 350 432 350 423.5 854 c 0,29,30
 415 1319 415 1319 385.090820312 1438.18164062 c 1,31,-1
 538.05078125 1535.25292969 l 1,32,-1
 537 432 l 1,11,12
EndSplineSet
Substitution2: "'fina' Terminal Forms in Arabic lookup 9 subtable" uniFEC2
Substitution2: "'medi' Medial Forms in Arabic lookup 11 subtable" uniFEC4
Substitution2: "'init' Initial Forms in Arabic lookup 13 subtable" uniFEC3
EndChar

StartChar: uni0639
Encoding: 35 1593 30
Width: 1277
VWidth: 2886
GlyphClass: 2
Flags: W
AnchorPoint: "Anchor-10" 725.259 1536.86 basechar 0
AnchorPoint: "Anchor-7" 303.709 -936.666 basechar 0
LayerCount: 2
Fore
SplineSet
91.310546875 -198.712890625 m 0,0,1
 91.6653497063 289.971563593 91.6653497063 289.971563593 555.250976562 496.563476562 c 2,2,-1
 566.66015625 501.6484375 l 1,3,-1
 554.89453125 505.840820312 l 2,4,5
 372.00390625 571.010742188 372.00390625 571.010742188 360.852539062 730.30078125 c 128,-1,6
 349.701171875 889.590820312 349.701171875 889.590820312 476.212890625 1025.94433594 c 0,7,8
 626.398101118 1189.27128311 626.398101118 1189.27128311 811.674187057 1153.63179496 c 128,-1,9
 996.950272995 1117.99230681 996.950272995 1117.99230681 1036.80273438 913.23828125 c 1,10,11
 936.283927345 950.597872371 936.283927345 950.597872371 819.353389454 968.400010404 c 128,-1,12
 702.422851562 986.202148438 702.422851562 986.202148438 593.202148438 937.673828125 c 0,13,14
 444.088729548 870.771972809 444.088729548 870.771972809 451.215820312 768.866210938 c 0,15,16
 456.385742188 696.385742188 456.385742188 696.385742188 571.405273438 618.297851562 c 0,17,18
 640.92578125 571.161132812 640.92578125 571.161132812 687.038085938 567.471679688 c 0,19,20
 697.99609375 566.6875 697.99609375 566.6875 924.072265625 594.791992188 c 2,21,-1
 1144.71191406 622.220703125 l 1,22,-1
 1095.20898438 429.142578125 l 1,23,24
 729.736997315 428.072833935 729.736997315 428.072833935 531.557951782 325.735635717 c 128,-1,25
 333.37890625 223.3984375 333.37890625 223.3984375 260.328613281 93.65234375 c 128,-1,26
 187.278320312 -36.09375 187.278320312 -36.09375 187.277832031 -149.351074219 c 128,-1,27
 187.27734375 -262.608398438 187.27734375 -262.608398438 246.75390625 -342.817382812 c 0,28,29
 399.291992188 -548.936523438 399.291992188 -548.936523438 849.4296875 -545.891601562 c 0,30,31
 1084.75878906 -544.087890625 1084.75878906 -544.087890625 1134.30908203 -539.484863281 c 128,-1,32
 1183.859375 -534.881835938 1183.859375 -534.881835938 1186.04980469 -537.463867188 c 0,33,34
 1186.68554688 -541.498046875 1186.68554688 -541.498046875 1174.78222656 -553.418945312 c 0,35,36
 1004.58195334 -723.872608776 1004.58195334 -723.872608776 859.612304688 -726.522460938 c 0,37,38
 794.8046875 -727.920898438 794.8046875 -727.920898438 750.579101562 -729 c 0,39,40
 398.396484375 -729 398.396484375 -729 244.917873453 -583.542503462 c 128,-1,41
 91.4392625315 -438.085006924 91.4392625315 -438.085006924 91.310546875 -198.712890625 c 0,0,1
EndSplineSet
Substitution2: "'fina' Terminal Forms in Arabic lookup 9 subtable" uniFECA
Substitution2: "'medi' Medial Forms in Arabic lookup 11 subtable" uniFECC
Substitution2: "'init' Initial Forms in Arabic lookup 13 subtable" uniFECB
EndChar

StartChar: afii57440
Encoding: 37 1600 32
Width: 840
VWidth: 2911
GlyphClass: 2
Flags: W
AnchorPoint: "Anchor-10" 408.86 1695.94 basechar 0
AnchorPoint: "Anchor-7" 408.86 -182.108 basechar 0
LayerCount: 2
Fore
SplineSet
-10.7568359375 -10.28125 m 5,0,-1
 -10.7568359375 188.201171875 l 5,1,-1
 850.518554688 188.201171875 l 1,2,-1
 850.518554688 -10.28125 l 1,3,-1
 -10.7568359375 -10.28125 l 5,0,-1
EndSplineSet
EndChar

StartChar: uni0643
Encoding: 40 1603 35
Width: 2036
VWidth: 2860
GlyphClass: 2
Flags: W
AnchorPoint: "Anchor-10" 544.137 1509.55 basechar 0
AnchorPoint: "Anchor-7" 621.318 -295.281 basechar 0
LayerCount: 2
Fore
SplineSet
697.301757812 765.680664062 m 1,0,1
 844.736328125 746.271484375 844.736328125 746.271484375 905.31640625 757.076171875 c 0,2,3
 1116.29199219 794.702148438 1116.29199219 794.702148438 1116.25390625 900.801757812 c 0,4,5
 1116.28125 985.303710938 1116.28125 985.303710938 981.66796875 1006.8125 c 0,6,7
 822.615234375 1030.69140625 822.615234375 1030.69140625 825.865234375 1177.53710938 c 0,8,9
 827.859375 1278.17480469 827.859375 1278.17480469 927.903320312 1328.7578125 c 0,10,11
 1056.89648438 1394.25976562 1056.89648438 1394.25976562 1209.60058594 1406.02636719 c 1,12,-1
 1173.56152344 1325.03222656 l 1,13,14
 1004.7109375 1311.31347656 1004.7109375 1311.31347656 928.484375 1245.30566406 c 0,15,16
 894.791992188 1216.63378906 894.791992188 1216.63378906 894.543945312 1173.99414062 c 0,17,18
 893.47265625 1074.99902344 893.47265625 1074.99902344 1009.84179688 1058.13671875 c 0,19,20
 1183.57714844 1032.95214844 1183.57714844 1032.95214844 1184.4375 944.142578125 c 0,21,22
 1184.046875 852.095703125 1184.046875 852.095703125 1141.57910156 797.908203125 c 0,23,24
 1049.45019531 680.405273438 1049.45019531 680.405273438 846.479492188 680.83203125 c 0,25,26
 769.725585938 680.416992188 769.725585938 680.416992188 697.301757812 692.265625 c 1,27,-1
 697.301757812 765.680664062 l 1,0,1
177.828125 502.140625 m 0,28,29
 186 215 186 215 618.7734375 193.467773438 c 0,30,31
 1006 175 1006 175 1272.22167969 198.150390625 c 0,32,33
 1538 222 1538 222 1676.9609375 329.736328125 c 0,34,35
 1765 398 1765 398 1773.77734375 495.766601562 c 0,36,37
 1792 693 1792 693 1780.17578125 994.984375 c 0,38,39
 1768 1297 1768 1297 1747.35839844 1429.79785156 c 1,40,-1
 1905.1875 1534.1171875 l 1,41,-1
 1905.1875 546.426757812 l 1,42,43
 1891 269 1891 269 1730.11914062 156.017578125 c 0,44,45
 1569 43 1569 43 1354.47265625 17.80859375 c 0,46,47
 1140 -8 1140 -8 880.940429688 -10.1123046875 c 0,48,49
 447 -14 447 -14 306.200195312 59.1494140625 c 0,50,51
 86 173 86 173 91.0126953125 442.72265625 c 0,52,53
 94 609 94 609 135.151367188 709.690429688 c 0,54,55
 162 775 162 775 192.5390625 762.466796875 c 0,56,57
 205 757 205 757 204.498046875 742.580078125 c 128,-1,58
 204 728 204 728 189.892578125 653.163085938 c 0,59,60
 175 579 175 579 177.828125 502.140625 c 0,28,29
1905.1875 546.426757812 m 2,61,-1
 1905.19335938 546.549804688 l 2,62,63
 1905.19042969 546.48828125 1905.19042969 546.48828125 1905.1875 546.426757812 c 2,61,-1
EndSplineSet
Substitution2: "'fina' Terminal Forms in Arabic lookup 9 subtable" uniFEDA
Substitution2: "'medi' Medial Forms in Arabic lookup 11 subtable" uniFEDC
Substitution2: "'init' Initial Forms in Arabic lookup 13 subtable" uniFEDB
EndChar

StartChar: uni0644
Encoding: 41 1604 36
Width: 1341
VWidth: 2890
GlyphClass: 2
Flags: W
AnchorPoint: "Anchor-10" 459.285 1183.99 basechar 0
AnchorPoint: "Anchor-7" 288.51 -816.649 basechar 0
LayerCount: 2
Fore
SplineSet
192.287109375 -412.2265625 m 4,0,1
 324.23364648 -597.519504135 324.23364648 -597.519504135 618.461914062 -593.610351562 c 4,2,3
 1122 -587 1122 -587 1196.6875 11.046875 c 4,4,5
 1210.734375 117.69685858 1210.734375 117.69685858 1210.734375 476.048828125 c 6,6,-1
 1210.734375 1533.23046875 l 5,7,-1
 1056.09277344 1437.58984375 l 5,8,9
 1084 1241 1084 1241 1088.34179688 988.99609375 c 4,10,11
 1102 210 1102 210 1087.45898438 27.857421875 c 4,12,13
 1057 -378 1057 -378 653.147460938 -392.490234375 c 4,14,15
 345 -403 345 -403 245.98046875 -207.971679688 c 4,16,17
 162 -43 162 -43 231 177 c 4,18,19
 272 306 272 306 246.5 322 c 4,20,21
 222 338 222 338 191.059570312 290.641601562 c 4,22,23
 170 259 170 259 147 181 c 4,24,25
 34 -192 34 -192 192.287109375 -412.2265625 c 4,0,1
EndSplineSet
Substitution2: "'fina' Terminal Forms in Arabic lookup 9 subtable" uniFEDE
Substitution2: "'medi' Medial Forms in Arabic lookup 11 subtable" uniFEE0
Substitution2: "'init' Initial Forms in Arabic lookup 13 subtable" uniFEDF
EndChar

StartChar: uni0645
Encoding: 42 1605 37
Width: 1146
VWidth: 2913
GlyphClass: 2
Flags: W
AnchorPoint: "Anchor-10" 572.127 1270.71 basechar 0
AnchorPoint: "Anchor-7" 192.902 -848.874 basechar 0
LayerCount: 2
Fore
SplineSet
457.717773438 369.663085938 m 1,0,1
 643 352 643 352 769.375976562 352.395507812 c 0,2,3
 883 352 883 352 916.4047999 359.208625864 c 0,4,5
 944 365 944 365 949.266775083 405.138727551 c 0,6,7
 952 425 952 425 865 520 c 0,8,9
 740 657 740 657 640.294509841 656.779137282 c 0,10,11
 576 657 576 657 528.156400616 596.889568641 c 0,12,13
 480 537 480 537 457.717773438 369.663085938 c 1,0,1
1055 390 m 4,14,15
 1019 280 1019 280 920 195 c 0,16,17
 895.078430753 173.032068887 895.078430753 173.032068887 785.485351562 176.845703125 c 2,18,19
 398.897960198 190.600186049 l 1,20,21
 245 191 245 191 211.399414062 105.21875 c 0,22,23
 199 73 199 73 198.861578052 4.89227531058 c 0,24,25
 198.999379867 -64.6868810148 198.999379867 -64.6868810148 210.262695312 -164.754882812 c 2,26,-1
 254.966796875 -561.924804688 l 1,27,-1
 142.567382812 -709.278320312 l 2,28,29
 116 -744 116 -744 108.567406833 -733.097482623 c 128,-1,30
 101.134857928 -722.197767022 101.134857928 -722.197767022 100.639648438 -690.850585938 c 2,31,-1
 91.78125 -130.106445312 l 2,32,33
 91 -82 91 -82 91.2717674514 -75.6156073507 c 0,34,35
 91 87 91 87 112.282226562 147.1875 c 0,36,37
 177 329 177 329 336.186523438 353.440429688 c 1,38,39
 366 652 366 652 516.518554688 776.889648438 c 0,40,41
 589 837 589 837 662.452148438 836.423828125 c 0,42,43
 709 836 709 836 743.633789062 819.219726562 c 0,44,45
 927 732 927 732 1048.7421875 439.704101562 c 0,46,47
 1061.28351498 409.500563737 1061.28351498 409.500563737 1055 390 c 4,14,15
EndSplineSet
Substitution2: "'init' Initial Forms in Arabic lookup 13 subtable" uniFEE3
Substitution2: "'medi' Medial Forms in Arabic lookup 11 subtable" uniFEE4
Substitution2: "'fina' Terminal Forms in Arabic lookup 9 subtable" uniFEE2
EndChar

StartChar: uni0647
Encoding: 44 1607 39
Width: 847
VWidth: 2885
GlyphClass: 2
Flags: W
AnchorPoint: "Anchor-10" 382.913 1160.17 basechar 0
AnchorPoint: "Anchor-7" 377.838 -276.911 basechar 0
LayerCount: 2
Fore
SplineSet
418.581054688 633.13671875 m 1,0,1
 206 394 206 394 205.633789062 319.534179688 c 0,2,3
 205 170 205 170 444.459960938 170.672851562 c 0,4,5
 519 171 519 171 570.41015625 193.2578125 c 0,6,7
 715 258 715 258 591.823242188 449.145507812 c 0,8,9
 531 543 531 543 418.581054688 633.13671875 c 1,0,1
129.969726562 118.250976562 m 0,10,11
 92 183 92 183 91 262.5 c 128,-1,12
 90 342 90 342 166.522460938 473.69921875 c 0,13,14
 243 606 243 606 341.302734375 720.370117188 c 1,15,-1
 298.515625 752.4609375 l 1,16,-1
 389.682617188 917.534179688 l 1,17,18
 669 670 669 670 734.305664062 431.360351562 c 0,19,20
 756 353 756 353 755.622070312 296.12890625 c 0,21,22
 756 143 756 143 637.666992188 49.2763671875 c 0,23,24
 565 -9 565 -9 426.465820312 -8.5908203125 c 0,25,26
 205 -9 205 -9 129.969726562 118.250976562 c 0,10,11
EndSplineSet
Substitution2: "'fina' Terminal Forms in Arabic lookup 9 subtable" uniFEEA
Substitution2: "'medi' Medial Forms in Arabic lookup 11 subtable" uniFEEC
Substitution2: "'init' Initial Forms in Arabic lookup 13 subtable" uniFEEB
EndChar

StartChar: uni0648
Encoding: 45 1608 40
Width: 889
VWidth: 2912
GlyphClass: 2
Flags: W
AnchorPoint: "Anchor-10" 417.984 1177.12 basechar 0
AnchorPoint: "Anchor-7" 304.109 -877.454 basechar 0
LayerCount: 2
Fore
SplineSet
629.72265625 360.69921875 m 4,0,1
 581 468 581 468 459.713867188 465.487304688 c 4,2,3
 315 463 315 463 275.739257812 302.267578125 c 0,4,5
 252 204 252 204 345.986328125 179.748046875 c 0,6,7
 498 141 498 141 668.96484375 193.162109375 c 1,8,9
 672 270 672 270 629.72265625 360.69921875 c 4,0,1
555.033203125 643.182617188 m 4,10,11
 698 584 698 584 747.5078125 407.041015625 c 4,12,13
 814 166 814 166 770.743164062 -32.1533203125 c 0,14,15
 708 -319 708 -319 490.110351562 -525.151367188 c 0,16,17
 447 -566 447 -566 384.909179688 -565.407226562 c 0,18,19
 189 -566 189 -566 34.6533203125 -507.874023438 c 0,20,21
 19 -502 19 -502 31.1063868293 -493.03784566 c 0,22,23
 43 -484 43 -484 75.3310546875 -472.577148438 c 0,24,25
 572.083457002 -294.970161097 572.083457002 -294.970161097 670.0234375 -1.1806640625 c 2,26,-1
 673.165039062 8.2431640625 l 1,27,28
 544 -34 544 -34 419.05141821 -19.5060620861 c 128,-1,29
 294 -5 294 -5 228.5 80.5 c 0,30,31
 160 169 160 169 176.197265625 294.728515625 c 0,32,33
 199 470 199 470 323.760742188 593.951171875 c 4,34,35
 406 676 406 676 527.545898438 650.998046875 c 4,36,37
 542 648 542 648 555.033203125 643.182617188 c 4,10,11
EndSplineSet
Substitution2: "'fina' Terminal Forms in Arabic lookup 9 subtable" uniFEEE
EndChar

StartChar: uni0649
Encoding: 46 1609 41
Width: 1488
VWidth: 2906
GlyphClass: 2
Flags: W
AnchorPoint: "Anchor-10" 475.473 1121.92 basechar 0
AnchorPoint: "Anchor-7" 236.788 -676.211 basechar 0
LayerCount: 2
Fore
SplineSet
1396.24609375 575.110351562 m 0,0,1
 1398 562 1398 562 1396.6640625 551.763671875 c 0,2,3
 1395 542 1395 542 1391.109375 535.241210938 c 0,4,5
 1388 530 1388 530 1384.29199219 528.774414062 c 0,6,7
 1381.24864446 527.13402165 1381.24864446 527.13402165 1374.73339844 529.220703125 c 2,8,-1
 1329.55761719 543.689453125 l 2,9,10
 1127 609 1127 609 1006.56835938 459.950195312 c 0,11,12
 938 375 938 375 930.1953125 275.891601562 c 0,13,14
 927 230 927 230 981.013671875 207.943359375 c 0,15,16
 1032.51072561 186.206522062 1032.51072561 186.206522062 1144.27441406 186.975585938 c 2,17,-1
 1170.52929688 187.15625 l 2,18,19
 1267 188 1267 188 1323.18652344 174.830078125 c 0,20,21
 1400 158 1400 158 1396.203125 12.5458984375 c 0,22,23
 1394 -76 1394 -76 1352.56054688 -157.96484375 c 128,-1,24
 1311 -240 1311 -240 1231.00195312 -315.185546875 c 0,25,26
 1037 -495 1037 -495 672.19140625 -495.63671875 c 4,27,28
 374 -496 374 -496 235.030273438 -380.826171875 c 4,29,30
 91 -260 91 -260 91.6689453125 -20.2724609375 c 0,31,32
 92 141 92 141 154.348632812 303.455078125 c 0,33,34
 204 434 204 434 266.8515625 526.383789062 c 0,35,36
 283 550 283 550 302.946289062 537.672851562 c 0,37,38
 321 526 321 526 307 495 c 0,39,40
 241 350 241 350 214.626953125 132.212890625 c 0,41,42
 202 27 202 27 235.927734375 -68.595703125 c 0,43,44
 326 -319 326 -319 726.056640625 -302.848632812 c 0,45,46
 848 -298 848 -298 875.841796875 -293.474609375 c 0,47,48
 1210 -245 1210 -245 1296.17480469 -62.0029296875 c 0,49,50
 1299 -56 1299 -56 1299.87304688 -51.15234375 c 0,51,52
 1301 -46 1301 -46 1301.51464844 -41.1640625 c 0,53,54
 1302 -3 1302 -3 1242.41015625 0.5390625 c 0,55,56
 1196 3 1196 3 1090.046875 3.037109375 c 0,57,58
 947 3 947 3 892.346679688 47.9658203125 c 0,59,60
 781 140 781 140 856.16796875 390.0625 c 0,61,62
 910 570 910 570 1007.94042969 658.459960938 c 0,63,64
 1023 672 1023 672 1037.51757812 682.661132812 c 0,65,66
 1052 694 1052 694 1067.29394531 703.064453125 c 0,67,68
 1082 712 1082 712 1097.25390625 719.676757812 c 0,69,70
 1112 727 1112 727 1127.41015625 732.518554688 c 128,-1,71
 1143 738 1143 738 1157.74609375 741.59765625 c 0,72,73
 1173 745 1173 745 1188.27148438 746.934570312 c 0,74,75
 1371 766 1371 766 1396.24609375 575.110351562 c 0,0,1
EndSplineSet
Substitution2: "'fina' Terminal Forms in Arabic lookup 9 subtable" uniFEF0
Substitution2: "'medi' Medial Forms in Arabic lookup 11 subtable" uniFBE9
Substitution2: "'init' Initial Forms in Arabic lookup 13 subtable" uniFBE8
EndChar

StartChar: uni064B
Encoding: 48 1611 43
Width: -22
VWidth: 1985
GlyphClass: 4
Flags: W
AnchorPoint: "Anchor-10" 526.624 955.612 mark 0
AnchorPoint: "Anchor-9" 526.624 955.612 mark 0
AnchorPoint: "Anchor-1" 492.064 1429.91 basemark 0
AnchorPoint: "Anchor-1" 526.624 955.612 mark 0
LayerCount: 2
Fore
SplineSet
265.94140625 916.568359375 m 1,0,-1
 265.94140625 1004.89941406 l 1,1,-1
 691.107421875 1178.75390625 l 1,2,-1
 691.107421875 1090.42089844 l 1,3,-1
 265.94140625 916.568359375 l 1,0,-1
265.94140625 1152.87597656 m 1,4,-1
 265.94140625 1241.20703125 l 1,5,-1
 691.107421875 1415.06054688 l 1,6,-1
 691.107421875 1326.72851562 l 1,7,-1
 265.94140625 1152.87597656 l 1,4,-1
EndSplineSet
EndChar

StartChar: uni064C
Encoding: 49 1612 44
Width: -22
VWidth: 1985
GlyphClass: 4
Flags: W
AnchorPoint: "Anchor-10" 584.438 1045.75 mark 0
AnchorPoint: "Anchor-9" 584.438 1045.75 mark 0
AnchorPoint: "Anchor-1" 490.738 1643.81 basemark 0
AnchorPoint: "Anchor-1" 584.438 1045.75 mark 0
LayerCount: 2
Fore
SplineSet
563.893554688 1497.19433594 m 0,0,1
 487.016601562 1497.19433594 487.016601562 1497.19433594 487.016601562 1428.06542969 c 0,2,3
 487.016601562 1378.18945312 487.016601562 1378.18945312 543.720703125 1355.5078125 c 0,4,5
 553.866210938 1351.45019531 553.866210938 1351.45019531 568.744140625 1346.40625 c 128,-1,6
 583.623046875 1341.36230469 583.623046875 1341.36230469 603.35546875 1335.28515625 c 2,7,-1
 607.651367188 1333.96191406 l 1,8,-1
 620.706054688 1364.41699219 l 2,9,10
 625.94921875 1376.65234375 625.94921875 1376.65234375 628.541015625 1391.36425781 c 128,-1,11
 631.1328125 1406.07617188 631.1328125 1406.07617188 631.1328125 1423.27539062 c 0,12,13
 631.1328125 1440.9609375 631.1328125 1440.9609375 625.298828125 1454.85253906 c 128,-1,14
 619.465820312 1468.74414062 619.465820312 1468.74414062 607.8046875 1478.34667969 c 0,15,16
 600.303710938 1484.52246094 600.303710938 1484.52246094 593.014648438 1488.68066406 c 128,-1,17
 585.725585938 1492.83886719 585.725585938 1492.83886719 578.379882812 1495.01660156 c 128,-1,18
 571.034179688 1497.19433594 571.034179688 1497.19433594 563.893554688 1497.19433594 c 0,0,1
286.8359375 1191.03808594 m 0,19,20
 326.482421875 1106.0859375 326.482421875 1106.0859375 388.407226562 1106.0859375 c 0,21,22
 449.170898438 1106.0859375 449.170898438 1106.0859375 515.639648438 1170.41113281 c 0,23,24
 554.233398438 1207.96386719 554.233398438 1207.96386719 576.2734375 1252.04492188 c 2,25,-1
 588.0234375 1275.54980469 l 1,26,-1
 562.313476562 1281.00488281 l 2,27,28
 484.142578125 1297.57421875 484.142578125 1297.57421875 441.572265625 1356.32714844 c 0,29,30
 433.731445312 1367.1484375 433.731445312 1367.1484375 428.525390625 1377.17675781 c 128,-1,31
 423.319335938 1387.20410156 423.319335938 1387.20410156 420.814453125 1396.08789062 c 128,-1,32
 418.310546875 1404.97167969 418.310546875 1404.97167969 418.310546875 1412.97753906 c 0,33,34
 418.310546875 1438.84667969 418.310546875 1438.84667969 419.520507812 1448.96777344 c 0,35,36
 424.327148438 1489.21191406 424.327148438 1489.21191406 454.379882812 1526.96777344 c 0,37,38
 469.02734375 1545.37109375 469.02734375 1545.37109375 492.889648438 1554.65917969 c 128,-1,39
 516.750976562 1563.94824219 516.750976562 1563.94824219 550.317382812 1563.94824219 c 0,40,41
 567.154296875 1563.94824219 567.154296875 1563.94824219 582.25390625 1561.47070312 c 128,-1,42
 597.354492188 1558.99414062 597.354492188 1558.99414062 610.733398438 1554.03808594 c 128,-1,43
 624.112304688 1549.08300781 624.112304688 1549.08300781 635.795898438 1541.69042969 c 128,-1,44
 647.479492188 1534.29785156 647.479492188 1534.29785156 657.561523438 1524.42675781 c 0,45,46
 677.71484375 1504.69824219 677.71484375 1504.69824219 687.801757812 1477.77441406 c 128,-1,47
 697.887695312 1450.85058594 697.887695312 1450.85058594 697.887695312 1416.34960938 c 0,48,49
 697.887695312 1407.61230469 697.887695312 1407.61230469 697.215820312 1398.93261719 c 128,-1,50
 696.54296875 1390.25195312 696.54296875 1390.25195312 695.197265625 1381.62207031 c 128,-1,51
 693.8515625 1372.99121094 693.8515625 1372.99121094 691.831054688 1364.40917969 c 128,-1,52
 689.811523438 1355.828125 689.811523438 1355.828125 687.116210938 1347.29296875 c 2,53,-1
 679.2109375 1322.26757812 l 1,54,-1
 705.421875 1320.89160156 l 2,55,56
 724.1015625 1319.90527344 724.1015625 1319.90527344 755.486328125 1319.17773438 c 1,57,-1
 755.486328125 1252.26855469 l 1,58,59
 726.193359375 1252.625 726.193359375 1252.625 712.33984375 1254.015625 c 2,60,-1
 646.775390625 1260.31835938 l 1,61,-1
 645.33984375 1256.953125 l 2,62,63
 616.974609375 1190.47558594 616.974609375 1190.47558594 562.397460938 1134.265625 c 0,64,65
 544.161132812 1115.48339844 544.161132812 1115.48339844 527.448242188 1100.75195312 c 128,-1,66
 510.735351562 1086.01953125 510.735351562 1086.01953125 495.815429688 1075.52050781 c 128,-1,67
 480.896484375 1065.02148438 480.896484375 1065.02148438 467.655273438 1058.62109375 c 128,-1,68
 454.327148438 1052.17675781 454.327148438 1052.17675781 440.844726562 1047.88964844 c 128,-1,69
 427.362304688 1043.60253906 427.362304688 1043.60253906 413.734375 1041.46777344 c 128,-1,70
 400.106445312 1039.33300781 400.106445312 1039.33300781 386.279296875 1039.33300781 c 0,71,72
 289.21484375 1039.33300781 289.21484375 1039.33300781 239.397460938 1176.34375 c 0,73,74
 233.625 1192.11816406 233.625 1192.11816406 230.204101562 1223.62109375 c 128,-1,75
 226.783203125 1255.12304688 226.783203125 1255.12304688 226.127929688 1299.38378906 c 1,76,-1
 273.370117188 1299.38378906 l 1,77,78
 274.090820312 1256.859375 274.090820312 1256.859375 277.255859375 1230.89746094 c 128,-1,79
 280.421875 1204.93554688 280.421875 1204.93554688 286.8359375 1191.03808594 c 0,19,20
EndSplineSet
EndChar

StartChar: uni064D
Encoding: 50 1613 45
Width: -21
VWidth: 1843
GlyphClass: 4
Flags: W
AnchorPoint: "Anchor-7" 442.099 60.582 mark 0
AnchorPoint: "Anchor-6" 442.099 60.582 mark 0
AnchorPoint: "Anchor-0" 508.415 -374.489 basemark 0
AnchorPoint: "Anchor-0" 442.099 60.582 mark 0
LayerCount: 2
Fore
SplineSet
245.836914062 -412.342773438 m 1,0,-1
 245.836914062 -320.55078125 l 1,1,-1
 648.767578125 -155.790039062 l 1,2,-1
 648.767578125 -247.581054688 l 1,3,-1
 245.836914062 -412.342773438 l 1,0,-1
245.836914062 -193.540039062 m 1,4,-1
 245.836914062 -101.748046875 l 1,5,-1
 648.767578125 63.013671875 l 1,6,-1
 648.767578125 -28.7783203125 l 1,7,-1
 245.836914062 -193.540039062 l 1,4,-1
EndSplineSet
EndChar

StartChar: uni064E
Encoding: 51 1614 46
Width: -21
VWidth: 1843
GlyphClass: 4
Flags: W
AnchorPoint: "Anchor-10" 462.271 1088.92 mark 0
AnchorPoint: "Anchor-9" 462.271 1088.92 mark 0
AnchorPoint: "Anchor-1" 430.271 1348.9 basemark 0
AnchorPoint: "Anchor-1" 462.271 1088.92 mark 0
LayerCount: 2
Fore
SplineSet
217.11328125 1064.3671875 m 1,0,-1
 217.11328125 1156.15917969 l 1,1,-1
 620.044921875 1320.92089844 l 1,2,-1
 620.044921875 1229.12890625 l 1,3,-1
 217.11328125 1064.3671875 l 1,0,-1
EndSplineSet
EndChar

StartChar: uni064F
Encoding: 52 1615 47
Width: -21
VWidth: 1843
GlyphClass: 4
Flags: W
AnchorPoint: "Anchor-10" 492.498 1024.81 mark 0
AnchorPoint: "Anchor-9" 492.498 1024.81 mark 0
AnchorPoint: "Anchor-1" 437.215 1538.56 basemark 0
AnchorPoint: "Anchor-1" 492.498 1024.81 mark 0
LayerCount: 2
Fore
SplineSet
658.181640625 1171.37988281 m 1,0,1
 612.799804688 1172 612.799804688 1172 552.587890625 1178.41601562 c 1,2,3
 510.400390625 1119.20019531 510.400390625 1119.20019531 450.702148438 1082.39941406 c 0,4,5
 356 1023.20019531 356 1023.20019531 248.799804688 1019.20019531 c 1,6,-1
 248.799804688 1090.19335938 l 1,7,8
 353.599609375 1093.59960938 353.599609375 1093.59960938 416.251953125 1145.92773438 c 0,9,10
 444 1168.79980469 444 1168.79980469 455.759765625 1181.67578125 c 2,11,-1
 473.024414062 1199.86035156 l 1,12,-1
 448.551757812 1205.29296875 l 2,13,14
 443.200195312 1206.40039062 443.200195312 1206.40039062 411.861328125 1222.51464844 c 0,15,16
 381.599609375 1238.40039062 381.599609375 1238.40039062 359.088867188 1269.25585938 c 0,17,18
 336.799804688 1300 336.799804688 1300 336.723632812 1337.42578125 c 0,19,20
 336.799804688 1410.40039062 336.799804688 1410.40039062 393.420898438 1453.09179688 c 0,21,22
 415.200195312 1469.59960938 415.200195312 1469.59960938 471.169921875 1469.23730469 c 0,23,24
 527.200195312 1469.59960938 527.200195312 1469.59960938 566.120117188 1431.32226562 c 0,25,26
 604.799804688 1393.59960938 604.799804688 1393.59960938 604.849609375 1327.94335938 c 0,27,28
 604.799804688 1301.00097656 604.799804688 1301.00097656 592.834960938 1262.55175781 c 2,29,-1
 587.451171875 1245.24902344 l 1,30,-1
 605.544921875 1244.1796875 l 2,31,32
 636 1242.40039062 636 1242.40039062 658.181640625 1242.42285156 c 1,33,-1
 658.181640625 1171.37988281 l 1,0,1
514.053710938 1257.30761719 m 1,34,-1
 524.500976562 1281.6796875 l 2,35,36
 533.782226562 1303.33886719 533.782226562 1303.33886719 533.782226562 1334.35742188 c 128,-1,37
 533.782226562 1365.375 533.782226562 1365.375 513.865234375 1381.77246094 c 128,-1,38
 493.948242188 1398.16992188 493.948242188 1398.16992188 469.811523438 1398.16992188 c 128,-1,39
 445.674804688 1398.16992188 445.674804688 1398.16992188 427.637695312 1384.4296875 c 128,-1,40
 409.599609375 1370.68945312 409.599609375 1370.68945312 409.599609375 1333.21679688 c 128,-1,41
 409.599609375 1295.74414062 409.599609375 1295.74414062 459.192382812 1275.90527344 c 0,42,43
 477.728515625 1268.4921875 477.728515625 1268.4921875 514.053710938 1257.30761719 c 1,34,-1
EndSplineSet
EndChar

StartChar: uni0650
Encoding: 53 1616 48
Width: -21
VWidth: 1843
GlyphClass: 4
Flags: W
AnchorPoint: "Anchor-7" 453.913 -12.96 mark 0
AnchorPoint: "Anchor-6" 453.913 -12.96 mark 0
AnchorPoint: "Anchor-0" 492.019 -261.556 basemark 0
AnchorPoint: "Anchor-0" 453.913 -12.96 mark 0
LayerCount: 2
Fore
SplineSet
254.28515625 -282.244140625 m 1,0,-1
 254.28515625 -190.451171875 l 1,1,-1
 657.215820312 -25.6904296875 l 1,2,-1
 657.215820312 -117.482421875 l 1,3,-1
 254.28515625 -282.244140625 l 1,0,-1
EndSplineSet
EndChar

StartChar: uni0651
Encoding: 54 1617 49
Width: -21
VWidth: 1843
GlyphClass: 4
Flags: W
AnchorPoint: "Anchor-10" 487.615 1112.18 mark 0
AnchorPoint: "Anchor-9" 487.615 1112.18 mark 0
AnchorPoint: "Anchor-1" 463.077 1472.27 basemark 0
AnchorPoint: "Anchor-1" 487.615 1112.18 mark 0
LayerCount: 2
Fore
SplineSet
461.92578125 1225.53710938 m 1,0,1
 437.599609375 1093.59960938 437.599609375 1093.59960938 321.987304688 1093.50097656 c 0,2,3
 206.400390625 1093.59960938 206.400390625 1093.59960938 205.749023438 1242.31445312 c 0,4,5
 205.599609375 1272 205.599609375 1272 218.169921875 1354.91113281 c 1,6,-1
 278.260742188 1354.91113281 l 1,7,8
 268 1283.20019531 268 1283.20019531 268 1260.79980469 c 0,9,10
 268 1170.40039062 268 1170.40039062 331.959960938 1170.46191406 c 0,11,12
 420 1170.40039062 420 1170.40039062 424.484375 1285.96191406 c 0,13,14
 425.599609375 1317.59960938 425.599609375 1317.59960938 425.5 1355.29296875 c 0,15,16
 425.599609375 1392.79980469 425.599609375 1392.79980469 425.490234375 1399.96484375 c 1,17,-1
 484.8984375 1399.96484375 l 1,18,19
 486.400390625 1371.20019531 486.400390625 1371.20019531 486.629882812 1332.79296875 c 0,20,21
 486.400390625 1220.16308594 486.400390625 1220.16308594 584.364257812 1220.32519531 c 2,22,-1
 584.869140625 1220.32617188 l 2,23,24
 644 1220.79980469 644 1220.79980469 644.177734375 1315.59765625 c 0,25,26
 644.799804688 1400 644.799804688 1400 635.458984375 1449.86816406 c 1,27,-1
 699.154296875 1449.86816406 l 1,28,29
 708 1386.40039062 708 1386.40039062 708 1311.20019531 c 0,30,31
 708 1188.79980469 708 1188.79980469 640.5234375 1159.93359375 c 0,32,33
 614.400390625 1148.79980469 614.400390625 1148.79980469 588.799804688 1148 c 0,34,35
 532 1145.59960938 532 1145.59960938 502.400390625 1167.20019531 c 0,36,37
 466.400390625 1193.59960938 466.400390625 1193.59960938 461.92578125 1225.53710938 c 1,0,1
EndSplineSet
EndChar

StartChar: uni0652
Encoding: 55 1618 50
Width: -27
VWidth: 2304
GlyphClass: 4
Flags: W
AnchorPoint: "Anchor-10" 588.527 1187.7 mark 0
AnchorPoint: "Anchor-9" 588.527 1187.7 mark 0
AnchorPoint: "Anchor-1" 573.743 1793.31 basemark 0
AnchorPoint: "Anchor-1" 588.527 1187.7 mark 0
LayerCount: 2
Fore
SplineSet
707.344726562 1457.10253906 m 0,0,1
 707.344726562 1505.78320312 707.344726562 1505.78320312 673.299804688 1539.828125 c 128,-1,2
 639.258789062 1573.87304688 639.258789062 1573.87304688 589.884765625 1573.87304688 c 0,3,4
 539.819335938 1573.87304688 539.819335938 1573.87304688 506.124023438 1540.17675781 c 128,-1,5
 472.427734375 1506.48046875 472.427734375 1506.48046875 472.427734375 1457.10253906 c 0,6,7
 472.427734375 1407.03808594 472.427734375 1407.03808594 506.124023438 1373.34277344 c 128,-1,8
 539.819335938 1339.64648438 539.819335938 1339.64648438 589.884765625 1339.64648438 c 0,9,10
 639.260742188 1339.64648438 639.260742188 1339.64648438 673.299804688 1373.69140625 c 128,-1,11
 707.344726562 1407.73535156 707.344726562 1407.73535156 707.344726562 1457.10253906 c 0,0,1
779.41796875 1457.21875 m 128,-1,13
 779.41796875 1377.71484375 779.41796875 1377.71484375 724.528320312 1322.47265625 c 128,-1,14
 669.673828125 1267.2734375 669.673828125 1267.2734375 590.212890625 1267.2734375 c 0,15,16
 563.655273438 1267.2734375 563.655273438 1267.2734375 539.920898438 1273.39550781 c 128,-1,17
 516.186523438 1279.51757812 516.186523438 1279.51757812 495.203125 1291.77636719 c 128,-1,18
 474.220703125 1304.03515625 474.220703125 1304.03515625 455.8984375 1322.47265625 c 0,19,20
 428.400390625 1350.14648438 428.400390625 1350.14648438 414.704101562 1383.76074219 c 128,-1,21
 401.006835938 1417.375 401.006835938 1417.375 401.006835938 1457.21875 c 0,22,23
 401.006835938 1536.6953125 401.006835938 1536.6953125 455.8671875 1591.56542969 c 128,-1,24
 510.7265625 1646.42480469 510.7265625 1646.42480469 590.212890625 1646.42480469 c 128,-1,25
 669.698242188 1646.42480469 669.698242188 1646.42480469 724.556640625 1591.56542969 c 128,-1,12
 779.41796875 1536.6953125 779.41796875 1536.6953125 779.41796875 1457.21875 c 128,-1,13
EndSplineSet
EndChar

StartChar: uni0653
Encoding: 56 1619 51
Width: -3
VWidth: 2277
GlyphClass: 4
Flags: W
AnchorPoint: "Anchor-10" 491.962 1309.68 mark 0
AnchorPoint: "Anchor-9" 491.962 1309.68 mark 0
AnchorPoint: "Anchor-1" 466.962 1694.04 basemark 0
AnchorPoint: "Anchor-1" 491.962 1309.68 mark 0
LayerCount: 2
Fore
SplineSet
310.452148438 1388.77246094 m 0,0,1
 218 1395 218 1395 148 1324 c 0,2,3
 117 1293 117 1293 128.153320312 1340.02929688 c 0,4,5
 145 1417 145 1417 194 1468 c 4,6,7
 226 1501 226 1501 270.15234375 1502.57226562 c 4,8,9
 306 1504 306 1504 338.767578125 1500.36816406 c 4,10,11
 453 1486 453 1486 539.751953125 1487.87207031 c 4,12,13
 592 1489 592 1489 671.200195312 1505.76074219 c 4,14,15
 686 1509 686 1509 680 1498 c 4,16,17
 620 1407 620 1407 559.551757812 1389.87207031 c 0,18,19
 510 1376 510 1376 310.452148438 1388.77246094 c 0,0,1
EndSplineSet
EndChar

StartChar: uni0657
Encoding: 59 1623 54
Width: -29
VWidth: 2488
GlyphClass: 4
Flags: W
AnchorPoint: "Anchor-10" 615.08 1455.92 mark 0
AnchorPoint: "Anchor-9" 615.08 1455.92 mark 0
AnchorPoint: "Anchor-1" 615.08 2249.13 basemark 0
AnchorPoint: "Anchor-1" 615.08 1455.92 mark 0
LayerCount: 2
Fore
SplineSet
711.864257812 1733.08398438 m 0,0,1
 711.719726562 1545.40039062 711.719726562 1545.40039062 530.360351562 1547.06835938 c 0,2,3
 454.6796875 1547.55957031 454.6796875 1547.55957031 402.1796875 1598.25488281 c 0,4,5
 349.919921875 1649.08007812 349.919921875 1649.08007812 349.893554688 1737.81640625 c 0,6,7
 349.919921875 1774.046875 349.919921875 1774.046875 366.11328125 1826.09472656 c 2,8,-1
 373.381835938 1849.45410156 l 1,9,-1
 348.954101562 1850.89648438 l 2,10,11
 309.959960938 1853.20019531 309.959960938 1853.20019531 277.895507812 1853.26855469 c 1,12,-1
 277.895507812 1949.17675781 l 1,13,14
 339.120117188 1948.24023438 339.120117188 1948.24023438 420.448242188 1939.67871094 c 1,15,16
 477.360351562 2020.59960938 477.360351562 2020.59960938 557.994140625 2069.30078125 c 0,17,18
 753.83984375 2189.08007812 753.83984375 2189.08007812 847.799804688 2194.20019531 c 5,19,-1
 847.799804688 2098.36035156 l 5,20,21
 747.360351562 2095.12011719 747.360351562 2095.12011719 604.5 1983.53613281 c 0,22,23
 575.639648438 1961.20019531 575.639648438 1961.20019531 551.166015625 1935.27832031 c 2,24,-1
 527.861328125 1910.74414062 l 1,25,-1
 560.892578125 1903.39355469 l 2,26,27
 570.240234375 1901.79980469 570.240234375 1901.79980469 610.428710938 1880.14453125 c 0,28,29
 651.240234375 1858.59960938 651.240234375 1858.59960938 681.670898438 1817.04296875 c 0,30,31
 711.719726562 1775.44042969 711.719726562 1775.44042969 711.864257812 1733.08398438 c 0,0,1
518.581054688 1643.01171875 m 0,32,33
 613.481445312 1643.01171875 613.481445312 1643.01171875 613.481445312 1723.17285156 c 0,34,35
 613.481445312 1781.28417969 613.481445312 1781.28417969 546.533203125 1808.06640625 c 0,36,37
 521.615234375 1818.03808594 521.615234375 1818.03808594 472.469726562 1833.17578125 c 1,38,-1
 458.366210938 1800.27246094 l 2,39,40
 445.834960938 1771.03710938 445.834960938 1771.03710938 445.834960938 1729.16699219 c 128,-1,41
 445.834960938 1687.296875 445.834960938 1687.296875 472.719726562 1665.15429688 c 128,-1,42
 499.603515625 1643.01171875 499.603515625 1643.01171875 518.581054688 1643.01171875 c 0,32,33
EndSplineSet
EndChar

StartChar: uni065A
Encoding: 60 1626 55
Width: 1219
VWidth: 2488
GlyphClass: 4
Flags: W
AnchorPoint: "Anchor-10" 615.08 1455.92 mark 0
AnchorPoint: "Anchor-9" 615.08 1455.92 mark 0
AnchorPoint: "Anchor-1" 612.64 2005.07 basemark 0
AnchorPoint: "Anchor-1" 615.08 1455.92 mark 0
LayerCount: 2
Fore
SplineSet
535.634765625 1550.72949219 m 1,0,-1
 320.578125 1910.25976562 l 1,1,-1
 446.194335938 1910.25976562 l 1,2,-1
 615.080078125 1656.92382812 l 1,3,-1
 783.965820312 1910.25976562 l 1,4,-1
 909.583007812 1910.25976562 l 1,5,-1
 694.5234375 1550.72949219 l 1,6,-1
 535.634765625 1550.72949219 l 1,0,-1
EndSplineSet
EndChar

StartChar: afii57392
Encoding: 61 1632 56
Width: 734
VWidth: 2626
GlyphClass: 2
Flags: W
LayerCount: 2
Fore
SplineSet
367.114257812 750.255859375 m 5,0,-1
 571.8359375 545.534179688 l 5,1,-1
 363.125976562 336.82421875 l 5,2,-1
 158.404296875 541.545898438 l 5,3,-1
 367.114257812 750.255859375 l 5,0,-1
EndSplineSet
EndChar

StartChar: afii57393
Encoding: 62 1633 57
Width: 652
VWidth: 2624
GlyphClass: 2
Flags: W
LayerCount: 2
Fore
SplineSet
398.404296875 -4.8310546875 m 1,0,1
 361 657 361 657 129.250976562 1287.40429688 c 5,2,-1
 260.241210938 1447.78125 l 5,3,4
 491.232615919 956.377773656 491.232615919 956.377773656 484.771484375 299.80078125 c 0,5,6
 483 78 483 78 398.404296875 -4.8310546875 c 1,0,1
EndSplineSet
EndChar

StartChar: afii57394
Encoding: 63 1634 58
Width: 1082
VWidth: 2459
GlyphClass: 2
Flags: W
LayerCount: 2
Fore
SplineSet
454.09375 920.424804688 m 5,0,1
 558 612 558 612 557.680185451 325.69753362 c 0,2,3
 558 40 558 40 463.822265625 -9.7421875 c 1,4,5
 455 314 455 314 327.296875 774.607421875 c 4,6,7
 286 924 286 924 100.374023438 1346.5234375 c 5,8,-1
 236.41015625 1449.51660156 l 5,9,10
 304.842709901 1285.17311984 304.842709901 1285.17311984 326.232421875 1252.06933594 c 4,11,12
 446 1067 446 1067 663.30859375 1083.77441406 c 4,13,14
 825.893773091 1095.91737946 825.893773091 1095.91737946 875.661132812 1311.72949219 c 4,15,16
 900 1418 900 1418 915.345703125 1429.27734375 c 4,17,18
 931 1441 931 1441 951.001953125 1438.36816406 c 4,19,20
 985 1435 985 1435 978.884765625 1350.36523438 c 4,21,22
 967 1200 967 1200 943.168945312 1135.08300781 c 4,23,24
 853.459854507 893.858606171 853.459854507 893.858606171 592.063476562 895.673828125 c 4,25,26
 534 896 534 896 454.09375 920.424804688 c 5,0,1
EndSplineSet
EndChar

StartChar: afii57395
Encoding: 64 1635 59
Width: 1343
VWidth: 2459
GlyphClass: 2
Flags: W
LayerCount: 2
Fore
SplineSet
454.08203125 919.775390625 m 5,0,1
 564 594 564 594 564.018554688 283.516601562 c 0,2,3
 564 27 564 27 463.47265625 -13.03125 c 1,4,5
 455 310 455 310 326.6328125 774.715820312 c 4,6,7
 285 925 285 925 99.9736328125 1345.59570312 c 5,8,-1
 236.034179688 1448.60546875 l 5,9,10
 264 1383 264 1383 316.543945312 1269.49707031 c 4,11,12
 407 1075 407 1075 590.317382812 1090.95019531 c 4,13,14
 713 1101 713 1101 752.733398438 1360.27636719 c 4,15,16
 762 1420 762 1420 791.282226562 1421.6328125 c 4,17,18
 824 1423 824 1423 825.008789062 1382.44628906 c 132,-1,19
 826 1342 826 1342 829.03125 1308.69335938 c 4,20,21
 849 1089 849 1089 1004.78515625 1090.57128906 c 4,22,23
 1141 1092 1141 1092 1160.58007812 1381.65429688 c 4,24,25
 1164 1433 1164 1433 1201.93359375 1431.7734375 c 4,26,27
 1247 1431 1247 1431 1245.66015625 1346.64160156 c 4,28,29
 1245 1269 1245 1269 1221.54394531 1149.8359375 c 4,30,31
 1174 905 1174 905 1003.55761719 905.303710938 c 4,32,33
 867 906 867 906 783.689453125 1063.09082031 c 5,34,35
 709 892 709 892 574.069335938 892.645507812 c 4,36,37
 507 893 507 893 454.08203125 919.775390625 c 5,0,1
EndSplineSet
EndChar

StartChar: afii57396
Encoding: 65 1636 60
Width: 972
VWidth: 2621
GlyphClass: 2
Flags: W
LayerCount: 2
Fore
SplineSet
420.57421875 717.015625 m 5,0,1
 171 842 171 842 112.475585938 920.952148438 c 5,2,3
 169 1260 169 1260 611.265625 1440.30859375 c 5,4,5
 636 1395 636 1395 642.26953125 1268.35839844 c 5,6,7
 266 1076 266 1076 222.184570312 966.953125 c 5,8,9
 409 875 409 875 712.744140625 823.237304688 c 5,10,11
 707 758 707 758 702.470703125 696.40625 c 5,12,13
 275 445 275 445 215.120117188 327.881835938 c 1,14,15
 397 241 397 241 841.983398438 286.341796875 c 1,16,-1
 872.942382812 54.708984375 l 1,17,18
 373 20 373 20 98.6396484375 231.896484375 c 1,19,20
 120 472 120 472 420.57421875 717.015625 c 5,0,1
EndSplineSet
EndChar

StartChar: afii57397
Encoding: 66 1637 61
Width: 1169
VWidth: 2623
GlyphClass: 2
Flags: W
LayerCount: 2
Fore
SplineSet
314.920898438 318.915039062 m 0,0,1
 427 240 427 240 615.186523438 252.471191406 c 0,2,3
 803 265 803 265 887.862304688 380.591796875 c 0,4,5
 1000 531 1000 531 753.200195312 871.935546875 c 4,6,7
 659 1002 659 1002 549.581054688 1098.78320312 c 5,8,9
 333.247869239 882.249948116 333.247869239 882.249948116 239.4453125 640.489257812 c 4,10,11
 157 429 157 429 314.920898438 318.915039062 c 0,0,1
484.646484375 1379.93457031 m 5,12,13
 838 1099 838 1099 1001.60058594 771.040039062 c 4,14,15
 1066 642 1066 642 1072.26074219 542.104492188 c 4,16,17
 1085 337 1085 337 965.241210938 200.1171875 c 0,18,19
 827 43 827 43 577.16015625 43.3916015625 c 0,20,21
 328 44 328 44 199.786132813 194.596679688 c 0,22,23
 73.9902216799 342.833134164 73.9902216799 342.833134164 96.3837890625 513.92578125 c 4,24,25
 121 702 121 702 221.928710938 870.173828125 c 4,26,27
 323 1039 323 1039 457.5234375 1177.23046875 c 5,28,-1
 399.59765625 1231.87695312 l 5,29,-1
 484.646484375 1379.93457031 l 5,12,13
EndSplineSet
EndChar

StartChar: afii57398
Encoding: 67 1638 62
Width: 1184
VWidth: 2623
GlyphClass: 2
Flags: W
LayerCount: 2
Fore
SplineSet
875.3671875 1358.56640625 m 5,0,1
 889 259 889 259 1072.3671875 197.1171875 c 1,2,-1
 1085.80175781 -14.8515625 l 1,3,4
 895 -5 895 -5 832.723632812 310.775390625 c 0,5,6
 746 750 746 750 740.685546875 1153.85058594 c 5,7,-1
 694.721679688 1140.44628906 l 6,8,9
 519 1089 519 1089 291.66796875 1123.38671875 c 4,10,11
 183 1140 183 1140 140.739257812 1181.54589844 c 4,12,13
 98.7822265625 1224.22150312 98.7822265625 1224.22150312 98.7822265625 1313.15429688 c 6,14,-1
 98.7822265625 1357.23730469 l 5,15,16
 484 1250 484 1250 875.3671875 1358.56640625 c 5,0,1
EndSplineSet
EndChar

StartChar: afii57399
Encoding: 68 1639 63
Width: 1140
VWidth: 2624
GlyphClass: 2
Flags: W
LayerCount: 2
Fore
SplineSet
967.426757812 1444.82617188 m 1,0,-1
 1039.48046875 1219.78417969 l 1,1,2
 760 831 760 831 631.063476562 -5.3251953125 c 1,3,-1
 540.38671875 -5.3251953125 l 1,4,5
 420 797 420 797 100.790039062 1220.02929688 c 1,6,-1
 174.896484375 1445.484375 l 1,7,8
 507.6875 1007.41113281 507.6875 1007.41113281 579.66015625 366.985351562 c 2,9,-1
 584.388671875 324.91015625 l 1,10,-1
 589.590820312 366.9296875 l 2,11,12
 672 1032 672 1032 967.426757812 1444.82617188 c 1,0,-1
EndSplineSet
EndChar

StartChar: afii57400
Encoding: 69 1640 64
Width: 1140
VWidth: 2624
GlyphClass: 2
Flags: W
LayerCount: 2
Fore
SplineSet
967.426757812 -4.6669921875 m 1,0,1
 672 408.159179688 672 408.159179688 589.590820312 1073.22949219 c 2,2,-1
 584.388671875 1115.24902344 l 1,3,-1
 579.66015625 1073.17382812 l 2,4,5
 507.6875 432.748046875 507.6875 432.748046875 174.896484375 -5.3251953125 c 1,6,-1
 100.790039062 220.129882812 l 1,7,8
 420 643.159179688 420 643.159179688 540.38671875 1445.484375 c 1,9,-1
 631.063476562 1445.484375 l 1,10,11
 760 609.159179688 760 609.159179688 1039.48046875 220.375 c 1,12,-1
 967.426757812 -4.6669921875 l 1,0,1
EndSplineSet
EndChar

StartChar: afii57401
Encoding: 70 1641 65
Width: 1076
VWidth: 2624
GlyphClass: 2
Flags: W
LayerCount: 2
Fore
SplineSet
689.756835938 633.973632812 m 5,0,1
 606 624 606 624 548.190429688 624.446289062 c 4,2,3
 312 624 312 624 204.98046875 708.752929688 c 4,4,5
 98 794 98 794 98.6552734375 960.3671875 c 4,6,7
 99 1191 99 1191 231.158203125 1336.09960938 c 4,8,9
 336 1452 336 1452 448.5234375 1452.10351562 c 4,10,11
 561 1452 561 1452 637.426757812 1384.47363281 c 4,12,13
 786 1252 786 1252 799.758789062 946.96875 c 4,14,15
 831 235 831 235 972.262695312 165.478515625 c 1,16,-1
 978.395507812 -27.744140625 l 1,17,18
 834 -28 834 -28 775.328125 158.100585938 c 0,19,20
 722 328 722 328 689.756835938 633.973632812 c 5,0,1
672.661132812 845.266601562 m 5,21,-1
 668.805664062 900.401367188 l 6,22,23
 658 1049 658 1049 588 1152 c 4,24,25
 534 1231 534 1231 456.403320312 1238.46777344 c 4,26,27
 309 1252 309 1252 256.806640625 1081.09375 c 4,28,29
 204 911 204 911 286.856445312 859.419921875 c 4,30,31
 340 826 340 826 467.932617188 826.250976562 c 4,32,33
 588 826 588 826 672.661132812 845.266601562 c 5,21,-1
EndSplineSet
EndChar

StartChar: afii57381
Encoding: 71 1642 66
Width: 1426
VWidth: 2650
GlyphClass: 2
Flags: W
LayerCount: 2
Fore
SplineSet
554.505859375 1562.00976562 m 2,0,-1
 554.505859375 1405.52539062 l 2,1,2
 554.505859375 1363.40136719 554.505859375 1363.40136719 520.874023438 1363.390625 c 2,3,-1
 366.817382812 1363.40234375 l 2,4,5
 328.333007812 1363.40234375 328.333007812 1363.40234375 328.333007812 1406.73828125 c 2,6,-1
 328.333007812 1562.00976562 l 2,7,8
 328.333007812 1598.06738281 328.333007812 1598.06738281 371.66796875 1598.06738281 c 2,9,-1
 511.168945312 1598.06738281 l 2,10,11
 554.505859375 1598.06738281 554.505859375 1598.06738281 554.505859375 1562.00976562 c 2,0,-1
1102.56640625 284.41796875 m 2,12,-1
 1102.56640625 127.932617188 l 2,13,14
 1102.56640625 85.8095703125 1102.56640625 85.8095703125 1068.93554688 85.8095703125 c 2,15,-1
 914.876953125 85.8095703125 l 2,16,17
 876.39453125 85.8095703125 876.39453125 85.8095703125 876.39453125 129.145507812 c 2,18,-1
 876.39453125 284.41796875 l 2,19,20
 876.39453125 320.473632812 876.39453125 320.473632812 919.729492188 320.473632812 c 2,21,-1
 1059.23144531 320.473632812 l 2,22,23
 1102.56640625 320.473632812 1102.56640625 320.473632812 1102.56640625 284.41796875 c 2,12,-1
1058.23046875 1663.16503906 m 1,24,-1
 1188.71191406 1595.93945312 l 1,25,-1
 363.981445312 4.52734375 l 1,26,-1
 234.172851562 75.86328125 l 1,27,-1
 1058.23046875 1663.16503906 l 1,24,-1
EndSplineSet
EndChar

StartChar: uni066B
Encoding: 72 1643 67
Width: 861
VWidth: 2650
GlyphClass: 2
Flags: W
LayerCount: 2
Fore
SplineSet
539.205078125 607.096679688 m 1,0,-1
 646 541 l 5,1,2
 156.172851562 -275.797851562 l 1,3,-1
 48 -204 l 1,4,5
 539.205078125 607.096679688 l 1,0,-1
EndSplineSet
EndChar

StartChar: uni066C
Encoding: 73 1644 68
Width: 491
VWidth: 2459
GlyphClass: 2
Flags: W
LayerCount: 2
Fore
SplineSet
271.658203125 109.283203125 m 1,0,-1
 249.483398438 109.283203125 l 2,1,2
 112.293945312 109.000976562 112.293945312 109.000976562 112.293945312 232.053710938 c 2,3,-1
 112.293945312 272.444335938 l 2,4,5
 112 384.001953125 112 384.001953125 227.229492188 384.001953125 c 2,6,-1
 271.307617188 384.001953125 l 2,7,8
 391 384 391 384 391 258.155273438 c 2,9,-1
 391 184 l 1,10,11
 368 -97 368 -97 166.538085938 -269.725585938 c 1,12,-1
 100.911132812 -236.946289062 l 1,13,14
 269.131835938 -52.85546875 269.131835938 -52.85546875 271.579101562 104.206054688 c 2,15,-1
 271.658203125 109.283203125 l 1,0,-1
391 184 m 2,16,-1
 391 183.799804688 l 1,17,-1
 391.015625 184.198242188 l 2,18,19
 391.0078125 184.098632812 391.0078125 184.098632812 391 184 c 2,16,-1
EndSplineSet
EndChar

StartChar: afii63167
Encoding: 74 1645 69
Width: 1340
VWidth: 2459
GlyphClass: 2
Flags: W
LayerCount: 2
Fore
SplineSet
142.923828125 899.921875 m 1,0,-1
 545.084960938 899.921875 l 1,1,-1
 670.619140625 1282.12402344 l 1,2,-1
 796.151367188 899.921875 l 1,3,-1
 1198.31835938 899.921875 l 1,4,-1
 873.426757812 662.418945312 l 1,5,-1
 997.745117188 280.5 l 1,6,-1
 670.619140625 516.883789062 l 1,7,-1
 343.490234375 280.5 l 1,8,-1
 467.80859375 662.418945312 l 1,9,-1
 142.923828125 899.921875 l 1,0,-1
EndSplineSet
EndChar

StartChar: uni066E
Encoding: 75 1646 70
Width: 2041
VWidth: 2890
GlyphClass: 2
Flags: W
AnchorPoint: "Anchor-10" 819.654 1367.06 basechar 0
AnchorPoint: "Anchor-7" 509.124 -334.78 basechar 0
LayerCount: 2
Fore
SplineSet
175.829101562 503.297851562 m 4,0,1
 188.354492188 207.296875 188.354492188 207.296875 617.266601562 187.635742188 c 0,2,3
 706.125 183.318359375 706.125 183.318359375 935.381835938 187.545898438 c 0,4,5
 1409.96679688 196.3125 1409.96679688 196.3125 1553.55761719 308.833007812 c 0,6,7
 1641.17480469 376.86328125 1641.17480469 376.86328125 1592.39257812 477.197265625 c 2,8,-1
 1520.1015625 625.8828125 l 1,9,-1
 1628.99316406 839.221679688 l 1,10,11
 1701.66021506 704.616686621 1701.66021506 704.616686621 1709.89260753 547.477288623 c 128,-1,12
 1718.125 390.337890625 1718.125 390.337890625 1682.71972656 297.62109375 c 0,13,14
 1626.25482191 149.758919845 1626.25482191 149.758919845 1452.6140301 86.0283889055 c 128,-1,15
 1278.97323829 22.2978579657 1278.97323829 22.2978579657 982.423828125 -3.1279296875 c 0,16,17
 909.55078125 -9.376953125 909.55078125 -9.376953125 841.442382812 -10.28125 c 0,18,19
 449.120117188 -15.0673828125 449.120117188 -15.0673828125 304.682617188 59.15625 c 0,20,21
 89 170 89 170 92.013671875 444.005859375 c 28,22,23
 93 584 93 584 131 682 c 4,24,25
 154 742 154 742 185.532226562 727.696289062 c 4,26,27
 201 721 201 721 196.142578125 694.287109375 c 4,28,29
 189 657 189 657 182 619 c 4,30,31
 174 569 174 569 175.829101562 503.297851562 c 4,0,1
EndSplineSet
Substitution2: "'init' Initial Forms in Arabic lookup 13 subtable" uni066E.init
Substitution2: "'medi' Medial Forms in Arabic lookup 11 subtable" uni066E.medi
Substitution2: "'fina' Terminal Forms in Arabic lookup 9 subtable" uni066E.fina
EndChar

StartChar: uni066F
Encoding: 76 1647 71
Width: 1379
VWidth: 2912
GlyphClass: 2
Flags: W
AnchorPoint: "Anchor-10" 500.698 1167.29 basechar 0
AnchorPoint: "Anchor-7" 282.832 -629.075 basechar 0
LayerCount: 2
Fore
SplineSet
951.887695312 583.889648438 m 0,0,1
 820.26171875 580.954101562 820.26171875 580.954101562 782.420898438 404.767578125 c 0,2,3
 762.578115092 313.116592006 762.578115092 313.116592006 856.088867188 293.111328125 c 0,4,5
 1019.66473061 255.933395745 1019.66473061 255.933395745 1176.08203125 303.442382812 c 1,6,7
 1171.0492102 380.688560443 1171.0492102 380.688560443 1136.51464844 466.100585938 c 0,8,9
 1085.38867188 586.64453125 1085.38867188 586.64453125 951.887695312 583.889648438 c 0,0,1
1274.48730469 66.8623046875 m 0,10,11
 1187.38085938 -466.615234375 1187.38085938 -466.615234375 656.6640625 -473.645507812 c 0,12,13
 332.208984375 -478.404296875 332.208984375 -478.404296875 185.692382812 -291.248046875 c 128,-1,14
 39.17578125 -104.091796875 39.17578125 -104.091796875 94.541015625 226.12890625 c 0,15,16
 122.211835986 391.792436825 122.211835986 391.792436825 184.90234375 489.953125 c 0,17,18
 216.212890625 538.986328125 216.212890625 538.986328125 241.432806675 522.464628333 c 128,-1,19
 266.652722725 505.942928542 266.652722725 505.942928542 225.701171875 377.838867188 c 0,20,21
 138.661132812 103.662109375 138.661132812 103.662109375 234.8671875 -88.2006835938 c 128,-1,22
 331.073242188 -280.063476562 331.073242188 -280.063476562 701.768554688 -272.525390625 c 0,23,24
 1131.32519531 -263.708984375 1131.32519531 -263.708984375 1174.31933594 123.053710938 c 2,25,-1
 1175.17480469 130.750976562 l 1,26,27
 1045.33193236 88.6518692309 1045.33193236 88.6518692309 916.327098993 104.650153365 c 128,-1,28
 787.322265625 120.6484375 787.322265625 120.6484375 729.089355469 204.288574219 c 128,-1,29
 670.856445312 287.928710938 670.856445312 287.928710938 682.90234375 397.33984375 c 0,30,31
 706.099609375 613.678710938 706.099609375 613.678710938 832.25 736.815429688 c 0,32,33
 898.615234375 801.935546875 898.615234375 801.935546875 997.486328125 791.296875 c 0,34,35
 1036.7448981 787.174106738 1036.7448981 787.174106738 1083.1640625 761.439453125 c 0,36,37
 1194.21679688 698.72265625 1194.21679688 698.72265625 1254.31835938 528.625 c 0,38,39
 1274.25878906 471.275390625 1274.25878906 471.275390625 1287.66748047 352.000488281 c 128,-1,40
 1301.07617188 232.725585938 1301.07617188 232.725585938 1274.48730469 66.8623046875 c 0,10,11
EndSplineSet
Substitution2: "'init' Initial Forms in Arabic lookup 13 subtable" uni066F.init
Substitution2: "'medi' Medial Forms in Arabic lookup 11 subtable" uni066F.medi
Substitution2: "'fina' Terminal Forms in Arabic lookup 9 subtable" uni066F.fina
EndChar

StartChar: uni0670
Encoding: 77 1648 72
Width: 0
VWidth: 2459
GlyphClass: 4
Flags: W
AnchorPoint: "Anchor-10" 625.055 1448.93 mark 0
AnchorPoint: "Anchor-9" 625.055 1448.93 mark 0
AnchorPoint: "Anchor-1" 615.334 2078.23 basemark 0
AnchorPoint: "Anchor-1" 625.055 1448.93 mark 0
LayerCount: 2
Fore
SplineSet
607.185546875 1494.64257812 m 1,0,-1
 561.697265625 1964.45800781 l 5,1,-1
 668.90625 2027.59375 l 5,2,-1
 668.90625 1494.64257812 l 1,3,-1
 607.185546875 1494.64257812 l 1,0,-1
EndSplineSet
EndChar

StartChar: uni0674
Encoding: 78 1652 73
Width: 664
VWidth: 2277
GlyphClass: 2
Flags: W
LayerCount: 2
Fore
SplineSet
152.560546875 1472.46582031 m 1,0,-1
 196.359375 1581.04003906 l 1,1,2
 301 1631 301 1631 328.19921875 1635.44042969 c 1,3,4
 162 1640 162 1640 178.439453125 1764.72070312 c 0,5,6
 204 1960 204 1960 360.19921875 1959.28027344 c 0,7,8
 445 1959 445 1959 475.399414062 1849.20019531 c 1,9,10
 405 1870 405 1870 364.0390625 1869.68066406 c 0,11,12
 310 1868 310 1868 278.279296875 1842.80078125 c 0,13,14
 237 1809 237 1809 236.0390625 1776.24023438 c 0,15,16
 231.879603043 1688.45914681 231.879603043 1688.45914681 364.0390625 1681.52050781 c 0,17,18
 393 1680 393 1680 448.8203125 1693.1171875 c 0,19,20
 473 1699 473 1699 497 1704 c 5,21,-1
 469 1606 l 1,22,23
 408 1589 408 1589 310.279296875 1544.56054688 c 0,24,25
 232 1509 232 1509 152.560546875 1472.46582031 c 1,0,-1
EndSplineSet
EndChar

StartChar: uni06A1
Encoding: 82 1697 77
Width: 1812
VWidth: 2912
GlyphClass: 2
Flags: W
AnchorPoint: "Anchor-10" 584.367 1593.94 basechar 0
AnchorPoint: "Anchor-7" 728.831 -266.764 basechar 0
LayerCount: 2
Fore
SplineSet
174.829101562 501.297851562 m 4,0,1
 186 198 186 198 706.884765625 193.461914062 c 1,2,-1
 1121.140625 193.06640625 l 2,3,4
 1605.77049166 193.000031433 1605.77049166 193.000031433 1608.67871094 393.52734375 c 2,5,-1
 1608.78027344 400.530273438 l 1,6,7
 1482 359 1482 359 1348.87011719 375.27734375 c 0,8,9
 1221 391 1221 391 1165.93652344 468.883789062 c 0,10,11
 1105 557 1105 557 1122.6015625 689.956054688 c 0,12,13
 1146 864 1146 864 1261.92382812 974.481445312 c 0,14,15
 1331 1041 1331 1041 1427.12988281 1029.00292969 c 0,16,17
 1467 1024 1467 1024 1512.89453125 999.125976562 c 0,18,19
 1654 922 1654 922 1700.51855469 709.01953125 c 0,20,21
 1743 516 1743 516 1703.17675781 350.130859375 c 0,22,23
 1657 158 1657 158 1478.37402344 70.74609375 c 0,24,25
 1329 -3 1329 -3 886.51953125 -8.5859375 c 128,-1,26
 444 -14 444 -14 304.442382812 59.146484375 c 0,27,28
 93 168 93 168 91.013671875 442.005859375 c 4,29,30
 90 576 90 576 130 680 c 4,31,32
 153 740 153 740 184.532226562 725.696289062 c 4,33,34
 200 719 200 719 195.142578125 692.287109375 c 4,35,36
 188 655 188 655 181 617 c 4,37,38
 173 567 173 567 174.829101562 501.297851562 c 4,0,1
1381.18554688 833.1484375 m 0,39,40
 1252 830 1252 830 1216.71875 675.026367188 c 0,41,42
 1198 591 1198 591 1294.38671875 566.370117188 c 0,43,44
 1445 529 1445 529 1605.38085938 578.701171875 c 1,45,46
 1601 634 1601 634 1565.8125 715.359375 c 0,47,48
 1514 836 1514 836 1381.18554688 833.1484375 c 0,39,40
EndSplineSet
Substitution2: "'init' Initial Forms in Arabic lookup 13 subtable" uni06A1.init
Substitution2: "'medi' Medial Forms in Arabic lookup 11 subtable" uni06A1.medi
Substitution2: "'fina' Terminal Forms in Arabic lookup 9 subtable" uni06A1.fina
EndChar

StartChar: uni06A9
Encoding: 83 1705 78
Width: 2041
VWidth: 2890
GlyphClass: 2
Flags: W
AnchorPoint: "Anchor-10" 550.544 1361.16 basechar 0
AnchorPoint: "Anchor-7" 437.438 -321.992 basechar 0
LayerCount: 2
Fore
SplineSet
174.829101562 504.297851562 m 0,0,1
 187 213 187 213 618.7734375 193.467773438 c 0,2,3
 1012 176 1012 176 1211.08300781 202.080078125 c 0,4,5
 1491 239 1491 239 1517.50390625 358.975585938 c 0,6,7
 1540 460 1540 460 1341 692 c 0,8,9
 1183 876 1183 876 1048.30761719 930.91796875 c 1,10,11
 1025.01432306 1190.84017368 1025.01432306 1190.84017368 1168.04980469 1253.34082031 c 2,12,-1
 1851.10644531 1551.80859375 l 1,13,14
 1814 1383 1814 1383 1773.99902344 1302.12695312 c 1,15,-1
 1159.28613281 1091.51367188 l 1,16,17
 1438 843 1438 843 1522 702 c 0,18,19
 1636 511 1636 511 1633.49511719 380.614257812 c 4,20,21
 1630 221 1630 221 1525.45800781 136.084960938 c 0,22,23
 1348 -9 1348 -9 896.684570312 -11.6708984375 c 0,24,25
 445 -14 445 -14 306.2265625 59.1357421875 c 0,26,27
 87 174 87 174 91.013671875 445.005859375 c 24,28,29
 93 587 93 587 130 683 c 0,30,31
 153 743 153 743 184.532226562 728.696289062 c 0,32,33
 200 722 200 722 195.142578125 695.287109375 c 0,34,35
 188 658 188 658 181 620 c 0,36,37
 173 570 173 570 174.829101562 504.297851562 c 0,0,1
EndSplineSet
Substitution2: "'init' Initial Forms in Arabic lookup 13 subtable" uniFB90
Substitution2: "'medi' Medial Forms in Arabic lookup 11 subtable" uniFB91
Substitution2: "'fina' Terminal Forms in Arabic lookup 9 subtable" uniFB8F
EndChar

StartChar: afii57514
Encoding: 85 1722 80
Width: 1384
VWidth: 2890
GlyphClass: 2
Flags: W
LayerCount: 2
Fore
SplineSet
191.059570312 368.641601562 m 0,0,1
 213.439094314 404.040506173 213.439094314 404.040506173 234.858644901 404.040506173 c 128,-1,2
 256.278195489 404.040506173 256.278195489 404.040506173 256.278195489 369.28717038 c 128,-1,3
 256.278195489 334.533834586 256.278195489 334.533834586 228.078287796 245.152740647 c 128,-1,4
 199.878380104 155.771646707 199.878380104 155.771646707 199.878380104 58.1815776371 c 128,-1,5
 199.878380104 -39.4084914332 199.878380104 -39.4084914332 245.98046875 -129.971679688 c 0,6,7
 341.097381764 -317.313424738 341.097381764 -317.313424738 686.058255383 -317.313424738 c 0,8,9
 1144.35660448 -317.313424738 1144.35660448 -317.313424738 1182.38183594 52.798828125 c 1,10,11
 1146.44633903 248.147431626 1146.44633903 248.147431626 1064.81152344 417.331054688 c 1,12,-1
 1201 559 l 1,13,14
 1278.68161862 373.995092495 1278.68161862 373.995092495 1302 171 c 0,15,16
 1305.78095796 138.389237609 1305.78095796 138.389237609 1305.78095796 98.5917505189 c 128,-1,17
 1305.78095796 58.794263429 1305.78095796 58.794263429 1298.04003906 11.6708984375 c 8,18,19
 1210.98157364 -518.198512369 1210.98157364 -518.198512369 665.17978268 -518.198512369 c 0,20,21
 343.983943698 -518.198512369 343.983943698 -518.198512369 203 -340.5 c 0,22,23
 93.7699620359 -202.824639649 93.7699620359 -202.824639649 93.7699620359 -16.9404851118 c 0,24,25
 93.7699620359 42.2299145035 93.7699620359 42.2299145035 104.837890625 106.28515625 c 4,26,27
 136.031576461 284.416902164 136.031576461 284.416902164 191.059570312 368.641601562 c 0,0,1
EndSplineSet
Substitution2: "'init' Initial Forms in Arabic lookup 13 subtable" uni06BA.init
Substitution2: "'medi' Medial Forms in Arabic lookup 11 subtable" uni06BA.medi
Substitution2: "'fina' Terminal Forms in Arabic lookup 9 subtable" uniFB9F
EndChar

StartChar: uni06F4
Encoding: 94 1780 87
Width: 1146
VWidth: 2398
GlyphClass: 2
Flags: W
LayerCount: 2
Fore
SplineSet
482.131835938 998.986328125 m 5,0,1
 583 904 583 904 795.19921875 904.618164062 c 4,2,3
 912 904 912 904 1032.7109375 949.067382812 c 4,4,5
 1048 955 1048 955 1049.43261719 948.33984375 c 4,6,7
 1050 942 1050 942 1047.98339844 931.975585938 c 4,8,9
 1004 740 1004 740 748.41015625 733.88671875 c 4,10,11
 635 731 635 731 454.724609375 819.458984375 c 5,12,13
 534 495 534 495 534.461425781 257.146484375 c 0,14,15
 535 19 535 19 449.821289062 -12.7744140625 c 1,16,17
 442.118053127 311.03753825 442.118053127 311.03753825 318.505859375 763.453125 c 4,18,19
 279 907 279 907 100.455078125 1313.02539062 c 5,20,-1
 231.11328125 1411.95410156 l 5,21,-1
 390.190429688 1044.24316406 l 5,22,23
 438 1253 438 1253 532.208984375 1347.95703125 c 4,24,25
 626 1443 626 1443 769.412109375 1440.43261719 c 132,-1,26
 913 1438 913 1438 980.526367188 1287.81054688 c 4,27,28
 1003 1237 1003 1237 982.86328125 1241.54492188 c 4,29,30
 975 1243 975 1243 963.826171875 1250.97753906 c 4,31,32
 896 1296 896 1296 814.224609375 1295.03222656 c 4,33,34
 565 1295 565 1295 482.131835938 998.986328125 c 5,0,1
EndSplineSet
EndChar

StartChar: uni06F5
Encoding: 95 1781 88
Width: 1224
VWidth: 2459
GlyphClass: 2
Flags: W
LayerCount: 2
Fore
SplineSet
612.001953125 405.283203125 m 0,0,1
 701 181 701 181 870.09765625 182.401367188 c 1,2,-1
 870.374023438 182.412109375 l 1,3,4
 1077 195 1077 195 990.623046875 487.765625 c 0,5,6
 954 612 954 612 818.64453125 801.15234375 c 4,7,8
 679 996 679 996 608 1063 c 5,9,10
 209 596 209 596 196 351 c 0,11,12
 188 192 188 192 350.03125 182.764648438 c 0,13,14
 475 176 475 176 590.44140625 405.884765625 c 0,15,16
 600 425 600 425 604.99609375 418.6953125 c 0,17,18
 610 412 610 412 612.001953125 405.283203125 c 0,0,1
470.154296875 1210.11425781 m 5,19,-1
 576.235351562 1376.80859375 l 5,20,21
 610 1343 610 1343 642.317382812 1308.97949219 c 4,22,23
 1177 769 1177 769 1126 255 c 0,24,25
 1099 -18 1099 -18 838.701171875 -10.4609375 c 0,26,27
 670.033663642 -5.00108970818 670.033663642 -5.00108970818 605.885742188 226.676757812 c 2,28,-1
 601.078125 244.040039062 l 1,29,30
 530 -11 530 -11 343.483398438 -11.0517578125 c 0,31,32
 120 -11 120 -11 98.2880859375 290.828125 c 0,33,34
 78 570 78 570 510.047851562 1174.22265625 c 5,35,-1
 470.154296875 1210.11425781 l 5,19,-1
EndSplineSet
EndChar

StartChar: uni06F6
Encoding: 96 1782 89
Width: 1074
VWidth: 2624
GlyphClass: 2
Flags: W
LayerCount: 2
Fore
SplineSet
458.106445312 625.768554688 m 1,0,1
 167 658 167 658 116.986328125 885.693359375 c 0,2,3
 84 1035 84 1035 211.471679688 1214.13671875 c 0,4,5
 310 1353 310 1353 432.435546875 1386.91210938 c 0,6,7
 652 1449 652 1449 743.799804688 1299.51171875 c 0,8,9
 788 1228 788 1228 759.50390625 1222.12792969 c 0,10,11
 754 1221 754 1221 682.793945312 1226.86230469 c 0,12,13
 612 1233 612 1233 544.5 1223.07519531 c 0,14,15
 246 1181 246 1181 234.543945312 1011.25097656 c 0,16,17
 218 747 218 747 608.840820312 775.461914062 c 0,18,19
 726 784 726 784 974.0078125 898.510742188 c 1,20,-1
 911.09765625 662.720703125 l 1,21,22
 534 544 534 544 316 181 c 24,23,24
 227 33 227 33 200.388671875 -15.19921875 c 1,25,26
 130 41 130 41 228 269 c 4,27,28
 329 503 329 503 458.106445312 625.768554688 c 1,0,1
EndSplineSet
EndChar

StartChar: uniFB8F
Encoding: 115 64399 104
Width: 2155
VWidth: 2890
GlyphClass: 2
Flags: W
AnchorPoint: "Anchor-10" 445.594 1406.84 basechar 0
AnchorPoint: "Anchor-7" 527.762 -335.645 basechar 0
LayerCount: 2
Fore
SplineSet
91.6689453125 448.451171875 m 0,0,1
 91 581 91 581 130 682 c 0,2,3
 153 742 153 742 184.532226562 727.696289062 c 0,4,5
 200 721 200 721 195.142578125 694.287109375 c 0,6,7
 188 657 188 657 181 619 c 0,8,9
 171 564 171 564 173.485351562 503.573242188 c 0,10,11
 184 213 184 213 619.427734375 193.467773438 c 0,12,13
 1013 176 1013 176 1211.74023438 202.080078125 c 0,14,15
 1491 239 1491 239 1518.15527344 358.958984375 c 0,16,17
 1543 472 1543 472 1346.14550781 681.25390625 c 0,18,19
 1169 871 1169 871 1051.96777344 919.907226562 c 1,20,21
 1029.00273802 1178.96911317 1029.00273802 1178.96911317 1171.67773438 1240.328125 c 2,22,-1
 1858.36425781 1535.64550781 l 1,23,24
 1821 1365 1821 1365 1781.25195312 1285.9140625 c 1,25,-1
 1159.99707031 1080.13183594 l 1,26,27
 1288 977 1288 977 1421 828 c 4,28,29
 1493 748 1493 748 1619.00683594 558.815429688 c 0,30,31
 1866.8654607 188.201171875 1866.8654607 188.201171875 2138.38476562 188.201171875 c 2,32,-1
 2161.36230469 188.201171875 l 1,33,-1
 2161.36230469 -10.28125 l 1,34,-1
 2138.68847656 -10.28125 l 2,35,36
 1845 -10 1845 -10 1623.98925781 374.0546875 c 1,37,38
 1615 236 1615 236 1524.81640625 145.73046875 c 0,39,40
 1373 -5 1373 -5 909.5 -9.5 c 128,-1,41
 446 -14 446 -14 306.868164062 59.1435546875 c 0,42,43
 93 170 93 170 91.6689453125 448.451171875 c 0,0,1
EndSplineSet
EndChar

StartChar: uniFB9F
Encoding: 123 64415 112
Width: 1501
VWidth: 2890
GlyphClass: 2
Flags: W
AnchorPoint: "Anchor-10" 208.352 934.718 basechar 0
AnchorPoint: "Anchor-7" 80.9268 -972.418 basechar 0
LayerCount: 2
Fore
SplineSet
1182.38183594 -25.201171875 m 1,0,1
 1146.44633568 170.147438568 1146.44633568 170.147438568 1064.81152344 339.331054688 c 1,2,-1
 1201 481 l 1,3,4
 1262 288 1262 288 1301 238 c 128,-1,5
 1340 188 1340 188 1462.3515625 188.42578125 c 2,6,-1
 1511.45117188 188.42578125 l 1,7,-1
 1511.45117188 -10.431640625 l 1,8,-1
 1469.87988281 -10.431640625 l 2,9,10
 1349 -10 1349 -10 1311.32421875 47.9228515625 c 1,11,-1
 1298.04003906 -66.3291015625 l 1,12,13
 1209 -590 1209 -590 679.004882812 -596.1171875 c 0,14,15
 346.63440654 -599.958001446 346.63440654 -599.958001446 203.81720327 -419.979000723 c 4,16,17
 10.1118636689 -175.870499381 10.1118636689 -175.870499381 154.09375 213.3515625 c 4,18,19
 173 263 173 263 191.059570312 290.641601562 c 4,20,21
 221 338 221 338 246.5 322 c 132,-1,22
 272 306 272 306 231 177 c 4,23,24
 162 -43 162 -43 245.98046875 -207.971679688 c 4,25,26
 345 -403 345 -403 714.786132812 -394.998046875 c 0,27,28
 1145.41719777 -384.990304443 1145.41719777 -384.990304443 1182.38183594 -25.201171875 c 1,0,1
EndSplineSet
EndChar

StartChar: uniFBE8
Encoding: 127 64488 115
Width: 611
VWidth: 2889
GlyphClass: 2
Flags: W
AnchorPoint: "Anchor-10" 328.514 1044.25 basechar 0
AnchorPoint: "Anchor-7" 290.553 -300.398 basechar 0
LayerCount: 2
Fore
SplineSet
71.19921875 -10.28125 m 2,0,-1
 -10.380859375 -10.28125 l 5,1,-1
 -10.380859375 188.201171875 l 5,2,-1
 95.6533203125 188.201171875 l 2,3,4
 389 188 389 188 403.884765625 335.939453125 c 0,5,6
 413 431 413 431 309.303710938 539.396484375 c 1,7,-1
 431.047851562 786.140625 l 1,8,9
 504 674 504 674 516.397460938 521.724609375 c 0,10,11
 520 478 520 478 519.897460938 438.436523438 c 0,12,13
 520 -10 520 -10 71.19921875 -10.28125 c 2,0,-1
EndSplineSet
EndChar

StartChar: uniFBE9
Encoding: 128 64489 116
Width: 762
VWidth: 2889
GlyphClass: 2
Flags: W
AnchorPoint: "Anchor-10" 441.966 981.476 basechar 0
AnchorPoint: "Anchor-7" 361.674 -265.436 basechar 0
LayerCount: 2
Fore
SplineSet
400.143554688 465.950195312 m 2,0,1
 405.007122144 534.999923463 405.007122144 534.999923463 451.254882812 534.502929688 c 128,-1,2
 497.481916111 533.994701731 497.481916111 533.994701731 501.625976562 472.888671875 c 2,3,-1
 507.47265625 386.676757812 l 2,4,5
 520.986302771 188.201171875 520.986302771 188.201171875 759.1953125 188.201171875 c 2,6,-1
 772.306640625 188.201171875 l 5,7,-1
 772.306640625 -10.28125 l 5,8,-1
 749.803710938 -10.28125 l 2,9,10
 535.323659456 -10.0004237786 535.323659456 -10.0004237786 465.68359375 145.521484375 c 2,11,-1
 461.4921875 154.881835938 l 1,12,-1
 456.700195312 145.815429688 l 2,13,14
 373.850724476 -10.28125 373.850724476 -10.28125 44.123046875 -10.28125 c 2,15,-1
 -9.80078125 -10.28125 l 1,16,-1
 -9.80078125 188.201171875 l 1,17,-1
 77.125 188.201171875 l 2,18,19
 380.56595224 188.000287349 380.56595224 188.000287349 394.413085938 384.592773438 c 2,20,-1
 400.143554688 465.950195312 l 2,0,1
EndSplineSet
EndChar

StartChar: uniFE73
Encoding: 136 65139 124
Width: 693
VWidth: 2650
GlyphClass: 2
Flags: W
AnchorPoint: "Anchor-10" 255.701 1552.85 basechar 0
AnchorPoint: "Anchor-7" 255.701 -134.511 basechar 0
LayerCount: 2
Fore
SplineSet
356.583007812 426.212890625 m 2,0,1
 356.583007812 386.639648438 356.583007812 386.639648438 373.875 349.548828125 c 0,2,3
 382.490234375 331.069335938 382.490234375 331.069335938 395.430664062 313.215820312 c 128,-1,4
 408.372070312 295.361328125 408.372070312 295.361328125 425.611328125 278.12109375 c 0,5,6
 488.147460938 215.583984375 488.147460938 215.583984375 624.323242188 215.583984375 c 2,7,-1
 703.141601562 215.583984375 l 1,8,-1
 703.141601562 13.8173828125 l 1,9,-1
 552.934570312 13.8173828125 l 2,10,11
 376.299804688 13.8173828125 376.299804688 13.8173828125 262.313476562 127.802734375 c 0,12,13
 208.6015625 181.515625 208.6015625 181.515625 181.737304688 252.193359375 c 128,-1,14
 154.817382812 323.015625 154.817382812 323.015625 154.817382812 410.637695312 c 2,15,-1
 154.817382812 447.918945312 l 1,16,-1
 356.583007812 447.918945312 l 1,17,-1
 356.583007812 426.212890625 l 2,0,1
EndSplineSet
EndChar

StartChar: uniFE8E
Encoding: 162 65166 150
Width: 519
VWidth: 2860
GlyphClass: 2
Flags: W
AnchorPoint: "Anchor-10" 186.936 1695.94 basechar 0
AnchorPoint: "Anchor-7" 242.457 -275.702 basechar 0
LayerCount: 2
Fore
SplineSet
293.546875 1535.31738281 m 1,0,1
 315 1157 315 1157 293.755859375 538.020507812 c 0,2,3
 286 311 286 311 338.415039062 249.600585938 c 128,-1,4
 390.828125 188.201171875 390.828125 188.201171875 517.124023438 188.201171875 c 2,5,-1
 529.24609375 188.201171875 l 1,6,-1
 529.24609375 -10.28125 l 1,7,-1
 518.91015625 -10.28125 l 2,8,9
 349 -10 349 -10 270.70703125 82.8505859375 c 0,10,11
 172 201 172 201 175.120117188 434.586914062 c 0,12,13
 186 1250 186 1250 140.822265625 1434.71972656 c 1,14,-1
 293.546875 1535.31738281 l 1,0,1
EndSplineSet
EndChar

StartChar: uniFEA2
Encoding: 182 65186 170
Width: 1375
VWidth: 2886
GlyphClass: 2
Flags: W
AnchorPoint: "Anchor-7" 395.638 -884.091 basechar 0
AnchorPoint: "Anchor-10" 589.473 1277.07 basechar 0
LayerCount: 2
Fore
SplineSet
475.44921875 907.293945312 m 4,0,1
 621 916 621 916 834.124023438 797.111328125 c 4,2,3
 1052 676 1052 676 1280.07910156 652.272460938 c 5,4,-1
 1239.03710938 484.782226562 l 5,5,6
 1072.58007812 467.81640625 1072.58007812 467.81640625 1037.16308594 463.561523438 c 6,7,-1
 1032.48144531 462.999023438 l 5,8,-1
 1032.76953125 458.291992188 l 6,9,10
 1048.98828125 188.201171875 1048.98828125 188.201171875 1356.40136719 188.201171875 c 6,11,-1
 1382.52246094 188.201171875 l 5,12,-1
 1382.52246094 -10.28125 l 5,13,-1
 1365.01269531 -10.28125 l 6,14,15
 1152 -10 1152 -10 1044.51953125 102.159179688 c 4,16,17
 936.544921875 215.477539062 936.544921875 215.477539062 931.951171875 442.125 c 6,18,-1
 931.827148438 448.244140625 l 5,19,-1
 925.85546875 446.901367188 l 6,20,21
 919 445 919 445 891.170898438 440.166992188 c 4,22,23
 697 409 697 409 540.897460938 328.2734375 c 4,24,25
 333 220 333 220 261.24609375 91.84375 c 4,26,27
 189 -36 189 -36 189.453125 -149.12890625 c 4,28,29
 189 -263 189 -263 248.75390625 -342.817382812 c 4,30,31
 401 -549 401 -549 851.4296875 -545.891601562 c 4,32,33
 1013 -545 1013 -545 1055.52929688 -542.3671875 c 4,34,35
 1137 -538 1137 -538 1178.671875 -535.517578125 c 4,36,37
 1190 -535 1190 -535 1191.52734375 -535.8984375 c 4,38,39
 1192 -536 1192 -536 1189.24804688 -539.736328125 c 4,40,41
 1187 -542 1187 -542 1184.34375 -545.2890625 c 4,42,43
 1008 -721 1008 -721 863.694335938 -726.84375 c 4,44,45
 805 -729 805 -729 752.655273438 -729 c 4,46,47
 401 -728 401 -728 247.067382812 -583.374023438 c 4,48,49
 170 -511 170 -511 131.801757812 -414.640625 c 4,50,51
 93 -319 93 -319 93.310546875 -198.712890625 c 4,52,53
 93 -21 93 -21 154.633789062 115.9609375 c 4,54,55
 331.065429688 512.147460938 331.065429688 512.147460938 895.002929688 592.993164062 c 6,56,-1
 916.413085938 596.0625 l 5,57,-1
 895.828125 602.701171875 l 6,58,59
 841 620 841 620 660.598632812 687.577148438 c 4,60,61
 493.2734375 748.629882812 493.2734375 748.629882812 430.209960938 726.913085938 c 4,62,63
 384 711 384 711 339.42578125 673.759765625 c 4,64,65
 295 637 295 637 251.830078125 578.307617188 c 4,66,67
 242 565 242 565 234.3671875 556.373046875 c 4,68,69
 226 547 226 547 220.47265625 542.1171875 c 4,70,71
 216 538 216 538 213.057617188 536.879882812 c 4,72,73
 210 535 210 535 209.172851562 535.545898438 c 4,74,75
 208 536 208 536 207.954101562 536.168945312 c 4,76,77
 200 546 200 546 209.828125 587.1796875 c 4,78,79
 220 629 220 629 247.84765625 697.30859375 c 4,80,81
 329 898 329 898 475.44921875 907.293945312 c 4,0,1
EndSplineSet
EndChar

StartChar: uniFEA3
Encoding: 183 65187 171
Width: 1369
VWidth: 2890
GlyphClass: 2
Flags: W
AnchorPoint: "Anchor-10" 342.607 1293.58 basechar 0
AnchorPoint: "Anchor-7" 483.411 -269.277 basechar 0
LayerCount: 2
Fore
SplineSet
939.974609375 313.1640625 m 24,0,1
 705 222 705 222 536.4375 125.700195312 c 0,2,3
 298.50789093 -10.28125 298.50789093 -10.28125 19.9951171875 -10.28125 c 2,4,-1
 -10.8193359375 -10.28125 l 5,5,-1
 -10.8193359375 188.201171875 l 5,6,-1
 8.0478515625 188.201171875 l 2,7,8
 312 188 312 188 489.201171875 273.357421875 c 0,9,10
 761 404 761 404 959.39453125 464.56640625 c 1,11,12
 804 492 804 492 608.235351562 579.184570312 c 0,13,14
 419 664 419 664 345.82421875 655.227539062 c 0,15,16
 261 645 261 645 172.654296875 521.356445312 c 0,17,18
 127 458 127 458 118.092773438 462.520507812 c 0,19,20
 94 475 94 475 145.861328125 598.6796875 c 0,21,22
 196 718 196 718 254.626953125 772.6484375 c 0,23,24
 313 826 313 826 385.051757812 832.873046875 c 0,25,26
 479 841 479 841 717 716 c 0,27,28
 946 596 946 596 1277.54003906 566.494140625 c 1,29,-1
 1248.98535156 417.47265625 l 1,30,31
 1105 377 1105 377 939.974609375 313.1640625 c 24,0,1
EndSplineSet
EndChar

StartChar: uniFEA4
Encoding: 184 65188 172
Width: 1410
VWidth: 2890
GlyphClass: 2
Flags: W
AnchorPoint: "Anchor-10" 440.587 1282.73 basechar 0
AnchorPoint: "Anchor-7" 572.93 -303.888 basechar 0
LayerCount: 2
Fore
SplineSet
1249.29296875 -10.28125 m 2,0,1
 954.012206311 -10.28125 954.012206311 -10.28125 939.974609375 313.1640625 c 1,2,3
 713 227 713 227 536.4375 125.700195312 c 0,4,5
 298.50789093 -10.28125 298.50789093 -10.28125 19.9951171875 -10.28125 c 2,6,-1
 -10.8193359375 -10.28125 l 1,7,-1
 -10.8193359375 188.201171875 l 1,8,-1
 8.0478515625 188.201171875 l 2,9,10
 312 188 312 188 489.201171875 273.357421875 c 0,11,12
 761 404 761 404 959.39453125 464.56640625 c 1,13,14
 804 492 804 492 608.235351562 579.184570312 c 0,15,16
 419 664 419 664 345.82421875 655.227539062 c 0,17,18
 261 645 261 645 172.654296875 521.356445312 c 0,19,20
 127 458 127 458 118.092773438 462.520507812 c 0,21,22
 94 475 94 475 145.861328125 598.6796875 c 0,23,24
 196 718 196 718 254.626953125 772.6484375 c 0,25,26
 313 826 313 826 385.051757812 832.873046875 c 0,27,28
 479 841 479 841 717 716 c 0,29,30
 946 596 946 596 1277.54003906 566.494140625 c 1,31,-1
 1248.98535156 417.47265625 l 1,32,33
 1130 382 1130 382 1027.50585938 347.63671875 c 1,34,35
 1026.00189766 188.201171875 1026.00189766 188.201171875 1258.35742188 188.201171875 c 2,36,-1
 1419.97167969 188.201171875 l 5,37,-1
 1419.97167969 -10.28125 l 5,38,-1
 1249.29296875 -10.28125 l 2,0,1
EndSplineSet
EndChar

StartChar: uniFEAA
Encoding: 190 65194 178
Width: 1105
VWidth: 2884
GlyphClass: 2
Flags: W
AnchorPoint: "Anchor-10" 609.614 1371.9 basechar 0
AnchorPoint: "Anchor-7" 386.497 -376.844 basechar 0
LayerCount: 2
Fore
SplineSet
834.7578125 186.811523438 m 6,0,1
 754.26171875 -3.9951171875 754.26171875 -3.9951171875 446.387695312 -10.2822265625 c 4,2,3
 321 -13 321 -13 227.890625 23.419921875 c 4,4,5
 44 95 44 95 108.967773438 417.623046875 c 5,6,7
 142 431 142 431 170.177734375 419.139648438 c 5,8,9
 139 214 139 214 343.595703125 187.59765625 c 4,10,11
 364 185 364 185 387.712890625 184.569335938 c 4,12,13
 618 176 618 176 703.28515625 219.08984375 c 4,14,15
 774.001953125 255.000976562 774.001953125 255.000976562 741.587890625 365.522460938 c 6,16,-1
 599.7890625 849.005859375 l 5,17,-1
 702.422851562 990.172851562 l 5,18,-1
 849.080078125 448.502929688 l 6,19,20
 919.9453125 188.201171875 919.9453125 188.201171875 1103.00195312 188.201171875 c 6,21,-1
 1115.9296875 188.201171875 l 5,22,-1
 1115.9296875 -10.28125 l 5,23,-1
 1089.87109375 -10.28125 l 6,24,25
 932.02734375 -10 932.02734375 -10 843.927734375 186.91015625 c 6,26,-1
 839.229492188 197.411132812 l 5,27,-1
 834.7578125 186.811523438 l 6,0,1
EndSplineSet
EndChar

StartChar: uniFEAE
Encoding: 194 65198 182
Width: 1001
VWidth: 2889
GlyphClass: 2
Flags: W
AnchorPoint: "Anchor-10" 587.381 980.079 basechar 0
AnchorPoint: "Anchor-7" 434.094 -847.421 basechar 0
LayerCount: 2
Fore
SplineSet
690.447265625 77.9345703125 m 0,0,1
 697.027053978 133.616797913 697.027053978 133.616797913 655.013526989 200.808398956 c 128,-1,2
 613 268 613 268 568.3203125 324.201171875 c 1,3,-1
 675.91015625 496.942382812 l 1,4,5
 730 383 730 383 787.581054688 275.223632812 c 0,6,7
 833.892939723 188.201171875 833.892939723 188.201171875 999.026367188 188.201171875 c 2,8,-1
 1011.60253906 188.201171875 l 5,9,-1
 1011.60253906 -10.28125 l 1,10,-1
 982.697265625 -10.28125 l 2,11,12
 852 -10 852 -10 788.72265625 43.9267578125 c 1,13,14
 728 -337 728 -337 483.940429688 -530.461914062 c 0,15,16
 435.440777241 -568.859329511 435.440777241 -568.859329511 391.935546875 -569.731445312 c 0,17,18
 183 -574 183 -574 33.7294921875 -508.655273438 c 0,19,20
 9.32527084273 -497.823863333 9.32527084273 -497.823863333 43.7325178176 -487.079739332 c 0,21,22
 60 -482 60 -482 75.4287109375 -475.541015625 c 0,23,24
 650 -260 650 -260 690.447265625 77.9345703125 c 0,0,1
EndSplineSet
PairPos2: "'kern' Horizontal Kerning lookup 15-3" uni0648 dx=-90 dy=0 dh=-90 dv=0 dx=0 dy=0 dh=0 dv=0
PairPos2: "'kern' Horizontal Kerning lookup 15-1" uni0644 dx=-108 dy=0 dh=-108 dv=0 dx=0 dy=0 dh=0 dv=0
PairPos2: "'kern' Horizontal Kerning lookup 15-1" uni0642 dx=-108 dy=0 dh=-108 dv=0 dx=0 dy=0 dh=0 dv=0
PairPos2: "'kern' Horizontal Kerning lookup 15-1" uni0632 dx=-86 dy=0 dh=-86 dv=0 dx=0 dy=0 dh=0 dv=0
PairPos2: "'kern' Horizontal Kerning lookup 15-1" uni0631 dx=-86 dy=0 dh=-86 dv=0 dx=0 dy=0 dh=0 dv=0
PairPos2: "'kern' Horizontal Kerning lookup 15-1" uniFB8A dx=-86 dy=0 dh=-86 dv=0 dx=0 dy=0 dh=0 dv=0
PairPos2: "'kern' Horizontal Kerning lookup 15-1" afii57508 dx=-86 dy=0 dh=-86 dv=0 dx=0 dy=0 dh=0 dv=0
PairPos2: "'kern' Horizontal Kerning lookup 15-1" uniFB7C dx=-108 dy=0 dh=-108 dv=0 dx=0 dy=0 dh=0 dv=0
PairPos2: "'kern' Horizontal Kerning lookup 15-1" uni06CC dx=-108 dy=0 dh=-108 dv=0 dx=0 dy=0 dh=0 dv=0
PairPos2: "'kern' Horizontal Kerning lookup 15-1" uniFEEB dx=-184 dy=0 dh=-184 dv=0 dx=0 dy=0 dh=0 dv=0
PairPos2: "'kern' Horizontal Kerning lookup 15-1" uniFEDF dx=-184 dy=0 dh=-184 dv=0 dx=0 dy=0 dh=0 dv=0
PairPos2: "'kern' Horizontal Kerning lookup 15-1" uniFB90 dx=-184 dy=0 dh=-184 dv=0 dx=0 dy=0 dh=0 dv=0
PairPos2: "'kern' Horizontal Kerning lookup 15-1" uni06A9 dx=-184 dy=0 dh=-184 dv=0 dx=0 dy=0 dh=0 dv=0
PairPos2: "'kern' Horizontal Kerning lookup 15-1" uni0649 dx=-108 dy=0 dh=-108 dv=0 dx=0 dy=0 dh=0 dv=0
PairPos2: "'kern' Horizontal Kerning lookup 15-1" uni0647 dx=-184 dy=0 dh=-184 dv=0 dx=0 dy=0 dh=0 dv=0
PairPos2: "'kern' Horizontal Kerning lookup 15-1" uniFEE7 dx=-184 dy=0 dh=-184 dv=0 dx=0 dy=0 dh=0 dv=0
PairPos2: "'kern' Horizontal Kerning lookup 15-1" uniFEE3 dx=-184 dy=0 dh=-184 dv=0 dx=0 dy=0 dh=0 dv=0
PairPos2: "'kern' Horizontal Kerning lookup 15-1" uni0645 dx=-184 dy=0 dh=-184 dv=0 dx=0 dy=0 dh=0 dv=0
PairPos2: "'kern' Horizontal Kerning lookup 15-1" uniFEDB dx=-184 dy=0 dh=-184 dv=0 dx=0 dy=0 dh=0 dv=0
PairPos2: "'kern' Horizontal Kerning lookup 15-1" uniFED7 dx=-184 dy=0 dh=-184 dv=0 dx=0 dy=0 dh=0 dv=0
PairPos2: "'kern' Horizontal Kerning lookup 15-1" uniFED3 dx=-184 dy=0 dh=-184 dv=0 dx=0 dy=0 dh=0 dv=0
PairPos2: "'kern' Horizontal Kerning lookup 15-1" uni0641 dx=-184 dy=0 dh=-184 dv=0 dx=0 dy=0 dh=0 dv=0
PairPos2: "'kern' Horizontal Kerning lookup 15-1" uniFECF dx=-184 dy=0 dh=-184 dv=0 dx=0 dy=0 dh=0 dv=0
PairPos2: "'kern' Horizontal Kerning lookup 15-1" uniFECB dx=-184 dy=0 dh=-184 dv=0 dx=0 dy=0 dh=0 dv=0
PairPos2: "'kern' Horizontal Kerning lookup 15-1" uniFEC7 dx=-184 dy=0 dh=-184 dv=0 dx=0 dy=0 dh=0 dv=0
PairPos2: "'kern' Horizontal Kerning lookup 15-1" uni0638 dx=-184 dy=0 dh=-184 dv=0 dx=0 dy=0 dh=0 dv=0
PairPos2: "'kern' Horizontal Kerning lookup 15-1" uniFEC3 dx=-184 dy=0 dh=-184 dv=0 dx=0 dy=0 dh=0 dv=0
PairPos2: "'kern' Horizontal Kerning lookup 15-1" uni0637 dx=-184 dy=0 dh=-184 dv=0 dx=0 dy=0 dh=0 dv=0
PairPos2: "'kern' Horizontal Kerning lookup 15-1" uniFEBF dx=-184 dy=0 dh=-184 dv=0 dx=0 dy=0 dh=0 dv=0
PairPos2: "'kern' Horizontal Kerning lookup 15-1" uni0636 dx=-184 dy=0 dh=-184 dv=0 dx=0 dy=0 dh=0 dv=0
PairPos2: "'kern' Horizontal Kerning lookup 15-1" uniFEBB dx=-184 dy=0 dh=-184 dv=0 dx=0 dy=0 dh=0 dv=0
PairPos2: "'kern' Horizontal Kerning lookup 15-1" uni0635 dx=-184 dy=0 dh=-184 dv=0 dx=0 dy=0 dh=0 dv=0
PairPos2: "'kern' Horizontal Kerning lookup 15-1" uniFEB7 dx=-184 dy=0 dh=-184 dv=0 dx=0 dy=0 dh=0 dv=0
PairPos2: "'kern' Horizontal Kerning lookup 15-1" uni0634 dx=-184 dy=0 dh=-184 dv=0 dx=0 dy=0 dh=0 dv=0
PairPos2: "'kern' Horizontal Kerning lookup 15-1" uniFEB3 dx=-184 dy=0 dh=-184 dv=0 dx=0 dy=0 dh=0 dv=0
PairPos2: "'kern' Horizontal Kerning lookup 15-1" uni0633 dx=-184 dy=0 dh=-184 dv=0 dx=0 dy=0 dh=0 dv=0
PairPos2: "'kern' Horizontal Kerning lookup 15-1" uni0630 dx=-184 dy=0 dh=-184 dv=0 dx=0 dy=0 dh=0 dv=0
PairPos2: "'kern' Horizontal Kerning lookup 15-1" uni062F dx=-184 dy=0 dh=-184 dv=0 dx=0 dy=0 dh=0 dv=0
PairPos2: "'kern' Horizontal Kerning lookup 15-1" uniFEA7 dx=-184 dy=0 dh=-184 dv=0 dx=0 dy=0 dh=0 dv=0
PairPos2: "'kern' Horizontal Kerning lookup 15-1" uniFEA3 dx=-184 dy=0 dh=-184 dv=0 dx=0 dy=0 dh=0 dv=0
PairPos2: "'kern' Horizontal Kerning lookup 15-1" uniFE9F dx=-184 dy=0 dh=-184 dv=0 dx=0 dy=0 dh=0 dv=0
PairPos2: "'kern' Horizontal Kerning lookup 15-1" uniFE9B dx=-184 dy=0 dh=-184 dv=0 dx=0 dy=0 dh=0 dv=0
PairPos2: "'kern' Horizontal Kerning lookup 15-1" uni062B dx=-184 dy=0 dh=-184 dv=0 dx=0 dy=0 dh=0 dv=0
PairPos2: "'kern' Horizontal Kerning lookup 15-1" uniFE97 dx=-184 dy=0 dh=-184 dv=0 dx=0 dy=0 dh=0 dv=0
PairPos2: "'kern' Horizontal Kerning lookup 15-1" uni062A dx=-184 dy=0 dh=-184 dv=0 dx=0 dy=0 dh=0 dv=0
PairPos2: "'kern' Horizontal Kerning lookup 15-1" uni0629 dx=-184 dy=0 dh=-184 dv=0 dx=0 dy=0 dh=0 dv=0
PairPos2: "'kern' Horizontal Kerning lookup 15-1" uni0628 dx=-184 dy=0 dh=-184 dv=0 dx=0 dy=0 dh=0 dv=0
PairPos2: "'kern' Horizontal Kerning lookup 15-1" uni0627 dx=-205 dy=0 dh=-205 dv=0 dx=0 dy=0 dh=0 dv=0
PairPos2: "'kern' Horizontal Kerning lookup 15-1" uni0622 dx=-205 dy=0 dh=-205 dv=0 dx=0 dy=0 dh=0 dv=0
PairPos2: "'kern' Horizontal Kerning lookup 15-1" uniFB94 dx=-184 dy=0 dh=-184 dv=0 dx=0 dy=0 dh=0 dv=0
PairPos2: "'kern' Horizontal Kerning lookup 15-1" afii57509 dx=-184 dy=0 dh=-184 dv=0 dx=0 dy=0 dh=0 dv=0
PairPos2: "'kern' Horizontal Kerning lookup 15-1" uniFB56 dx=-184 dy=0 dh=-184 dv=0 dx=0 dy=0 dh=0 dv=0
PairPos2: "'kern' Horizontal Kerning lookup 15-1" afii57506 dx=-184 dy=0 dh=-184 dv=0 dx=0 dy=0 dh=0 dv=0
EndChar

StartChar: uniFEB2
Encoding: 198 65202 186
Width: 2534
VWidth: 2890
GlyphClass: 2
Flags: W
AnchorPoint: "Anchor-10" 709.888 1014.54 basechar 0
AnchorPoint: "Anchor-7" 403.133 -870.777 basechar 0
LayerCount: 2
Fore
SplineSet
1297 243 m 16,0,1
 1349 175 1349 175 1488.53027344 178.643554688 c 4,2,3
 1659 183 1659 183 1664.55859375 378.23046875 c 2,4,-1
 1665.49023438 408.46875 l 1,5,6
 1672 477 1672 477 1711.73046875 476.973632812 c 0,7,8
 1762 477 1762 477 1766.94433594 415.577148438 c 1,9,-1
 1772.0234375 386.379882812 l 2,10,11
 1805.31730838 194.989736277 1805.31730838 194.989736277 1970.11425781 189.659179688 c 0,12,13
 2120 184 2120 184 2131.19335938 374.150390625 c 2,14,-1
 2135.45214844 447.53125 l 1,15,16
 2141 516 2141 516 2181.73730469 516.163085938 c 0,17,18
 2232 517 2232 517 2236.9375 454.543945312 c 2,19,-1
 2244.36035156 363.463867188 l 2,20,21
 2258.57876064 189.000751616 2258.57876064 189.000751616 2502.55273438 188.565429688 c 2,22,-1
 2544.29785156 188.565429688 l 1,23,-1
 2544.29785156 -10.4296875 l 1,24,-1
 2510.83300781 -10.4296875 l 2,25,26
 2275.20480781 -10.4296875 2275.20480781 -10.4296875 2192.43359375 163.224609375 c 2,27,-1
 2187.63574219 173.356445312 l 1,28,29
 2115 0 2115 0 1973.55078125 -10.744140625 c 0,30,31
 1797 -25 1797 -25 1726.64355469 166.142578125 c 2,32,-1
 1722.04003906 178.685546875 l 1,33,-1
 1717.27734375 166.202148438 l 1,34,35
 1651 -4 1651 -4 1495.25195312 -11.1728515625 c 0,36,37
 1356 -17 1356 -17 1311.32421875 47.9228515625 c 9,38,-1
 1298.04003906 -66.3291015625 l 1,39,40
 1209 -590 1209 -590 679.004882812 -596.1171875 c 0,41,42
 347 -600 347 -600 203 -418.5 c 128,-1,43
 59 -237 59 -237 104.837890625 28.28515625 c 0,44,45
 123 132 123 132 154.09375 213.3515625 c 0,46,47
 205 348 205 348 246.5 322 c 0,48,49
 272 306 272 306 231 177 c 0,50,51
 162 -43 162 -43 245.98046875 -207.971679688 c 0,52,53
 345 -403 345 -403 714.786132812 -394.998046875 c 0,54,55
 1145 -385 1145 -385 1182.38183594 -25.201171875 c 1,56,57
 1147 168 1147 168 1064.81152344 339.331054688 c 1,58,-1
 1201 481 l 1,59,60
 1262 288 1262 288 1297 243 c 16,0,1
1665.49023438 408.46875 m 2,61,-1
 1665.47851562 408.330078125 l 2,62,63
 1665.484375 408.399414062 1665.484375 408.399414062 1665.49023438 408.46875 c 2,61,-1
EndSplineSet
EndChar

StartChar: uniFEB3
Encoding: 199 65203 187
Width: 1509
VWidth: 2889
GlyphClass: 2
Flags: W
AnchorPoint: "Anchor-10" 766.466 1093.62 basechar 0
AnchorPoint: "Anchor-7" 688.701 -294.26 basechar 0
LayerCount: 2
Fore
SplineSet
602.83984375 -11.8447265625 m 0,0,1
 405 -12 405 -12 344.616210938 170.495117188 c 1,2,3
 263.8743827 -10.28125 263.8743827 -10.28125 47.0751953125 -10.28125 c 2,4,-1
 -10.7236328125 -10.28125 l 1,5,-1
 -10.7236328125 188.201171875 l 1,6,-1
 33.857421875 188.201171875 l 2,7,8
 276.610347439 188.000322392 276.610347439 188.000322392 286.240234375 338.022460938 c 2,9,-1
 289.87109375 394.586914062 l 2,10,11
 294 463 294 463 338.22265625 463.122070312 c 0,12,13
 382.844401448 463.000424187 382.844401448 463.000424187 391.392578125 401.14453125 c 2,14,-1
 396.557617188 363.76953125 l 2,15,16
 422 178 422 178 608.911132812 178.328125 c 0,17,18
 787.313751973 179.001183691 787.313751973 179.001183691 810.4140625 400.142578125 c 2,19,-1
 814.943359375 443.501953125 l 2,20,21
 822 512 822 512 861.795898438 512.0078125 c 0,22,23
 913.361714738 513.007008986 913.361714738 513.007008986 916.418945312 450.486328125 c 2,24,-1
 917.837890625 421.46875 l 2,25,26
 924 295 924 295 971.29296875 235.50390625 c 0,27,28
 1019 175 1019 175 1129.03515625 189.009765625 c 0,29,30
 1279 208 1279 208 1297.078125 317.931640625 c 128,-1,31
 1315 428 1315 428 1203.41894531 530.268554688 c 1,32,-1
 1327.40429688 774.889648438 l 1,33,34
 1397 673 1397 673 1412.70800781 515.8046875 c 0,35,36
 1449 145 1449 145 1227.375 15.8662109375 c 0,37,38
 1180 -12 1180 -12 1094.60546875 -11.765625 c 0,39,40
 927.642443384 -12.0005029987 927.642443384 -12.0005029987 863.879882812 165.8671875 c 2,41,-1
 859.458007812 178.202148438 l 1,42,-1
 854.538085938 166.056640625 l 2,43,44
 782 -12 782 -12 602.83984375 -11.8447265625 c 0,0,1
EndSplineSet
EndChar

StartChar: uniFEB4
Encoding: 200 65204 188
Width: 1627
VWidth: 2889
GlyphClass: 2
Flags: W
AnchorPoint: "Anchor-7" 688.701 -294.26 basechar 0
AnchorPoint: "Anchor-10" 795.062 988.835 basechar 0
LayerCount: 2
Fore
SplineSet
1305.43164062 513.904296875 m 0,0,1
 1348.62520155 513.99917671 1348.62520155 513.99917671 1354.17675781 452.30859375 c 2,2,-1
 1360.54199219 381.576171875 l 2,3,4
 1377.98185696 188.201171875 1377.98185696 188.201171875 1607.90625 188.201171875 c 2,5,-1
 1637.38476562 188.201171875 l 1,6,-1
 1637.38476562 -10.28125 l 1,7,-1
 1616.20410156 -10.28125 l 2,8,9
 1362.93206544 -9.99992454073 1362.93206544 -9.99992454073 1304.86621094 158.982421875 c 2,10,-1
 1299.99511719 173.158203125 l 1,11,-1
 1295.38085938 158.896484375 l 2,12,13
 1241 -8 1241 -8 1075.75878906 -12.005859375 c 128,-1,14
 910.518161399 -16.0116809012 910.518161399 -16.0116809012 850.451171875 144.935546875 c 2,15,-1
 845.439453125 158.364257812 l 1,16,-1
 841.010742188 144.732421875 l 2,17,18
 792 -6 792 -6 602.588867188 -9.998046875 c 4,19,20
 409.17765154 -13.9963275102 409.17765154 -13.9963275102 342.416992188 123.634765625 c 2,21,-1
 338.197265625 132.333984375 l 1,22,-1
 333.538085938 123.861328125 l 2,23,24
 259.845492444 -10.28125 259.845492444 -10.28125 75.095703125 -10.28125 c 2,25,-1
 -10.6767578125 -10.28125 l 1,26,-1
 -10.6767578125 188.23828125 l 1,27,-1
 61.8955078125 188.739257812 l 2,28,29
 265.098839595 190.000613533 265.098839595 190.000613533 283.720703125 324.655273438 c 2,30,-1
 287.331054688 350.76171875 l 2,31,32
 297 419 297 419 343.518554688 417 c 0,33,34
 380.992022812 415.000425661 380.992022812 415.000425661 389.068359375 365.26953125 c 2,35,-1
 394.043945312 334.631835938 l 2,36,37
 419 181 419 181 606.626953125 178.288085938 c 4,38,39
 777.837673176 176.002167305 777.837673176 176.002167305 789.063476562 378.22265625 c 2,40,-1
 790.3984375 402.270507812 l 2,41,42
 794 471 794 471 840.627929688 470.661132812 c 0,43,44
 886.4173797 471.003117254 886.4173797 471.003117254 891.874023438 409.032226562 c 2,45,-1
 894.560546875 378.521484375 l 2,46,47
 912 179 912 179 1087.6171875 189.416015625 c 0,48,49
 1223.67503025 197.979546285 1223.67503025 197.979546285 1245.68066406 385.583007812 c 2,50,-1
 1252.70117188 445.434570312 l 2,51,52
 1261 514 1261 514 1305.43164062 513.904296875 c 0,0,1
EndSplineSet
EndChar

StartChar: uniFEBA
Encoding: 206 65210 194
Width: 2692
VWidth: 2890
GlyphClass: 2
Flags: W
AnchorPoint: "Anchor-7" 315.837 -795.921 basechar 0
AnchorPoint: "Anchor-10" 686.703 926.551 basechar 0
LayerCount: 2
Fore
SplineSet
1560.60742188 189.7265625 m 1,0,-1
 1794.41503906 189.7265625 l 2,1,2
 2097 190 2097 190 2178 208 c 0,3,4
 2360 251 2360 251 2298 435 c 0,5,6
 2255 565 2255 565 2103.39257812 570.82421875 c 0,7,8
 1954 576 1954 576 1769.86035156 411.854492188 c 0,9,10
 1654 308 1654 308 1560.60742188 189.7265625 c 1,0,-1
1579.48535156 -11.32421875 m 2,11,12
 1364.29704627 -11.3322743971 1364.29704627 -11.3322743971 1311.32421875 47.9228515625 c 9,13,-1
 1298.04003906 -66.3291015625 l 1,14,15
 1209 -590 1209 -590 679.004882812 -596.1171875 c 0,16,17
 347 -600 347 -600 203 -418.5 c 128,-1,18
 59 -237 59 -237 104.837890625 28.28515625 c 0,19,20
 123 132 123 132 154.09375 213.3515625 c 0,21,22
 205 348 205 348 246.5 322 c 0,23,24
 272 306 272 306 231 177 c 0,25,26
 162 -43 162 -43 245.98046875 -207.971679688 c 0,27,28
 345 -403 345 -403 714.786132812 -394.998046875 c 0,29,30
 1145 -385 1145 -385 1182.38183594 -25.201171875 c 1,31,32
 1147 168 1147 168 1064.81152344 339.331054688 c 1,33,-1
 1201 481 l 1,34,35
 1259 277 1259 277 1298 243 c 16,36,37
 1356 192 1356 192 1471.16699219 200.833984375 c 1,38,39
 1813 754 1813 754 2080.42578125 762.651367188 c 0,40,41
 2273 769 2273 769 2369 579 c 0,42,43
 2429 459 2429 459 2417.73242188 315.571289062 c 24,44,45
 2408.01534742 188.201171875 2408.01534742 188.201171875 2686.90527344 188.201171875 c 2,46,-1
 2702.22753906 188.201171875 l 1,47,-1
 2702.22753906 -10.28125 l 1,48,-1
 2689.15722656 -10.28125 l 2,49,50
 2440 -10 2440 -10 2356.16308594 147.379882812 c 5,51,52
 2251.80332097 -11.2990502989 2251.80332097 -11.2990502989 1866.43847656 -11.3134765625 c 2,53,-1
 1579.48535156 -11.32421875 l 2,11,12
EndSplineSet
EndChar

StartChar: uniFEBB
Encoding: 207 65211 195
Width: 1805
VWidth: 2890
GlyphClass: 2
Flags: W
AnchorPoint: "Anchor-10" 728.657 1334.52 basechar 0
AnchorPoint: "Anchor-7" 836.834 -307.952 basechar 0
LayerCount: 2
Fore
SplineSet
811.607421875 189.7265625 m 5,0,-1
 1045.41503906 189.7265625 l 6,1,2
 1348 190 1348 190 1429 208 c 4,3,4
 1611 251 1611 251 1549 435 c 4,5,6
 1506 565 1506 565 1354.39257812 570.82421875 c 4,7,8
 1205 576 1205 576 1020.86035156 411.854492188 c 4,9,10
 905 308 905 308 811.607421875 189.7265625 c 5,0,-1
406.7265625 190.87109375 m 1,11,12
 256.790360102 -10.28125 256.790360102 -10.28125 21.736328125 -10.28125 c 2,13,-1
 -10.3115234375 -10.28125 l 1,14,-1
 -10.3115234375 188.201171875 l 1,15,-1
 7.2548828125 188.201171875 l 2,16,17
 141 188 141 188 210.051757812 225.3515625 c 0,18,19
 308 278 308 278 331.901367188 482.521484375 c 0,20,21
 342 568 342 568 388.422851562 568.453125 c 0,22,23
 439 570 439 570 443.580078125 505.903320312 c 24,24,-1
 453.594726562 441.036132812 l 2,25,26
 488 218 488 218 722.166992188 200.833984375 c 5,27,28
 1064 754 1064 754 1331.42578125 762.651367188 c 4,29,30
 1524 769 1524 769 1620 579 c 4,31,32
 1680 459 1680 459 1668.73242188 315.571289062 c 4,33,34
 1642.97682479 -11.2941175543 1642.97682479 -11.2941175543 1120.43847656 -11.3134765625 c 6,35,-1
 830.485351562 -11.32421875 l 6,36,37
 533 -11 533 -11 406.7265625 190.87109375 c 1,11,12
EndSplineSet
EndChar

StartChar: uniFEBC
Encoding: 208 65212 196
Width: 1942
VWidth: 2890
GlyphClass: 2
Flags: W
AnchorPoint: "Anchor-10" 810.59 1348.7 basechar 0
AnchorPoint: "Anchor-7" 832.224 -306.587 basechar 0
LayerCount: 2
Fore
SplineSet
811.607421875 189.7265625 m 5,0,-1
 1045.41503906 189.7265625 l 6,1,2
 1348 190 1348 190 1429 208 c 4,3,4
 1611 251 1611 251 1549 435 c 4,5,6
 1506 565 1506 565 1354.39257812 570.82421875 c 4,7,8
 1205 576 1205 576 1020.86035156 411.854492188 c 4,9,10
 905 308 905 308 811.607421875 189.7265625 c 5,0,-1
1667.73242188 315.571289062 m 24,11,12
 1658.01534742 188.201171875 1658.01534742 188.201171875 1936.90527344 188.201171875 c 2,13,-1
 1952.22753906 188.201171875 l 1,14,-1
 1952.22753906 -10.28125 l 1,15,-1
 1939.15722656 -10.28125 l 2,16,17
 1694 -10 1694 -10 1610.16308594 147.379882812 c 1,18,19
 1505.80319053 -11.2992486348 1505.80319053 -11.2992486348 1120.43847656 -11.3134765625 c 2,20,-1
 829.485351562 -11.32421875 l 2,21,22
 533 -11 533 -11 406.71875 190.883789062 c 1,23,24
 262 -4 262 -4 21.6748046875 -10.28125 c 1,25,-1
 -10.3115234375 -10.28125 l 1,26,-1
 -10.3115234375 188.201171875 l 1,27,-1
 7.2568359375 188.201171875 l 2,28,29
 131 188 131 188 209.793945312 225.220703125 c 0,30,31
 309 272 309 272 331.901367188 482.521484375 c 0,32,33
 341 567 341 567 388.422851562 568.453125 c 0,34,35
 438 570 438 570 443.580078125 506.903320312 c 24,36,-1
 453.594726562 441.036132812 l 2,37,38
 488 218 488 218 721.166992188 200.833984375 c 1,39,40
 1063 754 1063 754 1330.42578125 762.651367188 c 0,41,42
 1523 769 1523 769 1619 579 c 0,43,44
 1679 459 1679 459 1667.73242188 315.571289062 c 24,11,12
EndSplineSet
EndChar

StartChar: uniFEC2
Encoding: 214 65218 202
Width: 1596
VWidth: 2890
GlyphClass: 2
Flags: W
AnchorPoint: "Anchor-7" 777.145 -306.566 basechar 0
AnchorPoint: "Anchor-10" 486.952 1643.54 basechar 0
LayerCount: 2
Fore
SplineSet
469.564453125 190.76953125 m 5,0,-1
 703.372070312 190.76953125 l 6,1,2
 1005.95703125 191.04296875 1005.95703125 191.04296875 1086.95703125 209.04296875 c 4,3,4
 1268.95703125 252.04296875 1268.95703125 252.04296875 1206.95703125 436.04296875 c 4,5,6
 1163.95703125 566.04296875 1163.95703125 566.04296875 1012.34960938 571.8671875 c 4,7,8
 862.95703125 577.04296875 862.95703125 577.04296875 678.817382812 412.897460938 c 4,9,10
 562.95703125 309.04296875 562.95703125 309.04296875 469.564453125 190.76953125 c 5,0,-1
1327 312 m 24,11,12
 1322.00811177 188.201171875 1322.00811177 188.201171875 1591.00878906 188.201171875 c 2,13,-1
 1606.38085938 188.201171875 l 1,14,-1
 1606.38085938 -10.28125 l 1,15,-1
 1588.90332031 -10.28125 l 2,16,17
 1334 -10 1334 -10 1262.27734375 144.23828125 c 1,18,19
 1154.82173299 -10.2563038632 1154.82173299 -10.2563038632 775.395507812 -10.2705078125 c 2,20,-1
 488.442382812 -10.28125 l 2,21,-1
 248.571289062 -10.28125 l 1,22,23
 136 76 136 76 91.2646484375 188.830078125 c 1,24,-1
 370.583984375 188.831054688 l 1,25,26
 410 252 410 252 432.1640625 284.765625 c 1,27,-1
 432.163085938 341.508789062 l 2,28,29
 432 350 432 350 423.5 854 c 0,30,31
 415 1319 415 1319 385.090820312 1438.18164062 c 1,32,-1
 538.05078125 1535.25292969 l 1,33,-1
 537 432 l 1,34,35
 786 757 786 757 989.3828125 763.694335938 c 0,36,37
 1184 770 1184 770 1277.95703125 580.04296875 c 0,38,39
 1333 469 1333 469 1327 312 c 24,11,12
EndSplineSet
EndChar

StartChar: uniFEC3
Encoding: 215 65219 203
Width: 1275
VWidth: 2890
GlyphClass: 2
Flags: W
AnchorPoint: "Anchor-7" 494.398 -305.302 basechar 0
AnchorPoint: "Anchor-10" 242.389 1650.38 basechar 0
LayerCount: 2
Fore
SplineSet
269.231445312 189.7265625 m 1,0,-1
 503.0390625 189.7265625 l 2,1,2
 805.624023438 190 805.624023438 190 886.624023438 208 c 0,3,4
 1068.62402344 251 1068.62402344 251 1006.62402344 435 c 0,5,6
 963.624023438 565 963.624023438 565 812.016601562 570.82421875 c 0,7,8
 662.624023438 576 662.624023438 576 478.484375 411.854492188 c 0,9,10
 362.624023438 308 362.624023438 308 269.231445312 189.7265625 c 1,0,-1
336.666992188 430.95703125 m 1,11,12
 586 756 586 756 789.049804688 762.651367188 c 0,13,14
 982 769 982 769 1077.62402344 579 c 0,15,16
 1138 459 1138 459 1126.35644531 315.571289062 c 0,17,18
 1100.97691908 -11.2972643085 1100.97691908 -11.2972643085 612.0625 -11.3134765625 c 6,19,-1
 288.109375 -11.32421875 l 2,20,-1
 -10.76171875 -11.32421875 l 1,21,-1
 -11.068359375 187.787109375 l 1,22,-1
 170.250976562 187.788085938 l 1,23,24
 210 251 210 251 231.831054688 283.72265625 c 1,25,-1
 231.830078125 340.465820312 l 2,26,27
 231.868820203 357.459565236 231.868820203 357.459565236 223.166992188 852.95703125 c 0,28,29
 215 1318 215 1318 184.7578125 1437.13867188 c 1,30,-1
 337.717773438 1534.20996094 l 1,31,-1
 336.666992188 430.95703125 l 1,11,12
EndSplineSet
EndChar

StartChar: uniFEC4
Encoding: 216 65220 204
Width: 1378
VWidth: 2890
GlyphClass: 2
Flags: W
AnchorPoint: "Anchor-10" 235.026 1646.92 basechar 0
AnchorPoint: "Anchor-7" 598.162 -301.476 basechar 0
LayerCount: 2
Fore
SplineSet
251.245117188 190.768554688 m 1,0,-1
 485.052734375 190.768554688 l 2,1,2
 787.637695312 191.041992188 787.637695312 191.041992188 868.637695312 209.041992188 c 0,3,4
 1050.63769531 252.041992188 1050.63769531 252.041992188 988.637695312 436.041992188 c 0,5,6
 945.637695312 566.041992188 945.637695312 566.041992188 794.030273438 571.866210938 c 0,7,8
 644.637695312 577.041992188 644.637695312 577.041992188 460.498046875 412.896484375 c 0,9,10
 344.637695312 309.041992188 344.637695312 309.041992188 251.245117188 190.768554688 c 1,0,-1
1108.68066406 311.999023438 m 24,11,12
 1104.00755689 188.200195312 1104.00755689 188.200195312 1372.68945312 188.200195312 c 2,13,-1
 1388.06152344 188.200195312 l 1,14,-1
 1388.06152344 -10.2822265625 l 1,15,-1
 1370.58398438 -10.2822265625 l 2,16,17
 1116 -10 1116 -10 1043.95800781 144.237304688 c 1,18,19
 935.819483951 -10.2578994323 935.819483951 -10.2578994323 564.076171875 -10.271484375 c 2,20,-1
 270.123046875 -10.2822265625 l 2,21,-1
 -11.748046875 -10.2822265625 l 1,22,-1
 -11.0546875 188.829101562 l 1,23,-1
 152.264648438 188.830078125 l 1,24,25
 192 252 192 252 213.844726562 284.764648438 c 1,26,-1
 213.84375 341.5078125 l 2,27,28
 214 404 214 404 205.180664062 853.999023438 c 0,29,30
 197 1319 197 1319 166.771484375 1438.18066406 c 1,31,-1
 319.731445312 1535.25195312 l 1,32,-1
 318.680664062 431.999023438 l 1,33,34
 568 757 568 757 771.063476562 763.693359375 c 0,35,36
 965 770 965 770 1059.63769531 580.041992188 c 0,37,38
 1115 469 1115 469 1108.68066406 311.999023438 c 24,11,12
EndSplineSet
EndChar

StartChar: uniFECA
Encoding: 222 65226 210
Width: 1387
VWidth: 2886
GlyphClass: 2
Flags: W
AnchorPoint: "Anchor-10" 625.717 1396.22 basechar 0
AnchorPoint: "Anchor-7" 411.915 -947.448 basechar 0
LayerCount: 2
Fore
SplineSet
912.133789062 496.848632812 m 1,0,1
 952.973381354 188.201171875 952.973381354 188.201171875 1356.05664062 188.201171875 c 2,2,-1
 1397.02929688 188.201171875 l 1,3,-1
 1397.02929688 -10.28125 l 1,4,-1
 1364.66601562 -10.28125 l 2,5,6
 869.568009658 -9.99975438522 869.568009658 -9.99975438522 826.466796875 422.311523438 c 2,7,-1
 825.916015625 427.8359375 l 1,8,9
 678 397 678 397 546.283203125 330.625976562 c 0,10,11
 355 233 355 233 260.762695312 67.3515625 c 0,12,13
 201 -38 201 -38 201.277832031 -150.430175781 c 0,14,15
 201 -263 201 -263 260.75390625 -342.817382812 c 0,16,17
 413 -549 413 -549 863.4296875 -545.891601562 c 0,18,19
 1116 -544 1116 -544 1159.10351562 -539.117675781 c 0,20,21
 1202 -534 1202 -534 1204.84960938 -534.908203125 c 1,22,23
 1203 -538 1203 -538 1197.41015625 -544.34375 c 0,24,25
 1022 -721 1022 -721 875.688476562 -726.525390625 c 0,26,27
 811 -729 811 -729 764.655273438 -729 c 0,28,29
 411 -728 411 -728 258.380764078 -583.005394087 c 0,30,31
 105 -438 105 -438 105.310546875 -198.712890625 c 0,32,33
 105 -21 105 -21 166.630859375 115.953125 c 0,34,35
 328 477 328 477 759.3203125 561.327148438 c 1,36,37
 709 643 709 643 441.002929688 667.34375 c 1,38,39
 437 750 437 750 440.934570312 791.6953125 c 1,40,41
 557 870 557 870 847.416015625 869.258789062 c 0,42,43
 1133 869 1133 869 1132.99414062 732.990234375 c 4,44,45
 1133 625 1133 625 912.133789062 496.848632812 c 1,0,1
EndSplineSet
EndChar

StartChar: uniFECB
Encoding: 223 65227 211
Width: 1022
VWidth: 2886
GlyphClass: 2
Flags: W
AnchorPoint: "Anchor-10" 463.79 1267.12 basechar 0
AnchorPoint: "Anchor-7" 472.698 -339.235 basechar 0
LayerCount: 2
Fore
SplineSet
827.059570312 611.321289062 m 1,0,1
 731 662 731 662 612.592285156 673.073730469 c 128,-1,2
 494 684 494 684 409.319824219 655.365234375 c 0,3,4
 245 600 245 600 219.0703125 482.3984375 c 0,5,6
 200 396 200 396 399.451171875 258.720703125 c 0,7,8
 440 231 440 231 497.004882812 233.068359375 c 0,9,10
 620.291050229 237.009303661 620.291050229 237.009303661 754.913085938 266.596679688 c 2,11,-1
 930.131835938 305.106445312 l 1,12,-1
 837.400390625 108.60546875 l 1,13,14
 482.159607808 -10.28125 482.159607808 -10.28125 80.265625 -10.28125 c 2,15,-1
 -10.2470703125 -10.28125 l 5,16,-1
 -10.2470703125 188.201171875 l 5,17,-1
 248.9921875 188.201171875 l 1,18,19
 68 366 68 366 157.397460938 581.362304688 c 0,20,21
 238 777 238 777 426.860351562 841.87890625 c 0,22,23
 505 869 505 869 603.893554688 850.842773438 c 0,24,25
 789 817 789 817 827.059570312 611.321289062 c 1,0,1
EndSplineSet
EndChar

StartChar: uniFECC
Encoding: 224 65228 212
Width: 1017
VWidth: 2888
GlyphClass: 2
Flags: W
AnchorPoint: "Anchor-10" 523.627 1142.02 basechar 0
AnchorPoint: "Anchor-7" 470.755 -270.37 basechar 0
LayerCount: 2
Fore
SplineSet
556.140625 200.249023438 m 1,0,1
 368.749662092 -10.28125 368.749662092 -10.28125 80.2978515625 -10.28125 c 2,2,-1
 -10.4208984375 -10.28125 l 1,3,-1
 -10.4208984375 188.201171875 l 1,4,-1
 48.513671875 188.201171875 l 2,5,6
 272 188 272 188 478.782226562 307.051757812 c 5,7,8
 393 443 393 443 169.575195312 464.733398438 c 5,9,10
 167 548 167 548 169.52734375 587.15234375 c 5,11,12
 279 661 279 661 554.770507812 660.875 c 4,13,14
 826 661 826 661 825.935546875 531.971679688 c 4,15,16
 826 414 826 414 637.2734375 305.767578125 c 5,17,18
 808.706654793 188.201171875 808.706654793 188.201171875 1003.3671875 188.201171875 c 2,19,-1
 1027.54980469 188.201171875 l 1,20,-1
 1027.54980469 -10.28125 l 1,21,-1
 987.897460938 -10.28125 l 2,22,23
 744 -10 744 -10 556.140625 200.249023438 c 1,0,1
EndSplineSet
EndChar

StartChar: uniFEDA
Encoding: 238 65242 226
Width: 2210
VWidth: 2860
GlyphClass: 2
Flags: W
AnchorPoint: "Anchor-10" 562.398 1679.2 basechar 0
AnchorPoint: "Anchor-7" 722.787 -387.893 basechar 0
LayerCount: 2
Fore
SplineSet
2188.37207031 -10.380859375 m 2,0,1
 1971.17905461 -10.380859375 1971.17905461 -10.380859375 1839.08496094 270.590820312 c 1,2,3
 1772 188 1772 188 1711.08231456 143.755359698 c 0,4,5
 1574 45 1574 45 1357.17695448 19.3075041419 c 0,6,7
 1140 -6 1140 -6 880.935546875 -8.5654296875 c 0,8,9
 448 -13 448 -13 306.209960938 60.69140625 c 0,10,11
 86 175 86 175 91.0126953125 444.26953125 c 0,12,13
 94 614 94 614 136.543945312 714.764648438 c 0,14,15
 163 777 163 777 192.473632812 764.041015625 c 0,16,17
 205 759 205 759 204.497784504 743.706592724 c 0,18,19
 204 729 204 729 189.876955797 654.807804522 c 0,20,21
 175 581 175 581 177.829101562 503.678710938 c 0,22,23
 187 217 187 217 618.756835938 195.015625 c 0,24,25
 761 188 761 188 1008.85498047 190.340820312 c 0,26,27
 1256 193 1256 193 1339.41601562 207.23828125 c 0,28,29
 1752 278 1752 278 1773.77539062 497.288085938 c 0,30,31
 1793 695 1793 695 1780 1003 c 128,-1,32
 1767 1311 1767 1311 1747.35546875 1439.53320312 c 1,33,-1
 1905.1875 1539.47753906 l 1,34,-1
 1905.1875 547.84765625 l 2,35,36
 1904.99981323 189.643554688 1904.99981323 189.643554688 2172.6171875 189.643554688 c 2,37,-1
 2219.29003906 189.643554688 l 1,38,-1
 2219.29003906 -10.380859375 l 1,39,-1
 2188.37207031 -10.380859375 l 2,0,1
699.508789062 769.055664062 m 1,40,41
 898.480742353 742.885516649 898.480742353 742.885516649 1008.46009774 785.960336449 c 128,-1,42
 1118.43945312 829.03515625 1118.43945312 829.03515625 1118.4609375 904.168945312 c 0,43,44
 1118.43955307 990.138207722 1118.43955307 990.138207722 983.869140625 1010.17871094 c 0,45,46
 824.77734375 1034.38964844 824.77734375 1034.38964844 828.07421875 1180.91210938 c 0,47,48
 830.020782532 1281.87453306 830.020782532 1281.87453306 929.333145171 1332.31763763 c 128,-1,49
 1028.64550781 1382.76074219 1028.64550781 1382.76074219 1174.12695312 1392.89355469 c 1,50,-1
 1174.12695312 1328.26953125 l 1,51,52
 1006.58678288 1314.77322351 1006.58678288 1314.77322351 930.616210938 1248.61035156 c 0,53,54
 896.760742825 1218.093786 896.760742825 1218.093786 896.751953125 1177.30957031 c 0,55,56
 896.759765625 1078.71875 896.759765625 1078.71875 1009.36604097 1062.30811813 c 128,-1,57
 1121.97231632 1045.89748627 1121.97231632 1045.89748627 1154.61359957 1015.84083298 c 128,-1,58
 1187.25488281 985.784179688 1187.25488281 985.784179688 1186.64550781 933.077148438 c 0,59,60
 1187.265625 805.138671875 1187.265625 805.138671875 1057.69580078 732.15625 c 128,-1,61
 928.125976562 659.173828125 928.125976562 659.173828125 699.508789062 695.650390625 c 1,62,-1
 699.508789062 769.055664062 l 1,40,41
EndSplineSet
EndChar

StartChar: uniFEDB
Encoding: 239 65243 227
Width: 899
VWidth: 2861
GlyphClass: 2
Flags: W
AnchorPoint: "Anchor-10" 245.19 1544.62 basechar 0
AnchorPoint: "Anchor-7" 376.162 -300.231 basechar 0
LayerCount: 2
Fore
SplineSet
103.899414062 188.201171875 m 4,0,1
 526 188 526 188 525.674804688 372.6328125 c 4,2,3
 526 494 526 494 344.837890625 686.291992188 c 4,4,5
 168 875 168 875 57.3359375 922.236328125 c 5,6,7
 54 961 54 961 54.1748046875 994.438476562 c 4,8,9
 53.9999897543 1190.01146229 53.9999897543 1190.01146229 173.997070312 1241.63476562 c 6,10,-1
 855.383789062 1534.77050781 l 5,11,12
 819 1366 819 1366 778.225585938 1284.87988281 c 5,13,-1
 162.362304688 1081.55957031 l 5,14,15
 428 869 428 869 537.666992188 685.453125 c 4,16,17
 635 522 635 522 635.333984375 373.022460938 c 4,18,19
 635 230 635 230 565.202148438 143.956054688 c 4,20,21
 439.771278211 -10.28125 439.771278211 -10.28125 85.21875 -10.28125 c 6,22,-1
 -10.009765625 -10.28125 l 5,23,-1
 -10.009765625 188.201171875 l 5,24,-1
 102.91015625 188.201171875 l 6,25,26
 103 188 103 188 103.899414062 188.201171875 c 4,0,1
EndSplineSet
EndChar

StartChar: uniFEDC
Encoding: 240 65244 228
Width: 1167
VWidth: 2861
GlyphClass: 2
Flags: W
AnchorPoint: "Anchor-10" 247.615 1569.57 basechar 0
AnchorPoint: "Anchor-7" 343.151 -296.291 basechar 0
LayerCount: 2
Fore
SplineSet
1157.23828125 -10.28125 m 6,0,1
 879.184218489 -10.28125 879.184218489 -10.28125 627.053710938 374.651367188 c 5,2,3
 624 225 624 225 554.48828125 135.885742188 c 4,4,5
 438.777352614 -10.28125 438.777352614 -10.28125 77.3876953125 -10.28125 c 6,6,-1
 -10.5302734375 -10.28125 l 1,7,-1
 -10.5302734375 188.201171875 l 1,8,-1
 107.91796875 188.201171875 l 6,9,10
 282 188 282 188 382.676757812 218.739257812 c 4,11,12
 514 258 514 258 528.609375 359.435546875 c 4,13,14
 545 476 545 476 354 686 c 4,15,16
 190 866 190 866 58.328125 923.907226562 c 5,17,18
 36.0291078084 1179.66614754 36.0291078084 1179.66614754 179.043945312 1241.33105469 c 6,19,-1
 861.401367188 1535.54882812 l 5,20,21
 824 1366 824 1366 784.291015625 1285.83105469 c 5,22,-1
 167.364257812 1081.12597656 l 5,23,24
 303 972 303 972 434 826 c 4,25,26
 508 744 508 744 630.409179688 553.751953125 c 4,27,28
 865.870419702 188.201171875 865.870419702 188.201171875 1156.91015625 188.201171875 c 6,29,-1
 1177.0546875 188.201171875 l 5,30,-1
 1177.0546875 -10.28125 l 5,31,-1
 1157.23828125 -10.28125 l 6,0,1
EndSplineSet
EndChar

StartChar: uniFEDE
Encoding: 242 65246 230
Width: 1454
VWidth: 2890
GlyphClass: 2
Flags: W
AnchorPoint: "Anchor-10" 557.519 1179.33 basechar 0
AnchorPoint: "Anchor-7" 371.985 -859.46 basechar 0
LayerCount: 2
Fore
SplineSet
1203.11425781 95.1943359375 m 1,0,1
 1201 43 1201 43 1196.6875 11.046875 c 0,2,3
 1116 -587 1116 -587 618.461914062 -593.610351562 c 0,4,5
 324 -598 324 -598 192.287109375 -412.2265625 c 0,6,7
 35 -190 35 -190 147 181 c 0,8,9
 170 259 170 259 191.059570312 290.641601562 c 0,10,11
 222 338 222 338 246.5 322 c 0,12,13
 272 306 272 306 231 177 c 0,14,15
 162 -43 162 -43 245.98046875 -207.971679688 c 0,16,17
 345 -403 345 -403 653.147460938 -392.490234375 c 0,18,19
 1057 -378 1057 -378 1087.45898438 27.857421875 c 0,20,21
 1102 210 1102 210 1088.34179688 988.99609375 c 0,22,23
 1084 1241 1084 1241 1056.09277344 1437.58984375 c 1,24,-1
 1210.734375 1533.23046875 l 1,25,-1
 1210.734375 476.048828125 l 2,26,27
 1210.734375 189.000168194 1210.734375 189.000168194 1434.62792969 188.858398438 c 2,28,-1
 1464.80175781 188.858398438 l 1,29,-1
 1464.80175781 -11.16796875 l 1,30,-1
 1444.50292969 -11.16796875 l 2,31,32
 1313.17380749 -11.16796875 1313.17380749 -11.16796875 1203.11425781 95.1943359375 c 1,0,1
EndSplineSet
EndChar

StartChar: uniFEDF
Encoding: 243 65247 231
Width: 509
VWidth: 2860
GlyphClass: 2
Flags: W
AnchorPoint: "Anchor-10" 252.615 1681.97 basechar 0
AnchorPoint: "Anchor-7" 187.817 -343.54 basechar 0
LayerCount: 2
Fore
SplineSet
261.52734375 560.229492188 m 0,0,1
 262 1215 262 1215 223.603515625 1433.47851562 c 1,2,-1
 378.709960938 1534.3125 l 1,3,-1
 378.709960938 564.701171875 l 2,4,5
 379 218 379 218 293.551757812 102.333007812 c 4,6,7
 210.756014468 -11.3349609375 210.756014468 -11.3349609375 8.40625 -11.3349609375 c 2,8,-1
 -13.4306640625 -11.3349609375 l 1,9,-1
 -13.4306640625 188.825195312 l 1,10,-1
 12.8046875 188.826171875 l 2,11,12
 167 189 167 189 214.517670702 258.510084978 c 128,-1,13
 262 328 262 328 261.52734375 560.229492188 c 0,0,1
EndSplineSet
EndChar

StartChar: uniFEE0
Encoding: 244 65248 232
Width: 663
VWidth: 2860
GlyphClass: 2
Flags: W
AnchorPoint: "Anchor-10" 348.123 1667.19 basechar 0
AnchorPoint: "Anchor-7" 266.057 -288.534 basechar 0
LayerCount: 2
Fore
SplineSet
259.607421875 264.953125 m 4,0,1
 315 330 315 330 314.59765625 581.739257812 c 4,2,3
 313 1071 313 1071 273.451171875 1432.10449219 c 5,4,-1
 428.424804688 1535.10253906 l 5,5,-1
 428.424804688 515.612304688 l 6,6,7
 428 303 428 303 470.486328125 245.219726562 c 4,8,9
 511.854047132 188.201171875 511.854047132 188.201171875 641.110351562 188.201171875 c 2,10,-1
 669.040039062 188.201171875 l 1,11,-1
 669.040039062 -10.28125 l 1,12,-1
 633.034179688 -10.28125 l 2,13,14
 436 -10 436 -10 352.377929688 121.641601562 c 5,15,16
 234.749224088 -10.28125 234.749224088 -10.28125 43.6357421875 -10.28125 c 2,17,-1
 -6.16796875 -10.28125 l 1,18,-1
 -6.16796875 188.201171875 l 1,19,-1
 1.806640625 188.201171875 l 2,20,21
 194 188 194 188 259.607421875 264.953125 c 4,0,1
EndSplineSet
EndChar

StartChar: uniFEE2
Encoding: 246 65250 234
Width: 1184
VWidth: 2918
GlyphClass: 2
Flags: W
AnchorPoint: "Anchor-10" 406.436 1058.71 basechar 0
AnchorPoint: "Anchor-7" 137.92 -974.506 basechar 0
LayerCount: 2
Fore
SplineSet
711.416015625 -82.5205078125 m 0,0,1
 839 -91 839 -91 857.790039062 1.6181640625 c 0,2,3
 883 125 883 125 724.060546875 209.609375 c 0,4,5
 707 219 707 219 518.889648438 307.985351562 c 1,6,7
 511 249 511 249 520 151 c 128,-1,8
 529 53 529 53 576.88671875 -11.7900390625 c 0,9,10
 625 -76 625 -76 711.416015625 -82.5205078125 c 0,0,1
1173.96582031 -10.28125 m 2,11,12
 1033.28090824 -10.28125 1033.28090824 -10.28125 942.297851562 80.8125 c 1,13,14
 927 -144 927 -144 847.219726562 -216.384765625 c 0,15,16
 800 -259 800 -259 734 -262 c 128,-1,17
 668 -265 668 -265 613.328125 -242.28125 c 0,18,19
 402 -157 402 -157 428.087890625 215.010742188 c 1,20,21
 160.018285549 215.000000733 160.018285549 215.000000733 198.291015625 -119.466796875 c 2,22,-1
 250 -571.353515625 l 1,23,-1
 136.326171875 -726.022460938 l 2,24,25
 103 -766 103 -766 100 -743 c 0,26,27
 96.5116648787 -713.349151469 96.5116648787 -713.349151469 96.42578125 -703.328125 c 2,28,-1
 92.06640625 -194.669921875 l 2,29,30
 91 -71 91 -71 91.0888671875 -61.4296875 c 0,31,32
 92 303 92 303 335.295898438 360.571289062 c 0,33,34
 367 368 367 368 426.403320312 370.342773438 c 1,35,-1
 437.873046875 540.6640625 l 5,36,37
 1080.0947256 188.948123047 1080.0947256 188.948123047 1176.9609375 188.34765625 c 2,38,-1
 1194.29003906 188.240234375 l 1,39,-1
 1194.29003906 -10.28125 l 1,40,-1
 1173.96582031 -10.28125 l 2,11,12
EndSplineSet
EndChar

StartChar: uniFEE3
Encoding: 247 65251 235
Width: 942
VWidth: 2893
GlyphClass: 2
Flags: W
AnchorPoint: "Anchor-10" 472.191 1063.48 basechar 0
AnchorPoint: "Anchor-7" 456.248 -329.062 basechar 0
LayerCount: 2
Fore
SplineSet
237.026367188 121.891601562 m 1,0,1
 129.797872029 -11.2509765625 129.797872029 -11.2509765625 35.4501953125 -11.2509765625 c 2,2,-1
 -10.4951171875 -11.2509765625 l 1,3,-1
 -10.4951171875 188.862304688 l 1,4,-1
 43.6630859375 188.862304688 l 2,5,6
 136 189 136 189 211.751953125 301.1953125 c 0,7,8
 431 623 431 623 541.029296875 645.899414062 c 4,9,10
 584 655 584 655 620.3359375 644.78515625 c 0,11,12
 798 592 798 592 845.389648438 319.428710938 c 0,13,14
 850 293 850 293 850 245.5 c 0,15,16
 850 85 850 85 754.458984375 7.5693359375 c 0,17,18
 682 -50 682 -50 610.366210938 -49.5166015625 c 0,19,20
 473 -49 473 -49 237.026367188 121.891601562 c 1,0,1
346.936523438 275.08984375 m 1,21,22
 519.441232518 121.716796875 519.441232518 121.716796875 649.684570312 121.716796875 c 0,23,24
 684.415039062 121.716796875 684.415039062 121.716796875 712.719726562 150.022460938 c 128,-1,25
 740.998046875 178.298828125 740.998046875 178.298828125 740.998046875 223.596679688 c 128,-1,26
 740.998046875 268.89453125 740.998046875 268.89453125 720.743164062 315.361328125 c 0,27,28
 652.94140625 468.806640625 652.94140625 468.806640625 544.708984375 468.806640625 c 0,29,30
 468.444988398 468.806640625 468.444988398 468.806640625 346.936523438 275.08984375 c 1,21,22
EndSplineSet
EndChar

StartChar: uniFEE4
Encoding: 248 65252 236
Width: 1054
VWidth: 2893
GlyphClass: 2
Flags: W
AnchorPoint: "Anchor-10" 505.682 1124.87 basechar 0
AnchorPoint: "Anchor-7" 517.73 -322.55 basechar 0
LayerCount: 2
Fore
SplineSet
346.975585938 235.426757812 m 1,0,1
 534.638237999 66.896484375 534.638237999 66.896484375 654.350585938 66.896484375 c 0,2,3
 689.081054688 66.896484375 689.081054688 66.896484375 717.371483051 95.1869127384 c 128,-1,4
 745.661911414 123.477341102 745.661911414 123.477341102 745.662498676 172.959861957 c 128,-1,5
 745.663085938 222.442382812 745.663085938 222.442382812 725.270507812 260.830078125 c 0,6,7
 642.248046875 423.31640625 642.248046875 423.31640625 544.708984375 423.31640625 c 0,8,9
 462.611903379 423.31640625 462.611903379 423.31640625 346.975585938 235.426757812 c 1,0,1
1029.79882812 -10.8203125 m 2,10,11
 873.830251961 -10.8203125 873.830251961 -10.8203125 813.42578125 53.12109375 c 1,12,13
 761 -28 761 -28 736.680623325 -51.8996217905 c 0,14,15
 684 -105 684 -105 615.071289062 -104.336914062 c 0,16,17
 488 -104 488 -104 236.869140625 82.4208984375 c 1,18,19
 168.817668596 -11.2509765625 168.817668596 -11.2509765625 37.783203125 -11.2509765625 c 2,20,-1
 -10.4951171875 -11.2509765625 l 1,21,-1
 -10.4951171875 188.862304688 l 1,22,-1
 53.833984375 188.862304688 l 2,23,24
 163 189 163 189 211.764648438 261.557617188 c 0,25,26
 409.151413016 552.698306265 409.151413016 552.698306265 537.708984375 584.915039062 c 0,27,28
 561 591 561 591 598.0234375 587.966796875 c 4,29,30
 673 582 673 582 734.778320312 502.370117188 c 0,31,32
 795 424 795 424 850.28515625 274.272460938 c 0,33,34
 881.924089805 189.204101562 881.924089805 189.204101562 1021.2421875 189.204101562 c 2,35,-1
 1064.53320312 189.204101562 l 1,36,-1
 1064.53320312 -10.8203125 l 1,37,-1
 1029.79882812 -10.8203125 l 2,10,11
EndSplineSet
EndChar

StartChar: uniFEEA
Encoding: 254 65258 242
Width: 1014
VWidth: 2881
GlyphClass: 2
Flags: W
AnchorPoint: "Anchor-10" 538.503 1271.75 basechar 0
AnchorPoint: "Anchor-7" 383.239 -267.87 basechar 0
LayerCount: 2
Fore
SplineSet
176.484375 416.469726562 m 0,0,1
 177 357 177 357 253.071289062 337.59765625 c 0,2,3
 319 321 319 321 435.349609375 323.279296875 c 0,4,5
 492 324 492 324 652.893554688 330.641601562 c 1,6,-1
 607.436523438 613.189453125 l 1,7,8
 176 485 176 485 176.484375 416.469726562 c 0,0,1
995.509765625 -10.28125 m 2,9,10
 787.132997141 -10.28125 787.132997141 -10.28125 702.51171875 168.66796875 c 1,11,12
 636 154 636 154 425.8671875 155.88671875 c 0,13,14
 216 158 216 158 154.486328125 225.444335938 c 0,15,16
 102 284 102 284 101.264648438 371.13671875 c 0,17,18
 101 445 101 445 149.1640625 509.706054688 c 0,19,20
 265 664 265 664 583.26953125 758.190429688 c 1,21,-1
 570.2890625 859.891601562 l 1,22,-1
 662.569335938 967.220703125 l 1,23,-1
 737.938476562 418.830078125 l 2,24,25
 769.972057901 188.201171875 769.972057901 188.201171875 995.389648438 188.201171875 c 2,26,-1
 1020.19628906 188.201171875 l 1,27,-1
 1020.19628906 -10.28125 l 1,28,-1
 995.509765625 -10.28125 l 2,9,10
EndSplineSet
EndChar

StartChar: uniFEEB
Encoding: 255 65259 243
Width: 1151
VWidth: 2886
GlyphClass: 2
Flags: W
AnchorPoint: "Anchor-10" 451.392 1377.42 basechar 0
AnchorPoint: "Anchor-7" 450.633 -260.653 basechar 0
LayerCount: 2
Fore
SplineSet
691.31640625 573.28515625 m 5,0,1
 713 379 713 379 547.2578125 252.303710938 c 5,2,3
 839 113 839 113 897.5 166.5 c 0,4,5
 952 216 952 216 951.159179688 281.890625 c 0,6,7
 950 406 950 406 691.31640625 573.28515625 c 5,0,1
410.25 124.311523438 m 1,8,9
 147.27738725 -10.857421875 147.27738725 -10.857421875 18.8037109375 -10.857421875 c 2,10,-1
 -6.01953125 -10.857421875 l 1,11,-1
 -6.01953125 189.301757812 l 1,12,-1
 25.21875 189.301757812 l 2,13,14
 201 189 201 189 286.495117188 216.911132812 c 1,15,16
 208 249 208 249 173.05859375 333.430175781 c 128,-1,17
 138 418 138 418 172.506835938 520.564453125 c 0,18,19
 226 678 226 678 422.345703125 769.736328125 c 1,20,-1
 303.381835938 835.950195312 l 1,21,-1
 390.590820312 997.991210938 l 1,22,-1
 704.189453125 800.426757812 l 2,23,24
 1064 574 1064 574 1059.98144531 305.915039062 c 0,25,26
 1059 247 1059 247 1030 184 c 0,27,28
 956 29 956 29 851.029296875 21.400390625 c 0,29,30
 638 5 638 5 410.25 124.311523438 c 1,8,9
444.725585938 295.807617188 m 1,31,32
 547 364 547 364 598.947265625 502.986328125 c 0,33,34
 642 619 642 619 557.666992188 651.9375 c 0,35,36
 447 695 447 695 343.877929688 577.799804688 c 0,37,38
 264 486 264 486 273 422 c 0,39,40
 286 331 286 331 444.725585938 295.807617188 c 1,31,32
EndSplineSet
EndChar

StartChar: uniFEEC
Encoding: 256 65260 244
Width: 973
VWidth: 2907
GlyphClass: 2
Flags: W
AnchorPoint: "Anchor-7" 377.385 -808.709 basechar 0
AnchorPoint: "Anchor-10" 339.781 1371.65 basechar 0
LayerCount: 2
Fore
SplineSet
292.764648438 188.587890625 m 1,0,1
 537 193 537 193 541 389 c 0,2,3
 544 558 544 558 453.844726562 653.557617188 c 0,4,5
 398 712 398 712 376.868164062 680.29296875 c 0,6,7
 294 551 294 551 285 313 c 0,8,9
 283 260 283 260 292.764648438 188.587890625 c 1,0,1
202.044921875 184.612304688 m 1,10,11
 194 286 194 286 194.290039062 361.33203125 c 0,12,13
 194 689 194 689 350.719726562 894.31640625 c 0,14,15
 392 948 392 948 452.0546875 902.528320312 c 0,16,17
 671 738 671 738 653 373 c 0,18,19
 638 72 638 72 445.383789062 7.888671875 c 0,20,21
 392 -10 392 -10 316.490234375 -11.5537109375 c 1,22,23
 364 -284 364 -284 537.634765625 -443.389648438 c 1,24,25
 565 6 565 6 840.94921875 151.44140625 c 0,26,27
 909 187 909 187 983.467773438 188.104492188 c 1,28,-1
 983.467773438 -10.517578125 l 1,29,30
 881 -15 881 -15 806.291015625 -47.96484375 c 0,31,32
 563 -155 563 -155 705.6640625 -564.577148438 c 1,33,-1
 581.248046875 -672.778320312 l 1,34,35
 267 -441 267 -441 218.443359375 -11.3515625 c 1,36,-1
 -13.46484375 -10.302734375 l 1,37,-1
 -13.46484375 188.122070312 l 1,38,-1
 202.044921875 184.612304688 l 1,10,11
EndSplineSet
EndChar

StartChar: uniFEEE
Encoding: 258 65262 246
Width: 908
VWidth: 2912
GlyphClass: 2
Flags: W
AnchorPoint: "Anchor-10" 257.729 1399.86 basechar 0
AnchorPoint: "Anchor-7" 497.397 -859.221 basechar 0
LayerCount: 2
Fore
SplineSet
666.125 -10.8603515625 m 1,0,1
 440 -10.5 l 0,2,3
 259 -5 259 -5 207 101 c 0,4,5
 162 194 162 194 179.41015625 306.745117188 c 0,6,7
 208 491 208 491 319 595 c 4,8,9
 390 662 390 662 470.5 662.5 c 4,10,11
 612 663 612 663 685 538.5 c 132,-1,12
 758 414 758 414 773.6640625 188.201171875 c 1,13,-1
 918.122070312 188.201171875 l 1,14,-1
 918.122070312 -10.28125 l 1,15,-1
 771.409179688 -10.28125 l 1,16,17
 709 -358 709 -358 484.9296875 -527.13671875 c 0,18,19
 437 -563 437 -563 376.770507812 -564.205078125 c 0,20,21
 177 -567 177 -567 35.4404296875 -508.893554688 c 0,22,23
 21 -503 21 -503 29 -495 c 0,24,25
 39 -485 39 -485 74.802734375 -472.6328125 c 0,26,27
 564.772555262 -312.074531399 564.772555262 -312.074531399 663.653320312 -18.2060546875 c 2,28,-1
 666.125 -10.8603515625 l 1,0,1
656.541015625 278.892578125 m 0,29,30
 613 464 613 464 470.166015625 463.684570312 c 4,31,32
 322 464 322 464 282.434570312 314.244140625 c 0,33,34
 251 195 251 195 372.856445312 182.8671875 c 0,35,36
 497 170 497 170 665.331054688 186.419921875 c 1,37,38
 666 235 666 235 656.541015625 278.892578125 c 0,29,30
EndSplineSet
EndChar

StartChar: uniFEF0
Encoding: 260 65264 248
Width: 1441
VWidth: 2929
GlyphClass: 2
Flags: W
AnchorPoint: "Anchor-10" 708.222 613.188 basechar 0
AnchorPoint: "Anchor-7" 250.022 -820.629 basechar 0
LayerCount: 2
Fore
SplineSet
212.499023438 208.028320312 m 0,0,1
 243 267 243 267 274.586914062 305.147460938 c 0,2,3
 307 345 307 345 325.651367188 321.75390625 c 0,4,5
 343 300 343 300 309 224 c 0,6,7
 146 -144 146 -144 306.1875 -333.173828125 c 0,8,9
 427 -476 427 -476 745.599609375 -476.623046875 c 0,10,11
 1047 -477 1047 -477 1191.15039062 -371.624023438 c 0,12,13
 1244 -333 1244 -333 1249.56640625 -301.016601562 c 0,14,15
 1256 -268 1256 -268 1227.66113281 -267.485351562 c 0,16,17
 959 -255 959 -255 911.412109375 -228.67578125 c 0,18,19
 788 -159 788 -159 880.3203125 19.701171875 c 0,20,21
 926 108 926 108 1002.19042969 148.100585938 c 128,-1,22
 1078.38223001 188.201171875 1078.38223001 188.201171875 1345.95898438 188.201171875 c 2,23,-1
 1451.75390625 188.201171875 l 1,24,-1
 1451.75390625 -10.28125 l 1,25,-1
 1365.19726562 -10.28125 l 2,26,27
 1232 -10 1232 -10 1044.89355469 17.439453125 c 0,28,29
 967 29 967 29 949.19140625 -75.3505859375 c 0,30,31
 945 -100 945 -100 969.91796875 -100.098632812 c 0,32,33
 1134 -103 1134 -103 1237 -113.5 c 0,34,35
 1372 -127 1372 -127 1343.08789062 -278.276367188 c 0,36,37
 1303 -486 1303 -486 1066.47460938 -594.197265625 c 0,38,39
 908 -667 908 -667 687.100585938 -666.834960938 c 0,40,41
 196 -667 196 -667 110.458007812 -321.462890625 c 0,42,43
 97 -267 97 -267 96.87109375 -204.512695312 c 0,44,45
 97 -15 97 -15 212.499023438 208.028320312 c 0,0,1
EndSplineSet
EndChar

StartChar: uniFEFB
Encoding: 271 65275 259
Width: 1297
VWidth: 2860
GlyphClass: 3
Flags: W
AnchorPoint: "Anchor-9" 1032.12 1619.85 baselig 0
AnchorPoint: "Anchor-6" 1034.63 -297.708 baselig 0
AnchorPoint: "Anchor-6" 402.167 -302.353 baselig 1
AnchorPoint: "Anchor-9" 125.632 1531.93 baselig 1
LayerCount: 2
Fore
SplineSet
739 205 m 1,0,1
 880 263 880 263 948.213867188 381.549804688 c 0,2,3
 1013 493 1013 493 1031.81835938 637.366210938 c 0,4,5
 1047 760 1047 760 1041.26171875 1057.72460938 c 4,6,7
 1036 1321 1036 1321 1011.29199219 1441.59667969 c 5,8,-1
 1166.79492188 1535.21875 l 5,9,-1
 1166.79492188 883.64453125 l 2,10,11
 1166.79492188 423.774890988 1166.79492188 423.774890988 952 188 c 0,12,13
 763 -20 763 -20 469.241210938 -11.9189453125 c 2,14,-1
 444.194335938 -11.1904296875 l 1,15,16
 295 41 295 41 183.395507812 175.4765625 c 1,17,18
 502 129 502 129 678.995117188 179.33203125 c 1,19,20
 434 841 434 841 90.986328125 1158.20800781 c 5,21,-1
 154.000976562 1356.58496094 l 5,22,23
 565 900 565 900 739 205 c 1,0,1
EndSplineSet
LCarets2: 1 0
Ligature2: "'rlig' Required Ligatures in Arabic lookup 16 subtable" uniFEDF uniFE8E
EndChar

StartChar: uniFEFC
Encoding: 272 65276 260
Width: 1455
VWidth: 2860
GlyphClass: 3
Flags: W
AnchorPoint: "Anchor-9" 1094.93 1619.11 baselig 0
AnchorPoint: "Anchor-6" 1048.68 -304.476 baselig 0
AnchorPoint: "Anchor-6" 494.409 -314.002 baselig 1
AnchorPoint: "Anchor-9" 102.803 1483.7 baselig 1
LayerCount: 2
Fore
SplineSet
678.995117188 179.33203125 m 1,0,1
 434 841 434 841 90.986328125 1158.20800781 c 1,2,-1
 154.000976562 1356.58496094 l 1,3,4
 565 900 565 900 739 205 c 1,5,6
 849 253 849 253 927.213867188 390.549804688 c 0,7,8
 1012 540 1012 540 1026.81835938 665.366210938 c 4,9,10
 1045 815 1045 815 1041.26171875 1057.72460938 c 0,11,12
 1037 1315 1037 1315 1011.29199219 1441.59667969 c 1,13,-1
 1166.79492188 1535.21875 l 1,14,-1
 1166.79492188 744.64453125 l 2,15,16
 1166.79492188 187.999914013 1166.79492188 187.999914013 1427.859375 188.109375 c 2,17,-1
 1465.32128906 188.109375 l 1,18,-1
 1465.32128906 -10.8974609375 l 1,19,-1
 1427.51660156 -10.16796875 l 2,20,21
 1135.94602939 -4.54172320816 1135.94602939 -4.54172320816 1079 479 c 1,22,23
 1026 307 1026 307 916.739257812 186.54296875 c 0,24,25
 731 -19 731 -19 469.241210938 -10.9189453125 c 2,26,-1
 444.194335938 -10.1904296875 l 1,27,28
 293 42 293 42 182.395507812 175.4765625 c 1,29,30
 541 128 541 128 678.995117188 179.33203125 c 1,0,1
EndSplineSet
LCarets2: 1 0
Ligature2: "'rlig' Required Ligatures in Arabic lookup 16 subtable" uniFEE0 uniFE8E
EndChar

StartChar: arabic_dot
Encoding: 273 -1 261
Width: 182
VWidth: 2502
GlyphClass: 2
Flags: W
LayerCount: 2
Fore
SplineSet
105.810546875 202.555664062 m 6,0,-1
 202.166992188 106.19921875 l 6,1,2
 211.287109375 97.0791015625 211.287109375 97.0791015625 202.780273438 88.6533203125 c 6,3,-1
 101.858398438 -12.2685546875 l 6,4,5
 90.9561394324 -22.747788908 90.9561394324 -22.747788908 80.7421875 -12.38671875 c 6,6,-1
 -19.8271484375 88.1826171875 l 6,7,8
 -29.0208954478 96.8628936147 -29.0208954478 96.8628936147 -16.01171875 109.872070312 c 6,9,-1
 77.7255859375 203.607421875 l 6,10,11
 91.1806640625 217.186523438 91.1806640625 217.186523438 105.810546875 202.555664062 c 6,0,-1
EndSplineSet
EndChar

StartChar: arabic_2dots
Encoding: 274 -1 262
Width: 534
VWidth: 2502
GlyphClass: 2
Flags: W
LayerCount: 2
Fore
SplineSet
140.755859375 196.01171875 m 2,0,-1
 234.012695312 102.755859375 l 2,1,2
 242.711914062 94.056640625 242.711914062 94.056640625 234.607421875 85.9501953125 c 2,3,-1
 137.192382812 -11.46484375 l 2,4,5
 126.520507812 -22.13671875 126.520507812 -22.13671875 116.440429688 -12.0595703125 c 2,6,-1
 18.6162109375 85.767578125 l 2,7,8
 10.7119140625 94.0703125 10.7119140625 94.0703125 22.0986328125 105.829101562 c 2,9,-1
 113.470703125 197.201171875 l 2,10,11
 126.51953125 210.248046875 126.51953125 210.248046875 140.755859375 196.01171875 c 2,0,-1
422.307617188 196.013671875 m 2,12,-1
 515.563476562 102.755859375 l 2,13,14
 524.302734375 94.0166015625 524.302734375 94.0166015625 516.158203125 85.9501953125 c 2,15,-1
 418.743164062 -11.46484375 l 2,16,17
 408.025390625 -22.181640625 408.025390625 -22.181640625 397.9921875 -12.0595703125 c 2,18,-1
 300.439453125 85.494140625 l 2,19,20
 291.631835938 93.8095703125 291.631835938 93.8095703125 304.142578125 106.3203125 c 2,21,-1
 395.067382812 197.245117188 l 2,22,23
 407.878663011 210.440809718 407.878663011 210.440809718 422.307617188 196.013671875 c 2,12,-1
EndSplineSet
EndChar

StartChar: arabic_3dots
Encoding: 275 -1 263
Width: 528
VWidth: 2502
GlyphClass: 2
Flags: W
LayerCount: 2
Fore
SplineSet
276.547851562 402.452148438 m 2,0,-1
 368.634765625 310.366210938 l 2,1,2
 377.205037125 301.795939437 377.205037125 301.795939437 369.216796875 294.05078125 c 2,3,-1
 273.809570312 198.645507812 l 2,4,5
 263.388671875 188.223632812 263.388671875 188.223632812 253.6328125 198.063476562 c 2,6,-1
 158.090820312 293.606445312 l 1,7,8
 148.962666305 301.100522928 148.962666305 301.100522928 161.716796875 313.856445312 c 2,9,-1
 250.727539062 402.861328125 l 2,10,11
 263.258905805 415.392694868 263.258905805 415.392694868 276.547851562 402.452148438 c 2,0,-1
418.224609375 177.7890625 m 2,12,-1
 509.514648438 86.5009765625 l 2,13,14
 517.961914062 78.052734375 517.961914062 78.052734375 510.095703125 70.1845703125 c 2,15,-1
 414.690429688 -25.2197265625 l 2,16,17
 404.311523438 -35.5986328125 404.311523438 -35.5986328125 394.512695312 -25.802734375 c 2,18,-1
 299.108398438 69.603515625 l 2,19,20
 290.66015625 78.052734375 290.66015625 78.052734375 302.59765625 89.9892578125 c 2,21,-1
 391.603515625 178.99609375 l 2,22,23
 403.971679688 191.362304688 403.971679688 191.362304688 418.224609375 177.7890625 c 2,12,-1
137.780273438 177.833007812 m 2,24,-1
 229.114257812 86.5009765625 l 2,25,26
 237.561523438 78.052734375 237.561523438 78.052734375 229.696289062 70.1845703125 c 2,27,-1
 134.291015625 -25.2197265625 l 2,28,29
 123.83886688 -35.6701028554 123.83886688 -35.6701028554 114.11328125 -25.802734375 c 2,30,-1
 18.3056640625 70.0048828125 l 2,31,32
 10.458984375 78.2490234375 10.458984375 78.2490234375 22.1982421875 89.9892578125 c 2,33,-1
 111.204101562 178.997070312 l 2,34,35
 123.911132812 191.703125 123.911132812 191.703125 137.780273438 177.833007812 c 2,24,-1
EndSplineSet
EndChar

StartChar: arabic_3dots_a
Encoding: 276 -1 264
Width: 527
VWidth: 2502
GlyphClass: 2
Flags: W
LayerCount: 2
Fore
SplineSet
275.9375 -23.1298828125 m 2,0,-1
 367.583007812 -114.776367188 l 2,1,2
 376.069335938 -123.262695312 376.069335938 -123.262695312 368.166015625 -131.090820312 c 2,3,-1
 272.756835938 -226.497070312 l 2,4,5
 262.336914062 -236.920898438 262.336914062 -236.920898438 252.581054688 -227.078125 c 2,6,-1
 157.038085938 -131.536132812 l 2,7,8
 148.490234375 -123.462890625 148.490234375 -123.462890625 160.666015625 -111.28515625 c 2,9,-1
 249.909179688 -22.0439453125 l 2,10,11
 262.51953125 -10.0654296875 262.51953125 -10.0654296875 275.9375 -23.1298828125 c 2,0,-1
416.854492188 201.265625 m 2,12,-1
 508.352539062 109.76953125 l 2,13,14
 516.798828125 101.323242188 516.798828125 101.323242188 508.93359375 93.455078125 c 2,15,-1
 413.528320312 -1.951171875 l 2,16,17
 403.148245979 -12.3312462082 403.148245979 -12.3312462082 393.346679688 -2.533203125 c 2,18,-1
 297.884765625 92.9326171875 l 2,19,20
 288.959877874 100.784246548 288.959877874 100.784246548 301.432617188 113.258789062 c 2,21,-1
 390.459960938 202.28515625 l 2,22,23
 403.143876812 214.972692997 403.143876812 214.972692997 416.854492188 201.265625 c 2,12,-1
137.782226562 201.102539062 m 2,24,-1
 229.116210938 109.768554688 l 2,25,26
 237.25894072 101.625824905 237.25894072 101.625824905 229.629882812 93.3876953125 c 2,27,-1
 134.291015625 -1.951171875 l 2,28,29
 123.911132812 -12.330078125 123.911132812 -12.330078125 114.11328125 -2.533203125 c 2,30,-1
 18.265625 93.3154296875 l 2,31,32
 10.5849609375 101.346679688 10.5849609375 101.346679688 21.765625 112.829101562 c 2,33,-1
 111.221679688 202.28515625 l 2,34,35
 123.911132812 214.97265625 123.911132812 214.97265625 137.782226562 201.102539062 c 2,24,-1
EndSplineSet
EndChar

StartChar: uni066E.fina
Encoding: 277 -1 265
Width: 2041
VWidth: 2890
GlyphClass: 2
Flags: W
AnchorPoint: "Anchor-10" 836.528 1380.78 basechar 0
AnchorPoint: "Anchor-7" 783.154 -292.702 basechar 0
LayerCount: 2
Fore
SplineSet
2051.94824219 188.201171875 m 1,0,-1
 2051.94824219 -10.310546875 l 1,1,-1
 2019.02441406 -10.48046875 l 2,2,3
 1702.47267767 -11.9977344064 1702.47267767 -11.9977344064 1687.18261719 274.408203125 c 2,4,-1
 1686.57519531 285.786132812 l 1,5,6
 1549 145 1549 145 1359.93854003 70.3656884517 c 0,7,8
 1171 -4 1171 -4 810.602539062 -10.7963867188 c 0,9,10
 450 -17 450 -17 306.228515625 59.134765625 c 0,11,12
 93 171 93 171 91.013671875 444.005859375 c 0,13,14
 90 578 90 578 130 682 c 0,15,16
 153 742 153 742 184.532226562 727.696289062 c 0,17,18
 200 721 200 721 195.142578125 694.287109375 c 0,19,20
 188 657 188 657 181 619 c 0,21,22
 173 569 173 569 174.829101562 503.297851562 c 0,23,24
 184 215 184 215 618.75390625 193.46875 c 0,25,26
 709 189 709 189 872.749023438 188.901367188 c 0,27,28
 1239 189 1239 189 1483.07324219 301.625976562 c 0,29,30
 1606 358 1606 358 1716.25097656 512.725585938 c 0,31,32
 1778 599 1778 599 1799.22753906 560.78515625 c 0,33,34
 1809 544 1809 544 1785.76359189 477.097134748 c 0,35,36
 1687.06872589 188.201171875 1687.06872589 188.201171875 2013.00390625 188.201171875 c 2,37,-1
 2051.94824219 188.201171875 l 1,0,-1
EndSplineSet
EndChar

StartChar: uni06A1.fina
Encoding: 280 -1 268
Width: 2047
VWidth: 2887
GlyphClass: 2
Flags: W
AnchorPoint: "Anchor-10" 594.365 1519.74 basechar 0
AnchorPoint: "Anchor-7" 738.83 -358.293 basechar 0
LayerCount: 2
Fore
SplineSet
174.829101562 503.297851562 m 28,0,1
 191 213 191 213 618.7734375 193.467773438 c 0,2,3
 761 187 761 187 948.051757812 188.017578125 c 1,4,-1
 1016.53613281 188.018554688 l 2,5,6
 1349 188 1349 188 1418.91992188 215.685546875 c 1,7,8
 1260 289 1260 289 1231.91503906 431.046875 c 0,9,10
 1206 566 1206 566 1277 685.88671875 c 0,11,12
 1376 851 1376 851 1528.03222656 851.690429688 c 0,13,14
 1638 852 1638 852 1729 747.5 c 128,-1,15
 1820 643 1820 643 1827.66796875 565.92578125 c 0,16,17
 1850 350 1850 350 1623.01269531 213.153320312 c 1,18,19
 1701.5126368 187.161369804 1701.5126368 187.161369804 1985.06640625 188.018554688 c 2,20,-1
 2040.62988281 188.186523438 l 1,21,-1
 2040.62988281 -10.27734375 l 1,22,-1
 1976.63964844 -10.28125 l 1,23,24
 1733 -13 1733 -13 1522.68261719 133.0390625 c 1,25,26
 1358.21811969 -9.810546875 1358.21811969 -9.810546875 1004.76953125 -9.810546875 c 2,27,-1
 880.3515625 -9.810546875 l 1,28,29
 445 -14 445 -14 306.219726562 59.1396484375 c 0,30,31
 93 170 93 170 91.013671875 444.005859375 c 4,32,33
 90 578 90 578 130 682 c 4,34,35
 153 742 153 742 184.532226562 727.696289062 c 4,36,37
 200 721 200 721 195.142578125 694.287109375 c 4,38,39
 182 627 182 627 181 619 c 4,40,41
 172 561 172 561 174.829101562 503.297851562 c 28,0,1
1378.63671875 596.061523438 m 0,42,43
 1268.67048288 485.169239582 1268.67048288 485.169239582 1388.42724609 365.307128906 c 0,44,45
 1446.15429688 307.529296875 1446.15429688 307.529296875 1521.70987769 307.521735291 c 128,-1,46
 1597.26545851 307.514173707 1597.26545851 307.514173707 1656.1171875 362.040039062 c 0,47,48
 1777.19726562 474.299804688 1777.19726562 474.299804688 1652.16113281 605.459960938 c 0,49,50
 1551.51472241 711.924559481 1551.51472241 711.924559481 1454.796875 657.342773438 c 0,51,52
 1418.68164062 636.961914062 1418.68164062 636.961914062 1378.63671875 596.061523438 c 0,42,43
EndSplineSet
EndChar

StartChar: uni06A1.init
Encoding: 281 -1 269
Width: 808
VWidth: 2912
GlyphClass: 2
Flags: W
AnchorPoint: "Anchor-10" 375.889 1567.22 basechar 0
AnchorPoint: "Anchor-7" 387.346 -289.879 basechar 0
LayerCount: 2
Fore
SplineSet
378.698242188 836.203125 m 4,0,1
 243 833 243 833 209.231445312 680.081054688 c 4,2,3
 190 591 190 591 291.899414062 566.424804688 c 4,4,5
 443 529 443 529 602.893554688 578.755859375 c 5,6,7
 598 637 598 637 563.325195312 718.4140625 c 4,8,9
 512 839 512 839 378.698242188 836.203125 c 4,0,1
697.2578125 367.364257812 m 4,10,11
 620.943164968 -10.28125 620.943164968 -10.28125 199.17578125 -10.28125 c 2,12,-1
 -10.19140625 -10.28125 l 1,13,-1
 -10.19140625 188.201171875 l 1,14,-1
 180.301757812 188.201171875 l 2,15,16
 587.422862417 187.999790833 587.422862417 187.999790833 601.149414062 398.594726562 c 6,17,-1
 601.62890625 405.951171875 l 5,18,19
 473 364 473 364 343.508789062 380.051757812 c 4,20,21
 215 396 215 396 156.28125 479.6875 c 4,22,23
 101 560 101 560 114.711914062 672.64453125 c 4,24,25
 138 863 138 863 259.053710938 981.12109375 c 4,26,27
 325 1045 325 1045 424.3125 1035.60839844 c 4,28,29
 461 1032 461 1032 509.984375 1005.74804688 c 4,30,31
 612 951 612 951 674.139648438 780.908203125 c 4,32,33
 698 716 698 716 708.380859375 623.624023438 c 4,34,35
 722 493 722 493 697.2578125 367.364257812 c 4,10,11
EndSplineSet
EndChar

StartChar: uni06A1.medi
Encoding: 282 -1 270
Width: 1058
VWidth: 2887
GlyphClass: 2
Flags: W
AnchorPoint: "Anchor-10" 595.115 1304.58 basechar 0
AnchorPoint: "Anchor-7" 595.115 -284.521 basechar 0
LayerCount: 2
Fore
SplineSet
637.092773438 213.467773438 m 1,0,-1
 649.768554688 210.241210938 l 2,1,2
 745.478476104 185.394986473 745.478476104 185.394986473 1018.45703125 188.018554688 c 2,3,-1
 1068.65234375 188.500976562 l 1,4,-1
 1068.65234375 -11.501953125 l 1,5,-1
 1009.96777344 -12.1435546875 l 2,6,7
 731.467471154 -15.0054723593 731.467471154 -15.0054723593 541.21875 113.403320312 c 2,8,-1
 538.154296875 115.471679688 l 1,9,-1
 535.278320312 113.147460938 l 2,10,11
 379.821882677 -12.1435546875 379.821882677 -12.1435546875 105.774414062 -12.1435546875 c 2,12,-1
 -10.5966796875 -12.1435546875 l 1,13,-1
 -10.5966796875 188.017578125 l 1,14,-1
 49.8896484375 188.018554688 l 2,15,16
 370.296311902 187.999982825 370.296311902 187.999982825 422.513671875 211.317382812 c 2,17,-1
 433 216 l 1,18,19
 278 285 278 285 245.995117188 431.361328125 c 0,20,21
 218 557 218 557 303.802734375 693.49609375 c 4,22,23
 403 852 403 852 542.112304688 852.004882812 c 0,24,25
 652 852 652 852 743.080078125 747.814453125 c 0,26,27
 834 643 834 643 841.748046875 566.240234375 c 0,28,29
 864 351 864 351 637.092773438 213.467773438 c 1,0,-1
392.716796875 596.375976562 m 0,30,31
 283 485 283 485 402.5078125 365.62109375 c 0,32,33
 460 308 460 308 535.790039062 307.8359375 c 0,34,35
 611 308 611 308 670.197265625 362.354492188 c 0,36,37
 791 475 791 475 666.241210938 605.774414062 c 0,38,39
 565.034705424 713.022922419 565.034705424 713.022922419 468.876953125 657.657226562 c 0,40,41
 433 637 433 637 392.716796875 596.375976562 c 0,30,31
EndSplineSet
EndChar

StartChar: uni066F.fina
Encoding: 283 -1 271
Width: 1456
VWidth: 2912
GlyphClass: 2
Flags: W
AnchorPoint: "Anchor-10" 365.416 1185.18 basechar 0
AnchorPoint: "Anchor-7" 478.348 -1000.44 basechar 0
LayerCount: 2
Fore
SplineSet
677.23828125 -596.416992188 m 0,0,1
 343 -599 343 -599 197 -412 c 128,-1,2
 51 -225 51 -225 106.541992188 103.661132812 c 0,3,4
 121 189 121 189 150.5 265 c 128,-1,5
 180 341 180 341 203.5 377.5 c 128,-1,6
 227 414 227 414 253.101943931 399.735204207 c 128,-1,7
 279.203887862 385.470408415 279.203887862 385.470408415 237.704101562 255.375976562 c 0,8,9
 150 -21 150 -21 246.5 -211.5 c 128,-1,10
 343 -402 343 -402 714.926757812 -394.998046875 c 0,11,12
 1146.51455769 -387.008985954 1146.51455769 -387.008985954 1190.80566406 -15.8740234375 c 2,13,-1
 1191.546875 -9.6630859375 l 1,14,15
 918.983574117 -37.8991208744 918.983574117 -37.8991208744 819.88671875 11.47265625 c 0,16,17
 773 35 773 35 745.890625 78.7607421875 c 0,18,19
 689 168 689 168 706.33984375 308.076171875 c 0,20,21
 733 519 733 519 856.59375 633.053710938 c 0,22,23
 916 688 916 688 1001 688 c 128,-1,24
 1086 688 1086 688 1152.75 617.985351562 c 0,25,26
 1278.10717038 486.887922154 1278.10717038 486.887922154 1292.08984375 301.220703125 c 2,27,-1
 1300.58984375 188.354492188 l 1,28,-1
 1466.77636719 188.708007812 l 1,29,-1
 1466.77636719 -11.27734375 l 1,30,-1
 1299.2734375 -11.27734375 l 1,31,32
 1294.64326166 -42.4181219363 1294.64326166 -42.4181219363 1293.24609375 -54.5419921875 c 0,33,34
 1209 -592 1209 -592 677.23828125 -596.416992188 c 0,0,1
1155.80761719 365.791992188 m 0,35,36
 1099.91796875 487.0859375 1099.91796875 487.0859375 973.084960938 486.854492188 c 0,37,38
 828.192487293 487.113839756 828.192487293 487.113839756 806.358398438 296.255859375 c 0,39,40
 794.155234903 189.584536299 794.155234903 189.584536299 895.850585938 182.82421875 c 0,41,42
 1015.55378236 174.679213865 1015.55378236 174.679213865 1192.22558594 187.670898438 c 1,43,44
 1193.52153704 281.178755089 1193.52153704 281.178755089 1155.80761719 365.791992188 c 0,35,36
EndSplineSet
EndChar

StartChar: arabic_ring
Encoding: 286 -1 274
Width: 556
VWidth: 2607
GlyphClass: 2
Flags: W
LayerCount: 2
Fore
SplineSet
342.626953125 390.5 m 0,0,1
 314.636850213 407.271484375 314.636850213 407.271484375 280.854254487 407.271484375 c 128,-1,2
 247.071658761 407.271484375 247.071658761 407.271484375 221.014648438 394.115234375 c 0,3,4
 152.631835938 359.580873639 152.631835938 359.580873639 152.631835938 280.961914062 c 0,5,6
 152.631835938 226.31739814 152.631835938 226.31739814 189.119628906 190.484382664 c 128,-1,7
 225.607421875 154.651367188 225.607421875 154.651367188 278.942382812 154.651367188 c 128,-1,8
 332.30859375 154.651367188 332.30859375 154.651367188 368.779296875 191.125 c 128,-1,9
 405.252929688 227.596679688 405.252929688 227.596679688 405.252929688 290.291117435 c 128,-1,10
 405.252929688 352.985555183 405.252929688 352.985555183 342.626953125 390.5 c 0,0,1
555.123046875 280.961914062 m 128,-1,12
 555.123046875 164.912109375 555.123046875 164.912109375 475.052246094 84.208984375 c 128,-1,13
 394.981445312 3.505859375 394.981445312 3.505859375 278.942382812 3.505859375 c 128,-1,14
 162.91796875 3.505859375 162.91796875 3.505859375 82.8393554688 84.21484375 c 128,-1,15
 2.7607421875 164.923828125 2.7607421875 164.923828125 2.7607421875 280.961914062 c 128,-1,16
 2.7607421875 397.000976562 2.7607421875 397.000976562 82.8315429688 477.071777344 c 128,-1,17
 162.90234375 557.142578125 162.90234375 557.142578125 278.942382812 557.142578125 c 128,-1,18
 394.991210938 557.142578125 394.991210938 557.142578125 475.688476562 477.70703125 c 0,19,11
 555.123046875 397.012695312 555.123046875 397.012695312 555.123046875 280.961914062 c 128,-1,12
EndSplineSet
EndChar

StartChar: arabic_gaf_bar
Encoding: 287 -1 275
Width: 671
VWidth: 2419
GlyphClass: 2
Flags: W
LayerCount: 2
Fore
SplineSet
602.291992188 1801.53515625 m 5,0,-1
 16 1559 l 1,1,-1
 53.7109375 1684.93457031 l 1,2,-1
 658.063476562 1943.40039062 l 5,3,4
 638 1861 638 1861 602.291992188 1801.53515625 c 5,0,-1
EndSplineSet
EndChar

StartChar: uni066E.init.math
Encoding: 297 -1 285
Width: 1156
VWidth: 2892
GlyphClass: 2
Flags: W
LayerCount: 2
Fore
SplineSet
746.904296875 80.17578125 m 0,0,1
 650.278320312 -34.298828125 650.278320312 -34.298828125 436.893554688 -34.298828125 c 2,2,-1
 -27.2197265625 -34.298828125 l 1,3,-1
 -27.2197265625 177.390625 l 1,4,-1
 357.438476562 177.390625 l 2,5,6
 434.524414062 177.390625 434.524414062 177.390625 490.756835938 195.196289062 c 0,7,8
 547.416992188 213.137695312 547.416992188 213.137695312 583.161132812 248.879882812 c 0,9,10
 661.874023438 327.59765625 661.874023438 327.59765625 661.874023438 491.938476562 c 2,11,-1
 661.874023438 778.361328125 l 1,12,-1
 873.560546875 778.361328125 l 1,13,-1
 873.560546875 491.938476562 l 2,14,15
 873.560546875 361.983398438 873.560546875 361.983398438 841.873046875 259.102539062 c 128,-1,16
 810.184570312 156.220703125 810.184570312 156.220703125 746.904296875 80.17578125 c 0,0,1
EndSplineSet
EndChar

StartChar: guillemotleft
Encoding: 5 171 286
Width: 1264
VWidth: 2607
Flags: W
LayerCount: 2
Fore
SplineSet
598.813476562 1183.93261719 m 1,0,-1
 568.685546875 1130.95703125 l 2,1,2
 492.953125 997.795898438 492.953125 997.795898438 455.236328125 868.219726562 c 0,3,4
 416.359375 734.693359375 416.359375 734.693359375 416.359375 597.626953125 c 128,-1,5
 416.359375 460.537109375 416.359375 460.537109375 455.250976562 326.071289062 c 0,6,7
 492.979492188 195.615234375 492.979492188 195.615234375 568.633789062 63.1298828125 c 2,8,-1
 598.9140625 10.1015625 l 1,9,-1
 434.474609375 10.1015625 l 1,10,-1
 424.028320312 26.552734375 l 2,11,12
 405.543945312 55.6689453125 405.543945312 55.6689453125 388.909179688 84.591796875 c 128,-1,13
 372.274414062 113.515625 372.274414062 113.515625 357.49609375 142.231445312 c 128,-1,14
 342.717773438 170.948242188 342.717773438 170.948242188 329.787109375 199.470703125 c 128,-1,15
 316.857421875 227.994140625 316.857421875 227.994140625 305.78125 256.30859375 c 128,-1,16
 294.704101562 284.624023438 294.704101562 284.624023438 285.474609375 312.745117188 c 0,17,18
 261.97265625 384.374023438 261.97265625 384.374023438 250.217773438 455.61328125 c 0,19,20
 246.299804688 479.353515625 246.299804688 479.353515625 243.688476562 503.045898438 c 128,-1,21
 241.077148438 526.739257812 241.077148438 526.739257812 239.772460938 550.383789062 c 128,-1,22
 238.466796875 574.02734375 238.466796875 574.02734375 238.466796875 597.626953125 c 0,23,24
 238.466796875 609.381835938 238.466796875 609.381835938 238.79296875 621.147460938 c 128,-1,25
 239.120117188 632.913085938 239.120117188 632.913085938 239.772460938 644.690429688 c 128,-1,26
 240.42578125 656.467773438 240.42578125 656.467773438 241.405273438 668.256835938 c 0,27,28
 244.344726562 703.624023438 244.344726562 703.624023438 250.221679688 739.083984375 c 128,-1,29
 256.100585938 774.543945312 256.100585938 774.543945312 264.915039062 810.102539062 c 128,-1,30
 273.73046875 845.661132812 273.73046875 845.661132812 285.485351562 881.321289062 c 0,31,32
 297.029296875 916.331054688 297.029296875 916.331054688 311.459960938 951.721679688 c 128,-1,33
 325.890625 987.11328125 325.890625 987.11328125 343.204101562 1022.87695312 c 128,-1,34
 360.51953125 1058.640625 360.51953125 1058.640625 380.715820312 1094.77441406 c 0,35,36
 390.815429688 1112.84179688 390.815429688 1112.84179688 401.63671875 1131.00488281 c 128,-1,37
 412.458007812 1149.16796875 412.458007812 1149.16796875 424.000976562 1167.42382812 c 2,38,-1
 434.44140625 1183.93261719 l 1,39,-1
 598.813476562 1183.93261719 l 1,0,-1
1077.72851562 1183.93261719 m 1,40,-1
 1047.59960938 1130.95703125 l 2,41,42
 1009.74414062 1064.39355469 1009.74414062 1064.39355469 981.37890625 998.708984375 c 128,-1,43
 953.014648438 933.025390625 953.014648438 933.025390625 934.151367188 868.219726562 c 0,44,45
 914.7109375 801.454101562 914.7109375 801.454101562 904.993164062 733.810546875 c 0,46,47
 902.563476562 716.899414062 902.563476562 716.899414062 900.741210938 699.931640625 c 128,-1,48
 898.91796875 682.96484375 898.91796875 682.96484375 897.703125 665.94140625 c 128,-1,49
 896.48828125 648.91796875 896.48828125 648.91796875 895.880859375 631.83984375 c 128,-1,50
 895.2734375 614.760742188 895.2734375 614.760742188 895.2734375 597.626953125 c 0,51,52
 895.2734375 529.083007812 895.2734375 529.083007812 904.997070312 461.1875 c 128,-1,53
 914.721679688 393.291992188 914.721679688 393.291992188 934.1640625 326.071289062 c 0,54,55
 943.596679688 293.453125 943.596679688 293.453125 955.40234375 260.70703125 c 128,-1,56
 967.20703125 227.961914062 967.20703125 227.961914062 981.381835938 195.090820312 c 0,57,58
 1009.72167969 129.372070312 1009.72167969 129.372070312 1047.54980469 63.1298828125 c 2,59,-1
 1077.82617188 10.1015625 l 1,60,-1
 913.388671875 10.1015625 l 1,61,-1
 902.943359375 26.552734375 l 2,62,63
 856.752929688 99.3037109375 856.752929688 99.3037109375 822.1171875 170.853515625 c 128,-1,64
 787.481445312 242.403320312 787.481445312 242.403320312 764.390625 312.745117188 c 0,65,66
 740.87890625 384.401367188 740.87890625 384.401367188 729.12890625 455.614257812 c 128,-1,67
 717.379882812 526.826171875 717.379882812 526.826171875 717.379882812 597.626953125 c 0,68,69
 717.379882812 668.158203125 717.379882812 668.158203125 729.131835938 739.07421875 c 128,-1,70
 740.883789062 809.990234375 740.883789062 809.990234375 764.401367188 881.321289062 c 0,71,72
 787.47265625 951.30078125 787.47265625 951.30078125 822.099609375 1022.82910156 c 128,-1,73
 856.7265625 1094.35742188 856.7265625 1094.35742188 902.916992188 1167.42480469 c 2,74,-1
 913.35546875 1183.93261719 l 1,75,-1
 1077.72851562 1183.93261719 l 1,40,-1
EndSplineSet
EndChar

StartChar: guillemotright
Encoding: 6 187 287
Width: 1264
VWidth: 2607
Flags: W
LayerCount: 2
Fore
SplineSet
668.526367188 1183.93261719 m 1,0,-1
 832.899414062 1183.93261719 l 1,1,-1
 843.336914062 1167.42480469 l 2,2,3
 854.885742188 1149.15820312 854.885742188 1149.15820312 865.712890625 1130.98632812 c 128,-1,4
 876.5390625 1112.81445312 876.5390625 1112.81445312 886.641601562 1094.73925781 c 128,-1,5
 896.745117188 1076.66503906 896.745117188 1076.66503906 906.124023438 1058.6875 c 128,-1,6
 915.50390625 1040.7109375 915.50390625 1040.7109375 924.162109375 1022.828125 c 0,7,8
 958.7890625 951.302734375 958.7890625 951.302734375 981.853515625 881.321289062 c 0,9,10
 1028.87304688 738.703125 1028.87304688 738.703125 1028.87304688 597.626953125 c 0,11,12
 1028.87304688 574.026367188 1028.87304688 574.026367188 1027.56738281 550.37890625 c 128,-1,13
 1026.26171875 526.731445312 1026.26171875 526.731445312 1023.65039062 503.036132812 c 128,-1,14
 1021.03710938 479.337890625 1021.03710938 479.337890625 1017.12011719 455.59765625 c 128,-1,15
 1013.203125 431.857421875 1013.203125 431.857421875 1007.98144531 408.07421875 c 0,16,17
 997.534179688 360.5 997.534179688 360.5 981.865234375 312.745117188 c 0,18,19
 935.791015625 172.392578125 935.791015625 172.392578125 843.55078125 26.9326171875 c 2,20,-1
 832.866210938 10.1015625 l 1,21,-1
 668.426757812 10.1015625 l 1,22,-1
 698.706054688 63.1298828125 l 2,23,24
 774.388671875 195.674804688 774.388671875 195.674804688 812.088867188 326.0703125 c 0,25,26
 831.532226562 393.293945312 831.532226562 393.293945312 841.255859375 461.189453125 c 128,-1,27
 850.98046875 529.084960938 850.98046875 529.084960938 850.98046875 597.626953125 c 128,-1,28
 850.98046875 666.15625 850.98046875 666.15625 841.260742188 733.810546875 c 128,-1,29
 831.540039062 801.465820312 831.540039062 801.465820312 812.10546875 868.219726562 c 0,30,31
 774.359375 997.865234375 774.359375 997.865234375 698.65625 1130.95703125 c 2,32,-1
 668.526367188 1183.93261719 l 1,0,-1
189.611328125 1183.93261719 m 1,33,-1
 353.984375 1183.93261719 l 1,34,-1
 364.421875 1167.42480469 l 2,35,36
 456.764648438 1021.37207031 456.764648438 1021.37207031 502.939453125 881.3203125 c 0,37,38
 549.9609375 738.69921875 549.9609375 738.69921875 549.9609375 597.626953125 c 0,39,40
 549.9609375 574.026367188 549.9609375 574.026367188 548.655273438 550.379882812 c 128,-1,41
 547.348632812 526.733398438 547.348632812 526.733398438 544.736328125 503.038085938 c 128,-1,42
 542.124023438 479.33984375 542.124023438 479.33984375 538.20703125 455.599609375 c 128,-1,43
 534.290039062 431.860351562 534.290039062 431.860351562 529.06640625 408.077148438 c 0,44,45
 518.618164062 360.501953125 518.618164062 360.501953125 502.94921875 312.745117188 c 0,46,47
 491.41015625 277.592773438 491.41015625 277.592773438 476.984375 242.135742188 c 128,-1,48
 462.55859375 206.677734375 462.55859375 206.677734375 445.2421875 170.903320312 c 128,-1,49
 427.924804688 135.12890625 427.924804688 135.12890625 407.711914062 99.0380859375 c 128,-1,50
 387.499023438 62.947265625 387.499023438 62.947265625 364.396484375 26.552734375 c 2,51,-1
 353.951171875 10.1015625 l 1,52,-1
 189.513671875 10.1015625 l 1,53,-1
 219.791015625 63.1298828125 l 2,54,55
 295.47265625 195.673828125 295.47265625 195.673828125 333.176757812 326.071289062 c 0,56,57
 372.065429688 460.533203125 372.065429688 460.533203125 372.065429688 597.626953125 c 0,58,59
 372.065429688 617.20703125 372.065429688 617.20703125 371.271484375 636.716796875 c 128,-1,60
 370.478515625 656.2265625 370.478515625 656.2265625 368.890625 675.6640625 c 128,-1,61
 367.303710938 695.100585938 367.303710938 695.100585938 364.923828125 714.466796875 c 128,-1,62
 362.54296875 733.83203125 362.54296875 733.83203125 359.369140625 753.124023438 c 128,-1,63
 356.1953125 772.416992188 356.1953125 772.416992188 352.228515625 791.63671875 c 128,-1,64
 348.26171875 810.856445312 348.26171875 810.856445312 343.501953125 830.001953125 c 128,-1,65
 338.7421875 849.147460938 338.7421875 849.147460938 333.189453125 868.219726562 c 0,66,67
 295.4453125 997.865234375 295.4453125 997.865234375 219.741210938 1130.95703125 c 2,68,-1
 189.611328125 1183.93261719 l 1,33,-1
EndSplineSet
EndChar

StartChar: NameMe.337
Encoding: 299 -1 294
Width: 780
VWidth: 2776
Flags: W
LayerCount: 2
Fore
SplineSet
346.01953125 122.926757812 m 2,0,1
 292.409179688 63.0576171875 292.409179688 63.0576171875 231.681640625 33.28125 c 128,-1,2
 170.953125 3.505859375 170.953125 3.505859375 102.7890625 3.505859375 c 2,3,-1
 -23.2236328125 3.505859375 l 1,4,-1
 -23.2236328125 213.215820312 l 1,5,-1
 27.8310546875 213.215820312 l 2,6,7
 61.8154296875 213.215820312 61.8154296875 213.215820312 92.0029296875 217.443359375 c 0,8,9
 96.3212890625 218.048828125 96.3212890625 218.048828125 100.561523438 218.739257812 c 128,-1,10
 104.801757812 219.4296875 104.801757812 219.4296875 108.966796875 220.208007812 c 128,-1,11
 113.131835938 220.985351562 113.131835938 220.985351562 117.217773438 221.849609375 c 128,-1,12
 121.303710938 222.712890625 121.303710938 222.712890625 125.314453125 223.6640625 c 128,-1,13
 129.325195312 224.615234375 129.325195312 224.615234375 133.256835938 225.653320312 c 128,-1,14
 137.188476562 226.69140625 137.188476562 226.69140625 141.044921875 227.81640625 c 128,-1,15
 144.900390625 228.94140625 144.900390625 228.94140625 148.677734375 230.153320312 c 0,16,17
 175.153320312 238.647460938 175.153320312 238.647460938 197.79296875 251.336914062 c 0,18,19
 201.572265625 253.454101562 201.572265625 253.454101562 205.24609375 255.690429688 c 128,-1,20
 208.919921875 257.92578125 208.919921875 257.92578125 212.490234375 260.279296875 c 128,-1,21
 216.060546875 262.6328125 216.060546875 262.6328125 219.526367188 265.104492188 c 128,-1,22
 222.9921875 267.576171875 222.9921875 267.576171875 226.353515625 270.166015625 c 128,-1,23
 229.71484375 272.755859375 229.71484375 272.755859375 232.97265625 275.46484375 c 128,-1,24
 236.23046875 278.172851562 236.23046875 278.172851562 239.3828125 280.999023438 c 0,25,26
 325.126953125 357.962890625 325.126953125 357.962890625 317.733398438 510.7578125 c 2,27,-1
 268.1484375 1535.03710938 l 1,28,-1
 462.360351562 1621.69921875 l 1,29,-1
 462.360351562 510.623046875 l 2,30,31
 462.360351562 357.705078125 462.360351562 357.705078125 501.77734375 301.041992188 c 0,32,33
 562.875976562 213.215820312 562.875976562 213.215820312 757.360351562 213.215820312 c 2,34,-1
 807.139648438 213.215820312 l 1,35,-1
 807.139648438 3.505859375 l 1,36,-1
 682.401367188 3.505859375 l 2,37,38
 494.124023438 3.505859375 494.124023438 3.505859375 384.12890625 123.231445312 c 2,39,-1
 364.966796875 144.084960938 l 1,40,-1
 346.01953125 122.926757812 l 2,0,1
EndSplineSet
EndChar

StartChar: NameMe.338
Encoding: 300 -1 295
Width: 676
VWidth: 2776
Flags: W
LayerCount: 2
Fore
SplineSet
498.022460938 556.9609375 m 2,0,1
 498.022460938 247.981445312 498.022460938 247.981445312 366.66015625 117.475585938 c 0,2,3
 247.624023438 3.505859375 247.624023438 3.505859375 69.6728515625 3.505859375 c 2,4,-1
 -23.2236328125 3.505859375 l 1,5,-1
 -23.2236328125 213.215820312 l 1,6,-1
 16.3681640625 213.215820312 l 2,7,8
 194.9296875 213.215820312 194.9296875 213.215820312 277.22265625 316.038085938 c 0,9,10
 357.704101562 416.618164062 357.704101562 416.618164062 350.848632812 573.436523438 c 2,11,-1
 302.53125 1679.03710938 l 1,12,-1
 498.022460938 1765.72558594 l 1,13,-1
 498.022460938 556.9609375 l 2,0,1
EndSplineSet
EndChar

StartChar: exclam
Encoding: 1 33 298
Width: 699
VWidth: -1
Flags: W
LayerCount: 2
Fore
SplineSet
332.861328125 1649.63085938 m 2,0,-1
 358.55078125 1649.63085938 l 2,1,2
 436.540039062 1649.93945312 436.540039062 1649.93945312 434.013671875 1533.33105469 c 2,3,-1
 411.37890625 488.671875 l 1,4,-1
 280.017578125 488.671875 l 1,5,-1
 257.387695312 1532.17480469 l 2,6,7
 254.600585938 1649.93945312 254.600585938 1649.93945312 332.861328125 1649.63085938 c 2,0,-1
213.8671875 138.231445312 m 0,8,9
 213.8671875 194.571289062 213.8671875 194.571289062 252.532226562 234.407226562 c 0,10,11
 266.240234375 247.724609375 266.240234375 247.724609375 281.600585938 256.581054688 c 128,-1,12
 296.9609375 265.4375 296.9609375 265.4375 314.029296875 269.861328125 c 128,-1,13
 331.09765625 274.28515625 331.09765625 274.28515625 349.919921875 274.28515625 c 0,14,15
 378.169921875 274.28515625 378.169921875 274.28515625 402.125 264.352539062 c 128,-1,16
 426.080078125 254.419921875 426.080078125 254.419921875 446.09375 234.407226562 c 128,-1,17
 466.107421875 214.392578125 466.107421875 214.392578125 476.040039062 190.4375 c 128,-1,18
 485.97265625 166.481445312 485.97265625 166.481445312 485.97265625 138.231445312 c 0,19,20
 485.97265625 81.892578125 485.97265625 81.892578125 446.09375 40.8427734375 c 0,21,22
 406.2578125 2.1787109375 406.2578125 2.1787109375 349.919921875 2.1787109375 c 0,23,24
 331.057617188 2.1787109375 331.057617188 2.1787109375 313.98828125 6.46875 c 128,-1,25
 296.919921875 10.7587890625 296.919921875 10.7587890625 281.55078125 19.3662109375 c 128,-1,26
 266.241210938 27.9404296875 266.241210938 27.9404296875 252.532226562 40.8427734375 c 0,27,28
 233.159179688 61.4248046875 233.159179688 61.4248046875 223.525390625 85.6552734375 c 128,-1,29
 213.8671875 109.948242188 213.8671875 109.948242188 213.8671875 138.231445312 c 0,8,9
252.532226562 40.8427734375 m 128,-1,31
 252.478515625 40.8935546875 252.478515625 40.8935546875 252.424804688 40.943359375 c 2,32,-1
 252.6328125 40.7353515625 l 2,33,30
 252.583007812 40.7890625 252.583007812 40.7890625 252.532226562 40.8427734375 c 128,-1,31
EndSplineSet
EndChar

StartChar: period
Encoding: 2 46 299
Width: 800
VWidth: 2614
Flags: W
LayerCount: 2
Fore
SplineSet
277.573242188 138.231445312 m 0,0,1
 277.573242188 166.484375 277.573242188 166.484375 287.224609375 190.471679688 c 128,-1,2
 296.875976562 214.458984375 296.875976562 214.458984375 316.237304688 234.407226562 c 0,3,4
 336.796875 254.379882812 336.796875 254.379882812 361.09765625 264.33203125 c 128,-1,5
 385.3984375 274.28515625 385.3984375 274.28515625 413.625 274.28515625 c 0,6,7
 432.466796875 274.28515625 432.466796875 274.28515625 449.377929688 269.873046875 c 128,-1,8
 466.288085938 265.461914062 466.288085938 265.461914062 481.370117188 256.608398438 c 128,-1,9
 496.452148438 247.754882812 496.452148438 247.754882812 509.799804688 234.407226562 c 0,10,11
 549.678710938 194.52734375 549.678710938 194.52734375 549.678710938 138.231445312 c 128,-1,12
 549.678710938 81.892578125 549.678710938 81.892578125 509.799804688 40.8427734375 c 0,13,14
 469.965820312 2.1787109375 469.965820312 2.1787109375 413.625 2.1787109375 c 128,-1,15
 357.244140625 2.1787109375 357.244140625 2.1787109375 316.129882812 40.943359375 c 0,16,17
 277.573242188 81.849609375 277.573242188 81.849609375 277.573242188 138.231445312 c 0,0,1
EndSplineSet
EndChar

StartChar: colon
Encoding: 3 58 300
Width: 800
VWidth: 2614
Flags: W
LayerCount: 2
Fore
SplineSet
277.573242188 138.231445312 m 0,0,1
 277.573242188 166.484375 277.573242188 166.484375 287.224609375 190.471679688 c 128,-1,2
 296.875976562 214.458984375 296.875976562 214.458984375 316.237304688 234.407226562 c 0,3,4
 336.796875 254.379882812 336.796875 254.379882812 361.09765625 264.33203125 c 128,-1,5
 385.3984375 274.28515625 385.3984375 274.28515625 413.625 274.28515625 c 0,6,7
 432.466796875 274.28515625 432.466796875 274.28515625 449.377929688 269.873046875 c 128,-1,8
 466.288085938 265.461914062 466.288085938 265.461914062 481.370117188 256.608398438 c 128,-1,9
 496.452148438 247.754882812 496.452148438 247.754882812 509.799804688 234.407226562 c 0,10,11
 549.678710938 194.52734375 549.678710938 194.52734375 549.678710938 138.231445312 c 128,-1,12
 549.678710938 81.892578125 549.678710938 81.892578125 509.799804688 40.8427734375 c 0,13,14
 469.965820312 2.1787109375 469.965820312 2.1787109375 413.625 2.1787109375 c 128,-1,15
 357.244140625 2.1787109375 357.244140625 2.1787109375 316.129882812 40.943359375 c 0,16,17
 277.573242188 81.849609375 277.573242188 81.849609375 277.573242188 138.231445312 c 0,0,1
277.573242188 811.245117188 m 0,18,19
 277.573242188 830.088867188 277.573242188 830.088867188 281.8671875 847.030273438 c 128,-1,20
 286.161132812 863.971679688 286.161132812 863.971679688 294.745117188 879.045898438 c 128,-1,21
 303.329101562 894.12109375 303.329101562 894.12109375 316.237304688 907.419921875 c 0,22,23
 336.796875 927.392578125 336.796875 927.392578125 361.09765625 937.344726562 c 128,-1,24
 385.3984375 947.297851562 385.3984375 947.297851562 413.625 947.297851562 c 128,-1,25
 441.876953125 947.297851562 441.876953125 947.297851562 465.83203125 937.365234375 c 128,-1,26
 489.787109375 927.432617188 489.787109375 927.432617188 509.799804688 907.419921875 c 128,-1,27
 529.813476562 887.405273438 529.813476562 887.405273438 539.74609375 863.450195312 c 128,-1,28
 549.678710938 839.495117188 549.678710938 839.495117188 549.678710938 811.245117188 c 128,-1,29
 549.678710938 783.0078125 549.678710938 783.0078125 539.729492188 758.715820312 c 128,-1,30
 529.780273438 734.422851562 529.780273438 734.422851562 509.799804688 713.85546875 c 0,31,32
 469.965820312 675.192382812 469.965820312 675.192382812 413.625 675.192382812 c 128,-1,33
 357.244140625 675.192382812 357.244140625 675.192382812 316.129882812 713.956054688 c 0,34,35
 277.573242188 754.862304688 277.573242188 754.862304688 277.573242188 811.245117188 c 0,18,19
EndSplineSet
EndChar
